<svg height='100px' width='100px'  fill="#000000" xmlns="http://www.w3.org/2000/svg" xmlns:xlink="http://www.w3.org/1999/xlink" version="1.1" x="0px" y="0px" viewBox="0 0 32 32" enable-background="new 0 0 32 32" xml:space="preserve"><g><g><path d="M30,27h-5.5V4.5C24.5,4.224,24.276,4,24,4H8C7.724,4,7.5,4.224,7.5,4.5V27H2c-0.276,0-0.5,0.224-0.5,0.5S1.724,28,2,28h6    h5h6h5h6c0.276,0,0.5-0.224,0.5-0.5S30.276,27,30,27z M13.5,27v-5h5v5H13.5z M19.5,27v-5.5c0-0.276-0.224-0.5-0.5-0.5h-6    c-0.276,0-0.5,0.224-0.5,0.5V27h-4V5h15v22H19.5z"></path><path d="M14,6h-3c-0.276,0-0.5,0.224-0.5,0.5v5c0,0.276,0.224,0.5,0.5,0.5h3c0.276,0,0.5-0.224,0.5-0.5v-5    C14.5,6.224,14.276,6,14,6z M13.5,11h-2V7h2V11z"></path><path d="M21,6h-3c-0.276,0-0.5,0.224-0.5,0.5v5c0,0.276,0.224,0.5,0.5,0.5h3c0.276,0,0.5-0.224,0.5-0.5v-5    C21.5,6.224,21.276,6,21,6z M20.5,11h-2V7h2V11z"></path><path d="M14,14h-3c-0.276,0-0.5,0.224-0.5,0.5v5c0,0.276,0.224,0.5,0.5,0.5h3c0.276,0,0.5-0.224,0.5-0.5v-5    C14.5,14.224,14.276,14,14,14z M13.5,19h-2v-4h2V19z"></path><path d="M21,14h-3c-0.276,0-0.5,0.224-0.5,0.5v5c0,0.276,0.224,0.5,0.5,0.5h3c0.276,0,0.5-0.224,0.5-0.5v-5    C21.5,14.224,21.276,14,21,14z M20.5,19h-2v-4h2V19z"></path></g></g></svg>