<svg height='100px' width='100px'  fill="#000000" xmlns="http://www.w3.org/2000/svg" xmlns:xlink="http://www.w3.org/1999/xlink" version="1.1" x="0px" y="0px" viewBox="0 0 32 32" enable-background="new 0 0 32 32" xml:space="preserve"><g><g><path d="M28.928,13.75H28.76H28h-1.765l-4.392-5.27c-0.387-0.464-0.956-0.73-1.56-0.73H8.819c-0.68,0-1.312,0.338-1.689,0.904    L3.732,13.75H3.24c-0.959,0-1.74,0.78-1.74,1.74v3.52c0,0.96,0.781,1.74,1.74,1.74H3.5c0,1.93,1.57,3.5,3.5,3.5s3.5-1.57,3.5-3.5    h11c0,1.93,1.57,3.5,3.5,3.5s3.5-1.57,3.5-3.5h0.26c0.959,0,1.74-0.78,1.74-1.74v-2.76v-0.76v-0.168    C30.5,14.455,29.795,13.75,28.928,13.75z M15.5,8.75h4.783c0.306,0,0.595,0.136,0.792,0.371l3.858,4.629H15.5V8.75z M7.961,9.209    C8.153,8.922,8.474,8.75,8.819,8.75H14.5v5H4.934L7.961,9.209z M7,23.25c-1.378,0-2.5-1.121-2.5-2.5    c0-0.165,0.011-0.282,0.043-0.42C4.739,19.125,5.772,18.25,7,18.25s2.261,0.875,2.465,2.121C9.489,20.468,9.5,20.585,9.5,20.75    C9.5,22.129,8.378,23.25,7,23.25z M25,23.25c-1.378,0-2.5-1.121-2.5-2.5c0-0.165,0.011-0.282,0.043-0.42    c0.195-1.205,1.229-2.08,2.457-2.08s2.261,0.875,2.465,2.121c0.024,0.097,0.035,0.214,0.035,0.379    C27.5,22.129,26.378,23.25,25,23.25z M29.5,19.01c0,0.401-0.339,0.74-0.74,0.74h-0.411c-0.01-0.035-0.027-0.066-0.038-0.1    c-0.027-0.083-0.059-0.161-0.092-0.241c-0.043-0.104-0.087-0.206-0.139-0.304c-0.04-0.076-0.083-0.149-0.129-0.221    c-0.058-0.093-0.12-0.183-0.187-0.27c-0.052-0.067-0.104-0.132-0.161-0.196c-0.073-0.082-0.15-0.158-0.23-0.232    c-0.061-0.057-0.122-0.113-0.187-0.165c-0.087-0.07-0.179-0.132-0.272-0.193c-0.068-0.045-0.134-0.09-0.205-0.13    c-0.102-0.057-0.21-0.104-0.318-0.15c-0.071-0.031-0.139-0.065-0.212-0.091c-0.123-0.044-0.251-0.074-0.38-0.104    c-0.065-0.015-0.127-0.037-0.193-0.048C25.408,17.27,25.207,17.25,25,17.25c-0.206,0-0.408,0.02-0.605,0.054    c-0.07,0.012-0.135,0.034-0.203,0.05c-0.124,0.029-0.248,0.058-0.366,0.1c-0.083,0.029-0.16,0.068-0.24,0.103    c-0.096,0.042-0.191,0.083-0.282,0.133c-0.088,0.049-0.171,0.105-0.254,0.161c-0.072,0.049-0.145,0.096-0.213,0.15    c-0.089,0.07-0.171,0.145-0.252,0.223c-0.053,0.05-0.105,0.101-0.154,0.154c-0.083,0.09-0.159,0.184-0.232,0.282    c-0.039,0.052-0.076,0.105-0.111,0.159c-0.069,0.105-0.132,0.212-0.189,0.325c-0.032,0.062-0.06,0.125-0.087,0.189    c-0.046,0.107-0.089,0.214-0.124,0.326c-0.01,0.031-0.025,0.059-0.035,0.091H10.349c-0.01-0.035-0.027-0.066-0.038-0.1    c-0.027-0.083-0.059-0.161-0.092-0.241c-0.043-0.104-0.087-0.206-0.139-0.304c-0.04-0.076-0.083-0.149-0.129-0.221    c-0.058-0.093-0.12-0.183-0.187-0.27c-0.052-0.067-0.104-0.132-0.161-0.196c-0.073-0.082-0.15-0.158-0.23-0.232    c-0.061-0.057-0.122-0.113-0.187-0.165c-0.087-0.07-0.179-0.132-0.272-0.193c-0.068-0.045-0.134-0.09-0.205-0.13    c-0.102-0.057-0.21-0.104-0.318-0.15c-0.071-0.031-0.139-0.065-0.212-0.091c-0.123-0.044-0.251-0.074-0.38-0.104    c-0.065-0.015-0.127-0.037-0.193-0.048C7.408,17.27,7.207,17.25,7,17.25c-0.206,0-0.408,0.02-0.605,0.054    c-0.07,0.012-0.135,0.034-0.203,0.05c-0.124,0.029-0.248,0.058-0.366,0.1c-0.083,0.029-0.16,0.068-0.24,0.103    c-0.096,0.042-0.191,0.083-0.282,0.133c-0.088,0.049-0.171,0.105-0.254,0.161c-0.072,0.049-0.145,0.096-0.213,0.15    c-0.089,0.07-0.171,0.145-0.252,0.223c-0.053,0.05-0.105,0.101-0.154,0.154c-0.083,0.09-0.159,0.184-0.232,0.282    c-0.039,0.052-0.076,0.105-0.111,0.159c-0.069,0.105-0.132,0.212-0.189,0.325c-0.032,0.062-0.06,0.125-0.087,0.189    c-0.046,0.107-0.089,0.214-0.124,0.326c-0.01,0.031-0.025,0.059-0.035,0.091H3.24c-0.401,0-0.74-0.339-0.74-0.74v-3.52    c0-0.401,0.339-0.74,0.74-0.74H4h22h0.02h1.48v1.5c0,0.276,0.224,0.5,0.5,0.5h1.5V19.01z M29.5,15.75h-1v-1h0.26    c0.401,0,0.74,0.339,0.74,0.74V15.75z"></path><path d="M7,18.96c-0.714,0-1.361,0.428-1.654,1.104C5.256,20.29,5.21,20.521,5.21,20.75c0,0.987,0.803,1.79,1.79,1.79    s1.79-0.803,1.79-1.79c0-0.229-0.046-0.46-0.142-0.699C8.361,19.388,7.714,18.96,7,18.96z M7,21.54c-0.436,0-0.79-0.354-0.79-0.79    c0-0.102,0.021-0.207,0.059-0.301C6.396,20.156,6.689,19.96,7,19.96s0.604,0.196,0.726,0.476c0.043,0.107,0.064,0.213,0.064,0.314    C7.79,21.186,7.436,21.54,7,21.54z"></path><path d="M25,18.96c-0.714,0-1.361,0.428-1.654,1.104c-0.09,0.226-0.136,0.456-0.136,0.686c0,0.987,0.803,1.79,1.79,1.79    s1.79-0.803,1.79-1.79c0-0.229-0.046-0.46-0.142-0.699C26.361,19.388,25.714,18.96,25,18.96z M25,21.54    c-0.436,0-0.79-0.354-0.79-0.79c0-0.102,0.021-0.207,0.059-0.301c0.127-0.293,0.421-0.489,0.731-0.489s0.604,0.196,0.726,0.476    c0.043,0.107,0.064,0.213,0.064,0.314C25.79,21.186,25.436,21.54,25,21.54z"></path></g></g></svg>