<svg height='100px' width='100px'  fill="#000000" xmlns="http://www.w3.org/2000/svg" xmlns:xlink="http://www.w3.org/1999/xlink" version="1.1" x="0px" y="0px" viewBox="0 0 262.333 189.289" style="enable-background:new 0 0 262.333 189.289;" xml:space="preserve"><g><path d="M193.999,136.058v11h2.334v38.666h11v-14h40.92c0.631,4.676,1.328,9.344,2.133,14h11.174   c-7.889-44.219-7.648-89.52,0.773-133.665c-3.602-0.688-7.203-1.374-10.805-2.062c-5.422,28.411-7.541,57.283-6.395,86.061H193.999   z M247.494,165.724h-40.16v-18.666h38.41C246.173,153.291,246.755,159.513,247.494,165.724z"></path><ellipse transform="matrix(0.9739 -0.2268 0.2268 0.9739 -0.3121 42.2802)" cx="183.834" cy="22.498" rx="22.495" ry="22.493"></ellipse><path d="M212.253,48.631c1.119,0,2.225,0.187,3.287,0.557c2.521,0.877,4.553,2.686,5.717,5.088c1.164,2.405,1.32,5.12,0.443,7.641   c-0.607,1.721-4.15,10.719-14.627,19.661c-1.264,1.084-2.674,2.196-4.232,3.309c1.197,7.124,2.123,14.648,2.141,21.978h-23.648   v2.591v2h-1.998h-6.752v77.014c0.246,0.015,0.49,0.032,0.738,0.032c0.842,0,1.695-0.086,2.551-0.263   c6.758-1.403,11.104-8.02,9.701-14.778l-8.629-41.596h41.31c0.654,0,1.291-0.066,1.918-0.162   c8.334-0.432,17.209-3.411,19.961-17.579c2.586-22.215,1.123-35.346-5.68-55.52c-5.037-14.643-17.412-19.279-25.949-17.15   c-7.596,1.893-11.4,11.537-10.123,20.652c3.068-3.578,4.285-6.424,4.463-6.864C204.22,51.32,208.013,48.631,212.253,48.631z"></path><polygon points="150.189,125.957 156.087,154.4 156.087,125.957  "></polygon><path d="M205.775,80.056c10.428-8.9,13.717-17.895,14.037-18.796c1.451-4.171-0.756-8.731-4.928-10.183   c-4.168-1.449-8.721,0.748-10.18,4.91l-0.002-0.001c-0.311,0.77-3.021,7.058-10.793,13.103   c-7.797,6.028-20.736,12.17-42.988,12.209c-4.42,0-8.002,3.582-8.002,8.001c0,3.436,2.17,6.357,5.211,7.49h13.981   C182.802,94.873,196.896,87.673,205.775,80.056z"></path><circle cx="69.425" cy="38.378" r="20.91"></circle><polygon points="71.334,109.455 80.084,109.455 80.084,189.289 92.586,189.289 92.586,123.957 158.085,123.957 158.085,189.289    170.585,189.289 170.585,109.455 179.335,109.455 179.335,98.789 71.334,98.789  "></polygon><path d="M55,185.724h11v-5.594c0.641,0.295,1.319,0.531,2.033,0.694c0.78,0.179,1.561,0.265,2.328,0.265   c2.984,0,5.785-1.298,7.725-3.462v-65.33l-23.426-0.27c0.158-6.205,1.188-12.586,2.439-18.57c-2.912-1.511-5.187-3.138-6.761-4.428   c-4.79-3.906-7.407-7.769-8.308-9.251c-2.555-4.349-1.117-9.876,3.162-12.387c1.381-0.812,2.955-1.24,4.549-1.24   c3.171,0,6.143,1.693,7.756,4.421l0.105,0.162c0.113,0.164,0.361,0.508,0.707,0.939c0.615,0.767,1.628,1.893,3.001,3.058   c0.559-6.839-2.702-13.573-8.966-14.896c-7.594-1.603-18.699,2.291-23.382,14.149c-6.335,16.34-7.812,26.936-5.791,44.799   c2.585,12.928,12.413,14.117,20.596,13.904c0.278-0.007,0.55-0.016,0.816-0.024l23.778,0.275l-0.716,3.121H17.199   c1.146-28.777-0.973-57.649-6.394-86.061C7.203,50.685,3.602,51.372,0,52.059c8.422,44.146,8.662,89.446,0.773,133.665h11.174   c0.805-4.656,1.502-9.324,2.133-14H55V185.724z M14.84,165.724c0.738-6.211,1.32-12.434,1.75-18.666H55v18.666H14.84z"></path><path d="M95.502,74.197l-10.151-10.2l-2.304,2.293l9.152,9.197c0.34-0.166,0.674-0.318,1.016-0.494   C93.936,74.622,94.709,74.363,95.502,74.197z"></path><path d="M107.03,90.39l2.304-2.293l-3.205-3.22c-0.246,1.148-0.714,2.243-1.383,3.218L107.03,90.39z"></path><path d="M131.668,94.998V91.56h-31.371c-2.747,1.36-5.47,2.512-8.16,3.438H131.668z"></path><path d="M56.754,72.927c-0.392-0.487-0.67-0.876-0.832-1.114c-0.07-0.108-0.119-0.183-0.147-0.224   c-1.962-3.321-6.243-4.429-9.57-2.475c-3.333,1.958-4.449,6.247-2.492,9.582c0.289,0.473,2.726,4.572,7.894,8.785   c5.115,4.19,13.233,8.463,23.948,8.464c0.024,0,0.046,0,0.069,0c7.334,0.004,15.695-1.97,24.915-6.726   c3.435-1.769,4.787-5.991,3.018-9.426c-1.77-3.438-5.99-4.788-9.428-3.02c-7.606,3.911-13.675,5.166-18.505,5.17   c-7.028-0.019-11.823-2.631-15.192-5.33C58.774,75.269,57.535,73.905,56.754,72.927z"></path></g></svg>