<svg height='100px' width='100px'  fill="#000000" xmlns="http://www.w3.org/2000/svg" data-name="Layer 1" viewBox="0 0 64 64" x="0px" y="0px"><path d="M58,48h-.59753A7.76485,7.76485,0,0,0,60,42.209V39.791A7.8,7.8,0,0,0,52.209,32h-.418A7.8,7.8,0,0,0,44,39.791v2.418A7.76485,7.76485,0,0,0,46.59753,48H46a5.00588,5.00588,0,0,0-5,5V63h2V53a3.00328,3.00328,0,0,1,3-3H58a3.00328,3.00328,0,0,1,3,3V63h2V53A5.00588,5.00588,0,0,0,58,48ZM51.791,34h.418a5.79505,5.79505,0,0,1,5.41517,3.757,6.92942,6.92942,0,0,1-3.23255-1.43323,1.004,1.004,0,0,0-1.04883-.19873,29.84841,29.84841,0,0,1-6.97088,1.64288A5.7951,5.7951,0,0,1,51.791,34Zm.418,14h-.418A5.79735,5.79735,0,0,1,46,42.209v-2.3916a34.34436,34.34436,0,0,0,7.52148-1.62256A10.27888,10.27888,0,0,0,58,39.84247V42.209A5.79735,5.79735,0,0,1,52.209,48Z"></path><circle cx="49" cy="42" r="1"></circle><circle cx="55" cy="42" r="1"></circle><circle cx="8" cy="42" r="1"></circle><circle cx="14" cy="42" r="1"></circle><path d="M3,53a3.00328,3.00328,0,0,1,3-3H17.87793l8.88184,2.20166a1.0003,1.0003,0,0,0,.54394-.01807L33,50.36816v2.97266l-6.084,2.60742-7.67383-1.91845A1.0003,1.0003,0,0,0,18,55v8h2V56.28076l6.75781,1.68945a1.001,1.001,0,0,0,.63574-.05126l7-3A.99907.99907,0,0,0,35,54V49a1.00031,1.00031,0,0,0-1.30371-.95264l-6.73047,2.145L18.24023,48.0293A.99265.99265,0,0,0,18,48H16.40247A7.76485,7.76485,0,0,0,19,42.209V39.791A7.8,7.8,0,0,0,11.209,32h-.418A7.8,7.8,0,0,0,3,39.791v2.418a7.76647,7.76647,0,0,0,2.63782,5.82764A4.991,4.991,0,0,0,1,53V63H3Zm7.791-19h.418a5.79393,5.79393,0,0,1,5.07111,3H5.71991A5.79393,5.79393,0,0,1,10.791,34ZM5,42.209V39.791A5.78876,5.78876,0,0,1,5.06055,39h11.8789A5.78876,5.78876,0,0,1,17,39.791v2.418A5.79735,5.79735,0,0,1,11.209,48h-.418A5.79735,5.79735,0,0,1,5,42.209Z"></path><path d="M35.2666,13.84619a1.00112,1.00112,0,0,0,1.06641,0c1.583-.998,5.2666-3.64062,5.2666-6.62207a3.08245,3.08245,0,0,0-2.46094-3.123,3.92751,3.92751,0,0,0-3.33887.76954,3.9259,3.9259,0,0,0-3.33789-.76954A3.082,3.082,0,0,0,30,7.22412C30,10.20557,33.68359,12.84814,35.2666,13.84619ZM32.92383,6.04688a1.78864,1.78864,0,0,1,.41113-.04639,1.73076,1.73076,0,0,1,1.57129.89648,1.00022,1.00022,0,0,0,1.78711,0,1.78017,1.78017,0,0,1,1.9834-.84961,1.11051,1.11051,0,0,1,.92285,1.17676c0,1.394-1.832,3.23584-3.79981,4.58008C33.832,10.46,32,8.61816,32,7.22412A1.111,1.111,0,0,1,32.92383,6.04688Z"></path><path d="M18,32H46a5.00588,5.00588,0,0,0,5-5V6a5.00588,5.00588,0,0,0-5-5H18a5.00588,5.00588,0,0,0-5,5V27A5.00588,5.00588,0,0,0,18,32ZM15,6a3.00328,3.00328,0,0,1,3-3H46a3.00328,3.00328,0,0,1,3,3V27a3.00328,3.00328,0,0,1-3,3H18a3.00328,3.00328,0,0,1-3-3Z"></path><path d="M44.56249,19.09961,30.14355,26.07227a2.34281,2.34281,0,0,1-1.13476.15332l-10.7666-2.688L17.75781,25.478,28.583,28.18066a1.05884,1.05884,0,0,0,.1084.021,4.27776,4.27776,0,0,0,.56933.03809,4.49011,4.49011,0,0,0,1.69141-.33936L45.39844,20.9165a2.67179,2.67179,0,0,0,1.31933-3.64257l-.19726-.39356a2.68717,2.68717,0,0,0-3.377-1.28711l-9.33593,3.6875a.68906.68906,0,0,1-.25293.04883H29.06055a.66954.66954,0,0,1-.376-.11426l2.36914-.79a2.68406,2.68406,0,0,0,1.74707-3.18115l-.05566-.22119a2.68013,2.68013,0,0,0-3.23926-1.94287l-11.748,2.937.48438,1.94043,11.748-2.937a.6698.6698,0,0,1,.81446.4873l.05566.22071a.67469.67469,0,0,1-.43945.79931L26.875,17.71a1.00067,1.00067,0,0,0-.57812,1.396l.374.748a2.658,2.658,0,0,0,2.38965,1.47559h4.49414a2.6736,2.6736,0,0,0,.98828-.189l9.33887-3.689a.67436.67436,0,0,1,.84961.32373l.19726.39356a.669.669,0,0,1,.03125.5288A.69488.69488,0,0,1,44.56249,19.09961Z"></path></svg>