<svg xmlns="http://www.w3.org/2000/svg" xmlns:xlink="http://www.w3.org/1999/xlink" version="1.1" x="0px" y="0px" viewBox="0 0 512 512" style="enable-background:new 0 0 512 512;" xml:space="preserve"><path d="M421.4,359.3c4.2-4.2,6.4-9.7,6.3-15.6c-0.1-5.9-2.6-11.4-7-15.3c-8.5-7.7-21.6-7.3-29.8,1L372.1,348  c-0.4,0.4-1,0.5-1.3,0.5c-0.3,0-0.9-0.1-1.3-0.5l-11.3-11.3l-48-65.8c-6.1-8.4-17.5-10.6-26-5c-4.4,2.9-7.3,7.3-8.3,12.5  c-0.9,4.7,0.1,9.6,2.7,13.7l-15.6-15.6c-3.6-3.6-8.4-5.6-13.6-5.6c-5.1,0-9.9,2.1-13.5,5.8c-7.1,7.4-6.9,19.5,0.6,26.9l2.6,2.6  c-3.3-1.8-7.1-2.5-11-2.1c-5.1,0.5-9.7,3.1-12.9,7.1c-6.4,8.1-5,20.1,3.2,26.8l14.7,12.1c-3.9-1.5-8.1-1.7-12.1-0.5  c-5,1.5-9.1,4.9-11.5,9.5c-4.7,9-1.3,20.2,7.7,25.4l58.5,33.8l53.4,53.4c-4.9,5.7-4.7,14.3,0.7,19.8l15.7,15.7  c1.2,1.2,2.7,1.8,4.2,1.8s3.1-0.6,4.2-1.8c2.3-2.3,2.3-6.1,0-8.5l-15.7-15.7c-1-1-1-2.6,0-3.6l3.5-3.5c0,0,0,0,0,0l61.8-61.8  c0,0,0,0,0,0s0,0,0,0l6.5-6.5c0.6-0.6,1.4-0.7,1.8-0.7s1.1,0.1,1.8,0.7l35,35c1.2,1.2,2.7,1.8,4.2,1.8s3.1-0.6,4.2-1.8  c2.3-2.3,2.3-6.1,0-8.5l-35-35c-2.7-2.7-6.4-4.3-10.3-4.3s-7.5,1.5-10.3,4.3l-2.2,2.2l-2.5-2.5c-2-2-3.1-4.7-3.1-7.6  c0-2.9,1.1-5.5,3.1-7.6L421.4,359.3z M388.4,407.5l2.5,2.5l-53.3,53.3l-53.9-53.9c-0.4-0.4-0.8-0.7-1.2-1l-59.2-34.2  c-3.4-1.9-4.7-6.2-3.1-9.5c0.9-1.7,2.4-3,4.3-3.5c1.9-0.5,3.8-0.3,5.5,0.7l37,21.4c3.2,1.8,7.2,1.3,9.8-1.3c1.6-1.6,2.5-3.8,2.4-6.1  s-1.2-4.4-2.9-5.9l-50-41.2c-3.1-2.6-3.7-7.1-1.4-10c1.2-1.5,2.9-2.4,4.8-2.6c1.9-0.2,3.7,0.4,5.2,1.6l52.4,43.1  c3.3,2.7,8.2,2.5,11.2-0.5c1.6-1.6,2.4-3.7,2.4-5.9s-0.9-4.3-2.4-5.9L245,295.2c-2.9-2.9-3-7.4-0.4-10.1c1.3-1.4,3.1-2.1,5-2.1  c0,0,0,0,0.1,0c1.9,0,3.6,0.7,5,2.1l54,54c3,3,7.9,3,11,0c2.7-2.7,3-6.9,0.8-10.1L289,286c-1.1-1.6-1.6-3.5-1.2-5.4  c0.3-1.9,1.4-3.5,3.1-4.6c3.1-2,7.4-1.1,9.7,2l48.3,66.2c0.2,0.3,0.4,0.5,0.6,0.7l11.6,11.6c5.4,5.4,14.2,5.4,19.6,0l18.7-18.7  c3.7-3.7,9.6-4,13.3-0.6c1.9,1.8,3,4.2,3.1,6.8c0.1,2.6-0.9,5-2.8,6.9l-24.6,24.6c-4.3,4.3-6.7,10-6.7,16.1  C381.7,397.5,384.1,403.2,388.4,407.5z"></path><path d="M486.3,477.9c1.5,0,3.1-0.6,4.2-1.8c2.3-2.3,2.3-6.1,0-8.5l-5.6-5.6c-2.3-2.3-6.1-2.3-8.5,0c-2.3,2.3-2.3,6.1,0,8.5l5.6,5.6  C483.2,477.3,484.7,477.9,486.3,477.9z"></path><path d="M139.3,54.5C139.3,54.5,139.3,54.5,139.3,54.5C139.3,54.5,139.3,54.5,139.3,54.5l-61.8,61.8l-21.4,21.4  c-0.6,0.6-1.4,0.7-1.8,0.7c-0.4,0-1.1-0.1-1.8-0.7L30,115.1c-2.3-2.3-6.1-2.3-8.5,0c-2.3,2.3-2.3,6.1,0,8.5l22.6,22.6  c2.7,2.7,6.4,4.3,10.3,4.3c3.9,0,7.5-1.5,10.3-4.3L81.8,129l58.3,58.3l33.8,58.5c3.6,6.3,10.1,9.8,16.8,9.8c2.9,0,5.8-0.7,8.6-2.1  c4.7-2.4,8.1-6.5,9.5-11.5c1.2-4,1-8.3-0.5-12.1l12.1,14.7c6.7,8.1,18.7,9.5,26.8,3.2c4-3.2,6.6-7.8,7.1-12.9  c0.4-3.9-0.3-7.6-2.1-11l2.6,2.6c7.4,7.4,19.5,7.7,26.9,0.6c3.7-3.6,5.8-8.4,5.8-13.5c0-5.1-1.9-10-5.6-13.6l-15.6-15.6  c4,2.6,8.9,3.6,13.7,2.7c5.2-0.9,9.6-3.9,12.5-8.3c5.6-8.5,3.4-19.9-5-26l-65.8-48l-11.3-11.3c-0.7-0.7-0.7-1.9,0-2.6l18.7-18.7  c8.3-8.3,8.7-21.4,1-29.8c-4-4.4-9.4-6.9-15.3-7c-5.8-0.1-11.5,2.1-15.6,6.3l-24.6,24.6c-2,2-4.7,3.1-7.6,3.1  c-2.9,0-5.5-1.1-7.6-3.1l-7.5-7.5c4.3-5.7,3.8-13.8-1.4-19L115.7,4.8c-2.3-2.3-6.1-2.3-8.5,0c-2.3,2.3-2.3,6.1,0,8.5l34.9,34.9  c1,1,1,2.6,0,3.6L139.3,54.5z M143.6,67.2l7.4,7.4c4.3,4.3,10,6.7,16.1,6.7c6.1,0,11.8-2.4,16.1-6.7L207.7,50  c1.8-1.8,4.3-2.8,6.9-2.8c2.6,0.1,5,1.2,6.8,3.1c3.3,3.7,3,9.6-0.6,13.3l-18.7,18.7c-5.4,5.4-5.4,14.2,0,19.6l11.6,11.6  c0.2,0.2,0.5,0.4,0.7,0.6l66.2,48.3c3.1,2.3,4.1,6.7,2,9.7c-1.1,1.6-2.7,2.7-4.6,3.1c-1.9,0.3-3.8-0.1-5.4-1.2l-43-31.3  c-3.1-2.3-7.3-1.9-10.1,0.8c-1.5,1.5-2.3,3.4-2.3,5.5c0,2.1,0.8,4,2.3,5.5l54,54c1.3,1.3,2.1,3.1,2.1,5c0,1.9-0.8,3.7-2.1,5  c-2.7,2.6-7.3,2.5-10.1-0.4l-53.3-53.3c-1.6-1.6-3.7-2.4-5.9-2.4c-2.2,0-4.3,0.9-5.9,2.4c-3.1,3.1-3.3,7.9-0.5,11.2l43.2,52.4  c1.2,1.5,1.8,3.3,1.6,5.2c-0.2,1.9-1.1,3.6-2.6,4.8c-3,2.4-7.5,1.7-10-1.4l-41.2-50c-1.4-1.8-3.6-2.8-5.9-2.9  c-2.3-0.1-4.5,0.7-6.1,2.4c-2.6,2.6-3.1,6.6-1.3,9.8l21.4,37c1,1.7,1.2,3.6,0.7,5.5c-0.5,1.9-1.8,3.4-3.5,4.3  c-3.3,1.7-7.5,0.3-9.5-3.1L150,180.6c-0.3-0.5-0.6-0.9-1-1.2l-58.8-58.8L143.6,67.2z"></path></svg>