<svg height='100px' width='100px'  fill="#000000" xmlns:x="http://ns.adobe.com/Extensibility/1.0/" xmlns:i="http://ns.adobe.com/AdobeIllustrator/10.0/" xmlns:graph="http://ns.adobe.com/Graphs/1.0/" xmlns="http://www.w3.org/2000/svg" xmlns:xlink="http://www.w3.org/1999/xlink" version="1.1" x="0px" y="0px" viewBox="0 0 100 100" style="enable-background:new 0 0 100 100;" xml:space="preserve"><g><g i:extraneous="self"><g><path d="M5273.1,2400.1v-2c0-2.8-5-4-9.7-4s-9.7,1.3-9.7,4v2c0,1.8,0.7,3.6,2,4.9l5,4.9c0.3,0.3,0.4,0.6,0.4,1v6.4     c0,0.4,0.2,0.7,0.6,0.8l2.9,0.9c0.5,0.1,1-0.2,1-0.8v-7.2c0-0.4,0.2-0.7,0.4-1l5.1-5C5272.4,2403.7,5273.1,2401.9,5273.1,2400.1z      M5263.4,2400c-4.8,0-7.4-1.3-7.5-1.8v0c0.1-0.5,2.7-1.8,7.5-1.8c4.8,0,7.3,1.3,7.5,1.8C5270.7,2398.7,5268.2,2400,5263.4,2400z"></path><path d="M5268.4,2410.3c-0.6,0-1,0.4-1,1c0,0.6,0.4,1,1,1h4.3c0.6,0,1-0.4,1-1c0-0.6-0.4-1-1-1H5268.4z"></path><path d="M5272.7,2413.7h-4.3c-0.6,0-1,0.4-1,1c0,0.6,0.4,1,1,1h4.3c0.6,0,1-0.4,1-1C5273.7,2414.1,5273.3,2413.7,5272.7,2413.7z"></path><path d="M5272.7,2417h-4.3c-0.6,0-1,0.4-1,1c0,0.6,0.4,1,1,1h4.3c0.6,0,1-0.4,1-1C5273.7,2417.5,5273.3,2417,5272.7,2417z"></path></g><g><path d="M86.4,54.3h-27c-1.3,0-2.4-1.1-2.4-2.4v-27c0-1.4-1.2-2.5-2.5-2.4c-8.6,0.7-16.1,4.7-21.4,10.8     c7.3,4.2,12.3,12,12.3,21.1c0,8.9-4.8,16.8-12.1,20.9c5.8,6.6,14.2,10.9,23.4,11c17,0.2,30.9-12.8,32.2-29.4     C89,55.4,87.8,54.3,86.4,54.3z"></path><path d="M68.2,13.8c-1.4-0.1-2.5,1.1-2.5,2.4l0,27c0,1.3,1.1,2.4,2.4,2.4l27,0c1.4,0,2.5-1.2,2.4-2.5     C96.3,27.5,83.8,15,68.2,13.8z"></path><path d="M39.7,54.3c0-10.3-8.3-18.6-18.6-18.6c-10.3,0-18.6,8.3-18.6,18.6s8.3,18.6,18.6,18.6C31.3,72.9,39.7,64.6,39.7,54.3z      M21.8,50.8c0.2,0,0.4,0.2,0.4,0.4v1.7c0,0.2-0.2,0.4-0.4,0.4H16c-0.1,0.4-0.1,0.7-0.1,1.1c0,0.3,0,0.7,0.1,1.1h5.8     c0.2,0,0.4,0.2,0.4,0.4v1.7c0,0.2-0.2,0.4-0.4,0.4h-5.1c1,2,2.9,3.3,4.9,3.3c1.3,0,2.6-0.6,3.7-1.6c0.1-0.1,0.4-0.2,0.5,0     l1.9,1.7c0.1,0.1,0.1,0.2,0.1,0.3c0,0.1,0,0.2-0.1,0.3c-1.7,1.7-3.8,2.6-6.1,2.6c-3.7,0-7.1-2.6-8.4-6.6h-2.1     c-0.2,0-0.4-0.2-0.4-0.4v-1.7c0-0.2,0.2-0.4,0.4-0.4h1.6c0-0.4-0.1-0.7-0.1-1.1c0-0.3,0-0.7,0.1-1.1h-1.6c-0.2,0-0.4-0.2-0.4-0.4     v-1.7c0-0.2,0.2-0.4,0.4-0.4h2.1c1.3-3.9,4.7-6.6,8.4-6.6c2.2,0,4.4,0.9,6.1,2.6c0.1,0.1,0.1,0.2,0.1,0.3c0,0.1,0,0.2-0.1,0.3     l-1.9,1.7c-0.2,0.1-0.4,0.1-0.5,0c-1-1-2.3-1.6-3.7-1.6c-2,0-3.8,1.3-4.9,3.3H21.8z"></path></g></g></g></svg>