<svg height='100px' width='100px'  fill="#000000" xmlns="http://www.w3.org/2000/svg" xmlns:xlink="http://www.w3.org/1999/xlink" version="1.1" x="0px" y="0px" viewBox="-273 365 64 64" style="enable-background:new -273 365 64 64;" xml:space="preserve"><path d="M-232,375v-2h-2.1c-0.5-3.4-3.4-6-6.9-6s-6.4,2.6-6.9,6h-2.1v2h-15v52h48v-52H-232z M-232,385v-4h9v40h-36v-40h9v4H-232z   M-241,369c2.5,0,4.4,1.7,4.9,4h-9.8C-245.4,370.7-243.5,369-241,369z M-248,375h14v8h-14V375z M-219,425h-44v-48h13v2h-11v44h40  v-44h-11v-2h13V425z"></path><path d="M-253,407v11h24v-11c0-2.8-2.2-5-5-5h-14C-250.8,402-253,404.2-253,407z M-251,407c0-1.7,1.3-3,3-3h14c1.7,0,3,1.3,3,3v9  h-20V407z"></path><path d="M-241,400c3.3,0,6-2.7,6-6s-2.7-6-6-6s-6,2.7-6,6S-244.3,400-241,400z M-241,390c2.2,0,4,1.8,4,4s-1.8,4-4,4s-4-1.8-4-4  S-243.2,390-241,390z"></path></svg>