<svg height='100px' width='100px'  fill="#000000" xmlns="http://www.w3.org/2000/svg" xmlns:xlink="http://www.w3.org/1999/xlink" version="1.1" x="0px" y="0px" viewBox="0 0 168.292 211" enable-background="new 0 0 168.292 211" xml:space="preserve"><path d="M159.444,35.349c0-0.009-0.003-0.018-0.003-0.027c-0.004-0.018-0.007-0.036-0.011-0.054  c-0.019-0.358-0.151-0.712-0.425-0.986l-27.5-27.5c-0.479-0.478-1.188-0.545-1.756-0.243H10.324c-0.829,0-1.5,0.671-1.5,1.5v195.104  c0,0.828,0.671,1.5,1.5,1.5h147.644c0.828,0,1.5-0.672,1.5-1.5V35.594C159.468,35.51,159.457,35.429,159.444,35.349z   M131.958,11.477l22.617,22.617h-22.617V11.477z M156.468,201.645H11.824V9.539h117.134v26.056c0,0.829,0.672,1.5,1.5,1.5h26.01  V201.645z"></path><rect x="36.189" y="177.645" width="95.915" height="3"></rect><rect x="36.189" y="157.643" width="95.915" height="3"></rect><rect x="36.189" y="137.641" width="95.915" height="3"></rect><rect x="36.189" y="117.639" width="95.915" height="3"></rect><path d="M84.146,40.964c-12.646,0-22.935,10.288-22.935,22.935S71.5,86.833,84.146,86.833s22.936-10.288,22.936-22.935  S96.792,40.964,84.146,40.964z M84.146,84.193c-11.19,0-20.295-9.104-20.295-20.295c0-11.191,9.104-20.295,20.295-20.295  s20.295,9.104,20.295,20.295C104.441,75.089,95.336,84.193,84.146,84.193z"></path><path d="M89.852,69.279h-2.64l0.001,0.407c0.007,1.437-0.014,2.343-0.498,2.828c-0.507,0.51-1.724,0.779-3.517,0.779v-0.005  c-2.839,0-4.014,0-4.014-4.015H79.18l0.001-1.617h4.396v-2.641h-4.396l0.002-2.199h4.395v-2.641h-4.395l0.001-1.65l0,0  c0-2.769,0.046-3.918,4.014-3.918v-0.005c2.809,0.001,3.972,0.021,3.972,4.016h2.641c0-6.655-3.847-6.655-6.655-6.655v0.006  c-6.61,0.017-6.611,3.852-6.611,6.654l0,0v1.553h-3.049v2.641h3.048v2.199h-3.049v2.641h3.048v1.664h0.004  c0.019,6.604,3.85,6.608,6.651,6.608v0.004c2.619,0,4.331-0.494,5.39-1.557c1.281-1.288,1.274-3.023,1.267-4.702L89.852,69.279z"></path></svg>