<svg xmlns="http://www.w3.org/2000/svg" xmlns:xlink="http://www.w3.org/1999/xlink" version="1.1" x="0px" y="0px" viewBox="0 0 64 64" style="enable-background:new 0 0 64 64;" xml:space="preserve"><path d="M57,43c0-2.757-2.243-5-5-5h-1v-3c0-0.552-0.447-1-1-1h-6v-1v-2.833V30h-0.008c-0.056-2.068-1.129-3.886-2.742-4.964  C42.902,23.967,44,22.111,44,20c0-3.309-2.691-6-6-6s-6,2.691-6,6c0,2.042,1.027,3.847,2.59,4.931  c-1.637,1.018-2.773,2.78-2.909,4.825l-0.465,6.966l-2.408-3.31C28.62,33.153,28.32,33,28,33h-5v-1c0-0.552-0.447-1-1-1h-8v-7v-2  c0-2.086-1.071-3.924-2.69-5c1.62-1.076,2.69-2.914,2.69-5c0-3.309-2.691-6-6-6s-6,2.691-6,6c0,2.086,1.071,3.924,2.69,5  C3.071,18.076,2,19.914,2,22v35c0,2.757,2.243,5,5,5h2h4c0.553,0,1-0.448,1-1V37h8c0.553,0,1-0.448,1-1v-1h4.491l3.517,4.836  l-0.006,0.097l0.081,0.005l2.32,3.19C30.198,44.797,28,48.144,28,52c0,5.514,4.486,10,10,10s10-4.486,10-10  c0-2.253-0.758-4.326-2.019-6H50v9c0,2.757,2.243,5,5,5h7v-2h-5V43z M4,12c0-2.206,1.794-4,4-4s4,1.794,4,4s-1.794,4-4,4  S4,14.206,4,12z M21,35H11c-0.552,0-1-0.449-1-1V24H8v10c0,1.654,1.346,3,3,3h1v23h-2V39H8v21H7c-1.654,0-3-1.346-3-3V22  c0-2.206,1.794-4,4-4s4,1.794,4,4v2v8c0,0.552,0.447,1,1,1h8V35z M38,16c2.206,0,4,1.794,4,4s-1.794,4-4,4s-4-1.794-4-4  S35.794,16,38,16z M38,60c-4.411,0-8-3.589-8-8c0-3.459,2.211-6.404,5.291-7.518c0.662-0.239,1.338-0.386,2.013-0.447  c0.025-0.002,0.05-0.002,0.075-0.004c0.284-0.023,0.567-0.027,0.849-0.02c0.089,0.003,0.178,0.008,0.267,0.013  c0.232,0.014,0.463,0.039,0.692,0.073c0.085,0.013,0.171,0.024,0.256,0.039c0.288,0.053,0.573,0.118,0.853,0.202  c0.015,0.004,0.03,0.007,0.045,0.012c0.299,0.092,0.592,0.205,0.88,0.332c0.066,0.029,0.13,0.063,0.195,0.094  c0.217,0.103,0.431,0.216,0.639,0.339c0.076,0.045,0.152,0.09,0.227,0.138c0.221,0.141,0.437,0.293,0.645,0.457  C44.794,47.176,46,49.448,46,52C46,56.411,42.411,60,38,60z M52,55V45c0-0.552-0.447-1-1-1h-7.006  c-0.055-0.041-0.115-0.073-0.171-0.113c-0.2-0.144-0.406-0.279-0.616-0.408c-0.084-0.051-0.167-0.105-0.253-0.154  c-1.258-0.721-2.685-1.174-4.208-1.287c-0.015-0.001-0.029-0.001-0.044-0.002C38.469,42.019,38.237,42,38,42  c-0.112,0-0.22,0.013-0.331,0.017c-0.062,0.002-0.125,0.006-0.187,0.01c-0.311,0.016-0.618,0.046-0.922,0.09  c-0.067,0.01-0.133,0.02-0.2,0.031c-0.33,0.055-0.653,0.125-0.971,0.211c-0.021,0.006-0.043,0.008-0.064,0.014l-2.273-3.125  l0.624-9.358C33.821,27.708,35.647,26,37.834,26C40.131,26,42,27.869,42,30.167V33v2c0,0.552,0.447,1,1,1h6v2h-2h-6  c-0.552,0-1-0.449-1-1v-5h-2v5c0,1.654,1.346,3,3,3h6h3h2c1.654,0,3,1.346,3,3v15C53.346,58,52,56.654,52,55z"></path></svg>