<svg height='100px' width='100px'  fill="#000000" xmlns="http://www.w3.org/2000/svg" data-name="Layer 1" viewBox="0 0 512 512" x="0px" y="0px"><title>Artboard 72</title><path d="M52,373.712a6,6,0,0,0-6,6V477a5.846,5.846,0,0,0,5.815,6h408.37A5.846,5.846,0,0,0,466,477V379.712a6,6,0,0,0-12,0V471H346.6a139.669,139.669,0,0,0,49.69-107.13c0-77.358-62.936-140.294-140.294-140.294S115.706,286.512,115.706,363.87A139.669,139.669,0,0,0,165.4,471H58V379.712A6,6,0,0,0,52,373.712ZM185.322,366a79.887,79.887,0,0,1,.518-9h-9.878a6,6,0,0,1,0-12h12.084c9.429-36,42.281-62.859,81.256-62.859a83.191,83.191,0,0,1,50.335,16.641,6.017,6.017,0,0,1-7.2,9.644A72.032,72.032,0,0,0,200.521,345h95.168a6,6,0,1,1,0,12H197.934a66.482,66.482,0,0,0,0,18h82a6,6,0,0,1,0,12H200.521a72.1,72.1,0,0,0,111.918,36.617,5.983,5.983,0,1,1,7.2,9.558A83.238,83.238,0,0,1,269.3,449.866c-38.975,0-71.827-26.866-81.256-62.866H175.962a6,6,0,0,1,0-12h9.878A79.887,79.887,0,0,1,185.322,366Z"></path><path d="M256,29a6,6,0,0,0-6,6V174.8l-34.37-31.923a6,6,0,1,0-8.166,8.793l44.453,41.288a6,6,0,0,0,8.166,0l44.453-41.288a6,6,0,1,0-8.166-8.793L262,174.8V35A6,6,0,0,0,256,29Z"></path></svg>