<svg height='100px' width='100px'  fill="#000000" xmlns="http://www.w3.org/2000/svg" viewBox="0 0 512 512" x="0px" y="0px"><path d="M472,24H40A24.028,24.028,0,0,0,16,48V464a24.028,24.028,0,0,0,24,24H472a24.028,24.028,0,0,0,24-24V48A24.028,24.028,0,0,0,472,24ZM40,40H472a8.009,8.009,0,0,1,8,8V88H32V48A8.009,8.009,0,0,1,40,40ZM472,472H40a8.009,8.009,0,0,1-8-8V104H480V464A8.009,8.009,0,0,1,472,472Z"></path><circle cx="120" cy="64" r="8"></circle><circle cx="88" cy="64" r="8"></circle><circle cx="56" cy="64" r="8"></circle><path d="M72,152h80a8,8,0,0,0,0-16H72a8,8,0,0,0,0,16Z"></path><path d="M440,136H280a8,8,0,0,0-8,8v32a8,8,0,0,0,8,8H440a8,8,0,0,0,8-8V144A8,8,0,0,0,440,136Zm-8,32H288V152H432Z"></path><path d="M440,200H280a8,8,0,0,0-8,8v32a8,8,0,0,0,8,8H440a8,8,0,0,0,8-8V208A8,8,0,0,0,440,200Zm-8,32H288V216H432Z"></path><path d="M440,264H280a8,8,0,0,0-8,8v96a8,8,0,0,0,8,8H440a8,8,0,0,0,8-8V272A8,8,0,0,0,440,264Zm-8,96H288V280H432Z"></path><path d="M376,392H344a24,24,0,0,0,0,48h32a24,24,0,0,0,0-48Zm0,32H344a8,8,0,0,1,0-16h32a8,8,0,0,1,0,16Z"></path><path d="M104,168a8,8,0,0,0,0,16h16a8,8,0,0,0,0-16Z"></path><path d="M232,168H152a8,8,0,0,0,0,16h80a8,8,0,0,0,0-16Z"></path><path d="M72,216h80a8,8,0,0,0,0-16H72a8,8,0,0,0,0,16Z"></path><path d="M232,200H184a8,8,0,0,0,0,16h48a8,8,0,0,0,0-16Z"></path><path d="M200,232H104a8,8,0,0,0,0,16h96a8,8,0,0,0,0-16Z"></path><circle cx="72" cy="240" r="8"></circle><path d="M200,264H104a8,8,0,0,0,0,16h96a8,8,0,0,0,0-16Z"></path><circle cx="72" cy="272" r="8"></circle><path d="M200,296H104a8,8,0,0,0,0,16h96a8,8,0,0,0,0-16Z"></path><circle cx="72" cy="304" r="8"></circle></svg>