<svg xmlns="http://www.w3.org/2000/svg" data-name="Layer 1" viewBox="0 0 100 100" x="0px" y="0px"><title>Artboard 32</title><path d="M69.08,20.06h0A19.76,19.76,0,0,0,49.41,1h-.12A19.68,19.68,0,0,0,31.7,12.15,7.92,7.92,0,1,0,46,19a3.79,3.79,0,0,1,3.35-2.16,4,4,0,0,1,3.94,3.71,3.82,3.82,0,0,1-2.56,3.73A13.32,13.32,0,0,0,41.5,36.84v5.62a7.92,7.92,0,1,0,15.83,0V38.68A19.71,19.71,0,0,0,69.08,20.06ZM54.14,34.56l-.1,0a3.33,3.33,0,0,0-.47.23A2.5,2.5,0,0,0,52.34,37v5.49a2.92,2.92,0,1,1-5.83,0V36.87A8.32,8.32,0,0,1,52.27,29a8.88,8.88,0,0,0,6-8.7,9,9,0,0,0-8.91-8.49,8.82,8.82,0,0,0-7.88,5,2.92,2.92,0,1,1-5.25-2.54A14.65,14.65,0,0,1,49.29,6h.1a14.67,14.67,0,0,1,4.75,28.56Z"></path><path d="M49.42,53.53a7.94,7.94,0,1,0,7.94,7.94A7.95,7.95,0,0,0,49.42,53.53Zm0,10.88a2.94,2.94,0,1,1,2.95-2.94A2.95,2.95,0,0,1,49.41,64.41Z"></path><path d="M11.81,41.8V71.09A11.94,11.94,0,0,0,23.74,83H50.85L66.12,98.27a2.5,2.5,0,0,0,4.27-1.77V83h5.88A11.94,11.94,0,0,0,88.19,71.09V41.8A11.94,11.94,0,0,0,76.26,29.87H74.65a2.5,2.5,0,1,0,0,5h1.62a6.94,6.94,0,0,1,6.93,6.93V71.09A6.94,6.94,0,0,1,76.26,78H67.89a2.5,2.5,0,0,0-2.5,2.5v10L53.65,78.75A2.5,2.5,0,0,0,51.88,78H23.74a6.94,6.94,0,0,1-6.93-6.93V41.8a6.94,6.94,0,0,1,6.93-6.93H34.19a2.5,2.5,0,0,0,0-5H23.74A11.94,11.94,0,0,0,11.81,41.8Z"></path></svg>