<svg height='100px' width='100px'  fill="#000000" xmlns="http://www.w3.org/2000/svg" xmlns:xlink="http://www.w3.org/1999/xlink" version="1.1" x="0px" y="0px" viewBox="0 0 64 64" enable-background="new 0 0 64 64" xml:space="preserve"><g><rect x="25.98" y="41.75" fill="none" width="12.039" height="13.82"></rect><path fill="none" d="M31.347,15.833c0.418-0.206,0.907-0.206,1.327,0l22.417,11.058l1.869-2.909l-6.003-2.958l-6.62-3.26   c-0.001,0-0.002-0.001-0.003-0.002L32,11.691L7.04,23.982l1.869,2.909L31.347,15.833z"></path><path fill="none" d="M14.32,27.568V55.57h8.66V40.25c0-0.829,0.672-1.5,1.5-1.5H39.52c0.828,0,1.5,0.671,1.5,1.5v15.32h8.66V27.566   l-17.67-8.715L14.32,27.568z"></path><polygon fill="none" points="50.12,8.429 46.5,8.429 46.5,15.485 50.12,17.268  "></polygon><path d="M7.108,29.639c0.411,0.642,1.239,0.873,1.924,0.535l2.288-1.127V57.07c0,0.829,0.672,1.5,1.5,1.5h11.66H39.52h11.66   c0.828,0,1.5-0.671,1.5-1.5V29.045l2.288,1.128c0.212,0.104,0.438,0.154,0.661,0.154c0.496,0,0.979-0.247,1.263-0.689l3.5-5.449   c0.231-0.359,0.298-0.8,0.184-1.212c-0.114-0.412-0.399-0.755-0.782-0.944l-6.673-3.288V6.929c0-0.829-0.672-1.5-1.5-1.5H45   c-0.828,0-1.5,0.671-1.5,1.5v7.08L32.682,8.683c-0.16-0.079-0.333-0.126-0.509-0.142c-0.291-0.039-0.586,0.009-0.855,0.142   L4.207,22.033c-0.383,0.189-0.668,0.532-0.782,0.944c-0.114,0.412-0.048,0.853,0.184,1.212L7.108,29.639z M38.02,55.57H25.98V41.75   H38.02V55.57z M49.68,55.57h-8.66V40.25c0-0.829-0.672-1.5-1.5-1.5H24.48c-0.828,0-1.5,0.671-1.5,1.5v15.32h-8.66V27.568   l17.689-8.717l17.67,8.715V55.57z M46.5,8.429h3.62v8.839l-3.62-1.783V8.429z M32,11.691l12.334,6.072   c0.001,0.001,0.002,0.001,0.003,0.002l6.62,3.26l6.003,2.958l-1.869,2.909L32.674,15.833c-0.42-0.206-0.909-0.206-1.327,0   L8.909,26.891L7.04,23.982L32,11.691z"></path></g></svg>