<svg xmlns="http://www.w3.org/2000/svg" data-name="Layer 38" viewBox="0 0 100 100" x="0px" y="0px"><path d="M91.36,5.81a4.86,4.86,0,0,0-3.74,1.75l-.19-.2a5.29,5.29,0,0,0-8,.59c-.06-.06-.11-.12-.17-.17a5.54,5.54,0,0,0-8.41.66l-.08-.1a5.19,5.19,0,0,0-8.8,3H41.59l-4.87-5a1,1,0,0,0-.28-.22,15.32,15.32,0,0,0-7.56-2H11.11A4.88,4.88,0,0,0,8,12.84l-.2.19a5.29,5.29,0,0,0,.59,8l-.17.17a5.55,5.55,0,0,0,.66,8.4l-.09.09a5.18,5.18,0,0,0,3.09,8.8V58.84l-5,4.86a1.37,1.37,0,0,0-.21.28,15.38,15.38,0,0,0-2,7.56V89.31a4.89,4.89,0,0,0,8.64,3.13,1.8,1.8,0,0,0,.19.2,5.29,5.29,0,0,0,8-.59l.16.17a5.54,5.54,0,0,0,8.41-.66l.09.1a5.18,5.18,0,0,0,8.79-3h20.4l4.86,5a1.18,1.18,0,0,0,.28.22,15.35,15.35,0,0,0,7.56,2H89.82A4.88,4.88,0,0,0,93,87.16l.2-.19a5.29,5.29,0,0,0-.59-8l.17-.16a5.56,5.56,0,0,0-.66-8.41l.09-.09a5.18,5.18,0,0,0-3.08-8.8V41.16l5-4.86a1.42,1.42,0,0,0,.22-.28,15.48,15.48,0,0,0,2-7.56V10.69a4.88,4.88,0,0,0-4.89-4.88ZM9.76,33.35a2.68,2.68,0,0,1,.78-1.9,2.72,2.72,0,0,1,1.91-.79,1.25,1.25,0,0,0,0-2.5h-.32a3.05,3.05,0,1,1,0-6.1,1.25,1.25,0,0,0,0-2.5h-.61a2.79,2.79,0,0,1,0-5.58,1.25,1.25,0,0,0,0-2.5h-.41a2.39,2.39,0,0,1,0-4.77H28.88a12.87,12.87,0,0,1,6.18,1.57l5.11,5.23a1.24,1.24,0,0,0,.89.37H61.9v16.9H40.56a1.27,1.27,0,0,0-1.16.77l-3.22,7.81a5.48,5.48,0,0,1-2.42,2.13V37.28A1.25,1.25,0,0,0,32.51,36H12.45A2.7,2.7,0,0,1,9.76,33.35ZM59.89,38l.17.08L67.18,41V55.86a8,8,0,0,0-4.62,3.58.8.8,0,0,0-.08.16l-2.94,7.12H44.63A8,8,0,0,0,41,62.05L40.88,62,33.76,59V44.14a8,8,0,0,0,4.62-3.58l.08-.16,2.94-7.12H56.31A7.94,7.94,0,0,0,59.89,38ZM37.77,66.68a1.25,1.25,0,0,0-1.25,1.25V88a2.7,2.7,0,0,1-4.59,1.92A2.73,2.73,0,0,1,31.14,88a1.25,1.25,0,0,0-2.5,0v.33a3.05,3.05,0,1,1-6.1,0,1.25,1.25,0,0,0-2.5,0v.61a2.8,2.8,0,0,1-5.59,0,1.25,1.25,0,0,0-2.5,0v.4a2.39,2.39,0,0,1-4.77,0V71.54a12.94,12.94,0,0,1,1.58-6.18L14,60.26a1.27,1.27,0,0,0,.38-.9V38.53H18v5.59a1.25,1.25,0,1,0,2.5,0V38.53H31.26V59.87A1.24,1.24,0,0,0,32,61l7.8,3.22A5.49,5.49,0,0,1,42,66.68Zm53.4,0a2.66,2.66,0,0,1-2.69,2.69,1.25,1.25,0,1,0,0,2.5h.33a3,3,0,0,1,3,3,3,3,0,0,1-3,3,1.25,1.25,0,0,0,0,2.5h.61a2.79,2.79,0,0,1,2,4.76,2.75,2.75,0,0,1-2,.82,1.25,1.25,0,0,0,0,2.5h.4a2.39,2.39,0,0,1,0,4.77H72.05a12.9,12.9,0,0,1-6.18-1.57l-5.1-5.23a1.26,1.26,0,0,0-.9-.37H39V69.22H60.38a1.26,1.26,0,0,0,1.15-.77l3.22-7.81a5.53,5.53,0,0,1,2.44-2.13v4.2A1.24,1.24,0,0,0,68.44,64h20A2.69,2.69,0,0,1,91.17,66.65Zm2.58-38.19a12.93,12.93,0,0,1-1.57,6.18L87,39.74a1.26,1.26,0,0,0-.37.9V61.46h-4V56a1.25,1.25,0,1,0-2.5,0v5.5H69.69V56.85s0,0,0-.07V40.13A1.25,1.25,0,0,0,68.9,39l-7.8-3.22A5.47,5.47,0,0,1,59,33.32h4.2a1.25,1.25,0,0,0,1.25-1.25V12a2.69,2.69,0,0,1,2.69-2.69A2.66,2.66,0,0,1,69.8,12a1.25,1.25,0,1,0,2.5,0V11.7a3.05,3.05,0,1,1,6.1,0,1.25,1.25,0,1,0,2.5,0v-.61a2.79,2.79,0,0,1,4.76-2,2.73,2.73,0,0,1,.82,2,1.25,1.25,0,1,0,2.5,0v-.4A2.38,2.38,0,0,1,93.05,9a2.35,2.35,0,0,1,.7,1.68Z"></path><path d="M19.27,47.38A1.24,1.24,0,0,0,18,48.62v3.54a1.25,1.25,0,0,0,2.5,0V48.62A1.24,1.24,0,0,0,19.27,47.38Z"></path><path d="M81.36,45.5a1.25,1.25,0,0,0-1.25,1.25V51a1.25,1.25,0,1,0,2.5,0V46.75A1.25,1.25,0,0,0,81.36,45.5Z"></path></svg>