<svg xmlns="http://www.w3.org/2000/svg" data-name="Layer 38" viewBox="0 0 100 100" x="0px" y="0px"><path d="M18,32.67A8.64,8.64,0,1,0,26.66,24,8.65,8.65,0,0,0,18,32.67Zm14.78,0a6.14,6.14,0,1,1-6.14-6.14A6.14,6.14,0,0,1,32.8,32.67Z"></path><path d="M15.17,60.29a16.36,16.36,0,0,0,.13,1.9s0,.07,0,.1c.84,6.06,5.22,11,12.64,14.4.57.27,1.16.51,1.76.75l.51.19c.45.17.91.34,1.38.5.15.06.32.1.47.15.51.17,1,.33,1.54.48l.38.11,1.38.37h0l.37.08c1.48.35,2.86.63,4.24.84q1.18.19,2.4.33l.75.07c.56.06,1.12.12,1.68.16,1.64.12,3.3.19,5,.19A62.5,62.5,0,0,0,60,80.1c1.39-.22,2.77-.5,4.11-.83l.07,0a44.44,44.44,0,0,0,6.66-2.2l1.14-.5h0A28.33,28.33,0,0,0,77.84,73,16.6,16.6,0,0,0,84.3,62.48h0s0-.07,0-.1a.28.28,0,0,1,0-.09h0a15.31,15.31,0,0,0,.14-2l11.72-37.3a1.26,1.26,0,0,0-.58-1.47l-4-2.23a1.29,1.29,0,0,0-1-.1,1.25,1.25,0,0,0-.74.63L77.8,43.49H68.08L56,19.77a1.24,1.24,0,0,0-1.71-.53l-3.64,2a1.26,1.26,0,0,0-.6,1.46l3.54,11.7a10.21,10.21,0,0,0-7.3,0l3.61-11.51a1.25,1.25,0,0,0-.58-1.47l-4-2.23a1.29,1.29,0,0,0-1-.1,1.25,1.25,0,0,0-.74.63L31.53,43.49H21.81l-12-23.73a1.24,1.24,0,0,0-1.71-.53l-3.65,2a1.25,1.25,0,0,0-.6,1.46ZM69.58,74.88l-.66.27-1,.37-.69.25-1.08.34c-.23.07-.45.15-.69.21-.45.14-.92.26-1.39.38l-.42.11-4,.82a62.25,62.25,0,0,1-19.22.08l-4.06-.81h0c-.36-.08-.71-.18-1.06-.27l-.88-.24-.8-.24-1-.31-.71-.24c-.32-.12-.64-.23-1-.36L30.34,75,30,74.84l3.5-12a7.65,7.65,0,0,1,7.29-5.44H59.22c.34,0,.68,0,1,.06a7.63,7.63,0,0,1,6.31,5.38L70,74.71ZM39.85,55l1.57-5a10.36,10.36,0,0,0,17,.25L59.83,55c-.22,0-.42,0-.61,0H40.78C40.47,54.94,40.16,55,39.85,55ZM52.76,23l1.62-.89L66.2,45.3a1.25,1.25,0,0,0,1.11.69H78.57a1.25,1.25,0,0,0,1.11-.69L91.5,22.06l2,1.11L82,59.65A2,2,0,0,0,82,60l-.14,2a.13.13,0,0,1,0,.06c-.86,5.76-5.42,9.41-9.57,11.58L68.91,62.17a10.12,10.12,0,0,0-6.29-6.61L60,46.9a10.51,10.51,0,0,0,.39-2.76,10.36,10.36,0,0,0-3.6-7.84ZM50,36.25a7.89,7.89,0,1,1-7.89,7.89A7.9,7.9,0,0,1,50,36.25ZM8.12,22.05,19.93,45.3A1.25,1.25,0,0,0,21,46H32.3a1.25,1.25,0,0,0,1.11-.69L45.23,22.05l2,1.11L43.06,36.43a10.36,10.36,0,0,0-3.45,7.71,10.23,10.23,0,0,0,.29,2.36L37,55.68a10.19,10.19,0,0,0-5.92,6.5l-3.4,11.61c-4.33-2.21-9.1-5.94-9.9-11.9,0,0,0,0,0,0L17.66,60a2.56,2.56,0,0,0-.05-.27L6.49,22.94Z"></path><path d="M64.29,32.67A8.64,8.64,0,1,0,72.93,24,8.66,8.66,0,0,0,64.29,32.67Zm14.78,0a6.14,6.14,0,1,1-6.14-6.14A6.15,6.15,0,0,1,79.07,32.67Z"></path></svg>