<svg xmlns="http://www.w3.org/2000/svg" width="256.84" height="81.871" xml:space="preserve"><g fill="#09347b"><path d="M7.004 68.987c-.165.362-.39.672-.675.929a3.118 3.118 0 0 1-1.002.602 3.48 3.48 0 0 1-1.221.213h-.533a3.48 3.48 0 0 1-1.221-.213 3.118 3.118 0 0 1-1.002-.602 2.744 2.744 0 0 1-.674-.929 2.851 2.851 0 0 1-.246-1.19v-.041a2.816 2.816 0 0 1 .856-2.056 2.262 2.262 0 0 1-.798-.819 2.253 2.253 0 0 1-.299-1.144c0-.377.081-.727.24-1.049.16-.325.379-.588.657-.789a3.237 3.237 0 0 1-.794-1.055A3.11 3.11 0 0 1 0 59.497v-.804a3.143 3.143 0 0 1 .919-2.225 3.141 3.141 0 0 1 2.225-.918h.531c.522 0 1.005.117 1.448.35.44.234.808.548 1.1.945l.7-1.086h.428v3.737c0 .432-.082.839-.244 1.222a3.162 3.162 0 0 1-1.678 1.676 3.06 3.06 0 0 1-1.22.245H2.351c-.146 0-.285.03-.418.089-.132.06-.25.137-.35.234a.962.962 0 0 0-.234.351 1.075 1.075 0 0 0-.084.423c0 .146.027.285.084.417a1.075 1.075 0 0 0 .584.585c.133.056.271.084.418.084h1.754c.432 0 .838.071 1.221.213.383.145.717.344 1.002.602a2.787 2.787 0 0 1 .919 2.119v.041a2.85 2.85 0 0 1-.243 1.19zM6.078 58.62c0-.258-.048-.499-.146-.726a1.85 1.85 0 0 0-.402-.59 1.93 1.93 0 0 0-.594-.396 1.811 1.811 0 0 0-.726-.146H3.145a1.86 1.86 0 0 0-1.316.542 1.866 1.866 0 0 0-.542 1.316v.95a1.865 1.865 0 0 0 .542 1.316c.167.167.362.3.59.396a1.8 1.8 0 0 0 .726.146H4.21c.257 0 .499-.049.726-.146a1.93 1.93 0 0 0 .594-.396c.17-.167.305-.363.402-.591.098-.225.146-.467.146-.725zm-.051 9.073c0-.258-.049-.49-.146-.695a1.491 1.491 0 0 0-.396-.516 1.79 1.79 0 0 0-.589-.324 2.278 2.278 0 0 0-.727-.115H3.51c-.257 0-.499.039-.724.115a1.792 1.792 0 0 0-.592.324 1.491 1.491 0 0 0-.396.516 1.61 1.61 0 0 0-.146.695v.166c0 .258.049.488.146.689.098.202.229.373.396.516.167.144.364.254.592.33.225.076.467.115.724.115h.659c.258 0 .499-.039.727-.115.225-.076.422-.187.589-.33a1.536 1.536 0 0 0 .542-1.205zM18.347 66.45h-.429l-.782-1.2a3.707 3.707 0 0 1-1.189 1.029c-.467.252-.986.38-1.558.38h-.781a3.64 3.64 0 0 1-1.437-.288 3.666 3.666 0 0 1-1.963-1.957 3.571 3.571 0 0 1-.287-1.43v-8.039c0-.508.095-.985.287-1.431a3.688 3.688 0 0 1 3.4-2.245h1.064c.509 0 .983.097 1.43.288a3.702 3.702 0 0 1 1.958 1.957c.19.445.287.923.287 1.431v.605l-1.348.209v-.814c0-.334-.062-.646-.188-.936a2.42 2.42 0 0 0-1.268-1.268 2.331 2.331 0 0 0-.935-.188h-.939a2.31 2.31 0 0 0-.935.188 2.45 2.45 0 0 0-1.28 1.268 2.34 2.34 0 0 0-.188.936v8.039c0 .334.062.646.188.936.126.288.297.542.518.76a2.383 2.383 0 0 0 1.697.706h.939c.334 0 .646-.062.935-.188.288-.125.541-.297.757-.518.216-.218.386-.472.511-.76.125-.289.188-.602.188-.936v-3.122h-2.39v-1.284h3.737v7.872zM32.421 66.45v-7.83c0-.258-.049-.499-.146-.726a1.883 1.883 0 0 0-.396-.59 1.866 1.866 0 0 0-1.316-.542h-.638c-.258 0-.499.049-.725.146a1.922 1.922 0 0 0-.596.396 1.785 1.785 0 0 0-.401.59 1.808 1.808 0 0 0-.146.726v7.83h-1.273v-7.83a1.825 1.825 0 0 0-.547-1.316 1.964 1.964 0 0 0-.596-.396 1.816 1.816 0 0 0-.727-.146h-.636a1.856 1.856 0 0 0-1.712 1.132 1.808 1.808 0 0 0-.146.726v7.83h-1.285V55.76h.429l.698 1.086a3.209 3.209 0 0 1 1.103-.945c.44-.232.923-.35 1.445-.35h.104c.605 0 1.153.149 1.641.449.486.299.863.695 1.127 1.189.133-.243.295-.467.49-.668.194-.201.41-.373.646-.516a3.187 3.187 0 0 1 1.64-.455h.104c.432 0 .837.082 1.22.246a3.134 3.134 0 0 1 1.922 2.897v7.757zM43.17 64.738a3.132 3.132 0 0 1-1.678 1.675 3.078 3.078 0 0 1-1.22.246h-.856a3.143 3.143 0 0 1-2.226-.919 3.125 3.125 0 0 1-.672-1.002 3.053 3.053 0 0 1-.246-1.222V51.478h1.285v5.179a3.068 3.068 0 0 1 2.39-1.106h.325a3.145 3.145 0 0 1 2.223.918 3.103 3.103 0 0 1 .918 2.225v4.823c0 .431-.081.838-.243 1.221zm-1.039-6.118c0-.258-.049-.499-.146-.726a1.883 1.883 0 0 0-.396-.59 1.866 1.866 0 0 0-1.316-.542h-.856a1.856 1.856 0 0 0-1.712 1.132 1.808 1.808 0 0 0-.146.726v4.97c0 .258.049.5.146.727.098.226.229.422.396.589.167.167.361.3.589.396.226.098.469.146.727.146h.856a1.866 1.866 0 0 0 1.316-.542 1.862 1.862 0 0 0 .542-1.316zM53.489 66.45v-6.839h-5.732v6.839h-1.346V51.478h1.346v6.85h5.732v-6.85h1.346V66.45z"/></g><g fill="#09347b"><path d="M2.87 45.712V.655h5.828v45.057zM35.68 45.712l-11.984-21.48h-.132v21.48h-5.696V2.621c2.095-1.572 5.565-2.62 9.692-2.62 9.036 0 13.228 5.239 13.228 13.753 0 6.353-4.977 11.33-10.413 11.788v.131l11.789 20.04H35.68zM27.428 3.931c-1.768 0-2.947.327-3.929.786v18.271c.458.131.785.196 1.375.196 4.846 0 10.281-2.096 10.281-9.299 0-6.418-2.161-9.954-7.727-9.954zM51.387 30.191c.394 7.597 3.471 11.657 8.578 11.657 3.603 0 6.157-1.179 7.466-2.161l1.377 4.06c-1.835 1.441-5.174 2.62-9.234 2.62-7.99 0-13.492-5.829-13.492-18.402 0-11.723 4.979-18.206 12.183-18.206 7.465 0 11.787 6.091 11.524 18.206zm6.745-16.175c-3.93 0-6.941 4.519-6.941 12.508l13.032-1.703c-.131-7.269-2.161-10.805-6.091-10.805zM84.457 46.367c-4.256 0-7.138-.982-9.233-2.62l1.571-4.65c1.245 1.048 3.537 2.227 6.877 2.227 3.798 0 6.613-2.488 6.613-6.483 0-4.191-2.095-6.615-6.941-10.478-4.977-3.995-7.662-7.793-7.662-12.771C75.682 4.519 80.529 0 86.685 0c3.601 0 6.418 1.114 7.989 2.62l-1.245 4.06c-1.178-.982-3.208-2.096-6.154-2.096-3.537 0-5.895 2.358-5.895 6.353 0 3.929 1.833 6.156 6.614 9.955 5.042 3.995 8.316 7.662 8.316 13.229.001 7.335-4.78 12.246-11.853 12.246zM124.863 45.712l-3.405-13.163h-12.573l-3.472 13.163h-5.305L113.076.655h4.91l12.771 45.057zm-8.12-32.024c-.721-2.882-1.441-6.287-1.441-6.287h-.066s-.654 3.144-1.439 6.287l-3.863 14.8h10.543z"/></g><path fill="none" stroke="#09347b" stroke-width=".75" stroke-miterlimit="10" d="m132.914 81.794 16.013-76.331"/><g fill="#bfe10e"><path d="M151.655 66.951h-3.01l5.131-32.422h3.01zM165.402 46.655c1.322-1.29 2.956-2.106 4.676-2.106 3.913 0 3.686 3.611 3.209 6.622l-2.497 15.78h-2.795l2.449-15.479c.416-2.623.563-4.645-1.759-4.645-3.182 0-3.862 3.483-4.229 5.806l-2.267 14.318h-2.795l3.491-22.059h2.795zM189.089 49.407h-.086c-.634-1.161-1.753-2.235-3.302-2.235-1.677 0-2.956 1.29-3.214 2.924-.334 2.106 1.268 3.396 2.8 4.858 1.567 1.505 3.072 3.14 2.616 6.021-.559 3.525-3.365 6.32-7.021 6.32-1.376 0-2.822-.645-3.761-1.505l.518-3.268c.897 1.118 1.896 2.149 3.572 2.149 1.935 0 3.463-1.505 3.756-3.354.347-2.193-1.185-3.655-2.739-5.246-1.518-1.548-3.052-3.268-2.636-5.891.523-3.312 3.084-5.633 6.395-5.633 1.419 0 2.664.559 3.646 1.419zM203.758 47.472h-3.655l-3.083 19.479h-2.795l3.083-19.479h-2.365l.408-2.58h2.365l.953-6.02h2.795l-.953 6.02h3.655zM208.113 66.951h-2.795l3.491-22.059h2.795zm2.817-26.488c-1.161 0-1.957-.946-1.773-2.107.177-1.118 1.272-2.063 2.434-2.063 1.118 0 1.914.945 1.737 2.063-.184 1.161-1.28 2.107-2.398 2.107zM225.902 47.472h-3.655l-3.083 19.479h-2.795l3.083-19.479h-2.365l.408-2.58h2.365l.953-6.02h2.795l-.953 6.02h3.655zM233.577 44.892l-2.191 13.846c-.476 3.01-.767 5.934 1.985 5.934 2.838 0 3.43-2.924 3.949-5.934l2.191-13.846h2.795l-2.566 16.211c-.585 3.697-2.785 6.191-6.741 6.191-3.913 0-5.374-2.451-4.782-6.191l2.565-16.211zM256.432 47.472h-3.655l-3.083 19.479h-2.795l3.083-19.479h-2.365l.408-2.58h2.365l.953-6.02h2.795l-.953 6.02h3.655z"/></g></svg>