<svg height='100px' width='100px'  fill="#000000" xmlns="http://www.w3.org/2000/svg" xmlns:xlink="http://www.w3.org/1999/xlink" xml:space="preserve" version="1.1" style="shape-rendering:geometricPrecision;text-rendering:geometricPrecision;image-rendering:optimizeQuality;" viewBox="0 0 847 847" x="0px" y="0px" fill-rule="evenodd" clip-rule="evenodd"><defs><style type="text/css">
   
    .fil0 {fill:#000000}
   
  </style></defs><g><path class="fil0" d="M755 175l-6 301c-3,191 -175,279 -326,348 -151,-69 -322,-157 -326,-348l-5 -301c153,-18 223,-39 331,-152 109,114 180,134 332,152zm-332 -91c-82,82 -174,114 -288,129l5 263c2,160 155,244 283,301 128,-57 281,-141 284,-301l5 -263c-114,-15 -206,-47 -289,-129z"></path></g></svg>