<svg height='100px' width='100px'  fill="#000000" xmlns:x="http://ns.adobe.com/Extensibility/1.0/" xmlns:i="http://ns.adobe.com/AdobeIllustrator/10.0/" xmlns:graph="http://ns.adobe.com/Graphs/1.0/" xmlns="http://www.w3.org/2000/svg" xmlns:xlink="http://www.w3.org/1999/xlink" version="1.1" x="0px" y="0px" viewBox="0 0 100 100" style="enable-background:new 0 0 100 100;" xml:space="preserve"><g><g i:extraneous="self"><g><path d="M5273.1,2400.1v-2c0-2.8-5-4-9.7-4s-9.7,1.3-9.7,4v2c0,1.8,0.7,3.6,2,4.9l5,4.9c0.3,0.3,0.4,0.6,0.4,1v6.4     c0,0.4,0.2,0.7,0.6,0.8l2.9,0.9c0.5,0.1,1-0.2,1-0.8v-7.2c0-0.4,0.2-0.7,0.4-1l5.1-5C5272.4,2403.7,5273.1,2401.9,5273.1,2400.1z      M5263.4,2400c-4.8,0-7.4-1.3-7.5-1.8v0c0.1-0.5,2.7-1.8,7.5-1.8c4.8,0,7.3,1.3,7.5,1.8C5270.7,2398.7,5268.2,2400,5263.4,2400z"></path><path d="M5268.4,2410.3c-0.6,0-1,0.4-1,1c0,0.6,0.4,1,1,1h4.3c0.6,0,1-0.4,1-1c0-0.6-0.4-1-1-1H5268.4z"></path><path d="M5272.7,2413.7h-4.3c-0.6,0-1,0.4-1,1c0,0.6,0.4,1,1,1h4.3c0.6,0,1-0.4,1-1C5273.7,2414.1,5273.3,2413.7,5272.7,2413.7z"></path><path d="M5272.7,2417h-4.3c-0.6,0-1,0.4-1,1c0,0.6,0.4,1,1,1h4.3c0.6,0,1-0.4,1-1C5273.7,2417.5,5273.3,2417,5272.7,2417z"></path></g><g><path d="M84.2,2.5H36.9c-3.3,0-5.9,2.7-5.9,5.9v25H15.5c-3.1,0-5.6,2.5-5.6,5.6v52.8c0,3.1,2.5,5.6,5.6,5.6h34.8     c3.1,0,5.6-2.5,5.6-5.6v-15h28.3c3.3,0,5.9-2.7,5.9-5.9V8.4C90.2,5.2,87.5,2.5,84.2,2.5z M52.2,91.9c0,1-0.8,1.9-1.9,1.9H15.5     c-1,0-1.9-0.8-1.9-1.9V39.1c0-1,0.8-1.9,1.9-1.9h34.8c1,0,1.9,0.8,1.9,1.9V91.9z M86.4,71c0,1.2-1,2.2-2.2,2.2H55.9v-9.6h19.5     c1.1,0,1.9-0.8,1.9-1.9c0-1-0.8-1.9-1.9-1.9H55.9V53h19.5c1.1,0,1.9-0.8,1.9-1.9c0-1-0.8-1.9-1.9-1.9H55.9v-6.8h19.5     c1.1,0,1.9-0.8,1.9-1.9c0-1-0.8-1.9-1.9-1.9H55.9c-0.2-2.9-2.6-5.2-5.6-5.2H34.7v-25c0-1.2,1-2.2,2.2-2.2h47.3     c1.2,0,2.2,1,2.2,2.2V71z"></path><path d="M52.5,22.3h-3c-0.6,0-1.1,0.5-1.1,1.1v5.1c0,0.6,0.5,1.1,1.1,1.1h3c0.6,0,1.1-0.5,1.1-1.1v-5.1     C53.6,22.8,53.1,22.3,52.5,22.3z"></path><path d="M61.5,18.2h-3c-0.6,0-1.1,0.5-1.1,1.1v9.2c0,0.6,0.5,1.1,1.1,1.1h3c0.6,0,1.1-0.5,1.1-1.1v-9.2     C62.6,18.7,62.1,18.2,61.5,18.2z"></path><path d="M70.4,14.2h-3c-0.6,0-1.1,0.5-1.1,1.1v13.2c0,0.6,0.5,1.1,1.1,1.1h3c0.6,0,1.1-0.5,1.1-1.1V15.2     C71.5,14.7,71,14.2,70.4,14.2z"></path><path d="M46.1,41.4H19.6c-1,0-1.9,0.8-1.9,1.9v12.6c0,1,0.8,1.9,1.9,1.9h26.5c1,0,1.9-0.8,1.9-1.9V43.3     C48,42.2,47.1,41.4,46.1,41.4z M44.2,54H21.5v-8.8h22.7V54z"></path><circle cx="32.9" cy="65" r="3.4"></circle><circle cx="21.9" cy="65" r="3.4"></circle><circle cx="43.8" cy="65" r="3.4"></circle><circle cx="32.9" cy="75.6" r="3.4"></circle><circle cx="21.9" cy="75.6" r="3.4"></circle><circle cx="43.8" cy="75.6" r="3.4"></circle><circle cx="32.9" cy="86.2" r="3.4"></circle><circle cx="21.9" cy="86.2" r="3.4"></circle><circle cx="43.8" cy="86.2" r="3.4"></circle></g></g></g></svg>