<svg height='100px' width='100px'  fill="#000000" xmlns="http://www.w3.org/2000/svg" xmlns:xlink="http://www.w3.org/1999/xlink" version="1.1" x="0px" y="0px" viewBox="0 0 100 100" style="enable-background:new 0 0 100 100;" xml:space="preserve"><g><path d="M82.131,12.662h-7.476c-1.104,0-2,0.896-2,2v4.688l-10.809-9.326c-0.751-0.648-1.862-0.647-2.613,0L29.139,35.993   c-0.836,0.722-0.929,1.984-0.207,2.821c0.723,0.835,1.984,0.929,2.821,0.207l2.689-2.32v20.82c0,1.104,0.896,2,2,2s2-0.896,2-2   V33.248L60.54,14.179l22.107,19.075V60.52c0,1.104,0.896,2,2,2s2-0.896,2-2V36.705l2.684,2.315   c0.378,0.326,0.843,0.486,1.306,0.486c0.562,0,1.12-0.235,1.515-0.693c0.722-0.836,0.629-2.099-0.208-2.821l-7.813-6.742V14.662   C84.131,13.557,83.235,12.662,82.131,12.662z M76.655,16.662h3.476v9.136l-3.476-2.999V16.662z"></path><path d="M60.542,64.266c11.216,0,20.341-9.125,20.341-20.341c0-4.435-1.402-8.65-4.056-12.19c-0.662-0.884-1.917-1.065-2.8-0.4   c-0.884,0.662-1.063,1.916-0.4,2.8c2.13,2.842,3.256,6.228,3.256,9.791c0,9.011-7.331,16.341-16.341,16.341   c-4.007,0-7.862-1.465-10.853-4.125c-0.826-0.733-2.09-0.661-2.824,0.166c-0.734,0.826-0.66,2.09,0.166,2.824   C50.756,62.442,55.554,64.266,60.542,64.266z"></path><path d="M73.03,30.344c0.656-0.889,0.467-2.141-0.422-2.797c-3.514-2.593-7.687-3.964-12.066-3.964   c-11.216,0-20.341,9.125-20.341,20.341c0,3.771,1.041,7.456,3.01,10.653c0.378,0.614,1.034,0.952,1.705,0.952   c0.357,0,0.72-0.096,1.046-0.297c0.941-0.579,1.234-1.811,0.655-2.751c-1.581-2.567-2.416-5.526-2.416-8.557   c0-9.011,7.331-16.341,16.341-16.341c3.519,0,6.87,1.101,9.691,3.183C71.122,31.421,72.374,31.233,73.03,30.344z"></path><path d="M9.707,88.562h17.127c2.595,0,4.707-2.111,4.707-4.707v-0.026l16.39,5.428c2.447,0.811,4.969,1.213,7.484,1.213   c3.502,0,6.992-0.781,10.241-2.331l25.632-12.537c1.589-0.777,2.78-2.127,3.353-3.8c0.574-1.673,0.461-3.47-0.317-5.059   c-1.604-3.273-5.573-4.635-8.847-3.038L70.833,70.85c-0.722-2.991-3.414-5.222-6.623-5.222H53.967l-3.62-1.931   c-3.435-1.832-7.308-2.8-11.2-2.8h-7.606v-0.115c0-2.595-2.111-4.707-4.707-4.707H9.707C7.111,56.076,5,58.187,5,60.782v23.073   C5,86.451,7.111,88.562,9.707,88.562z M9,60.782c0-0.39,0.317-0.707,0.707-0.707h17.127c0.39,0,0.707,0.317,0.707,0.707V72.75   c0,1.104,0.896,2,2,2s2-0.896,2-2v-7.853h7.606c3.238,0,6.46,0.806,9.317,2.329l4.065,2.168c0.023,0.012,0.048,0.016,0.072,0.028   c0.089,0.043,0.183,0.077,0.279,0.107c0.052,0.016,0.103,0.037,0.156,0.048c0.095,0.021,0.193,0.029,0.293,0.036   c0.047,0.003,0.093,0.017,0.14,0.017c0.007,0,0.014-0.003,0.022-0.003H64.21c1.555,0,2.82,1.265,2.82,2.828   c0,1.555-1.265,2.82-2.82,2.82H49.209c-1.104,0-2,0.896-2,2s0.896,2,2,2H64.21c2.635,0,4.92-1.504,6.056-3.699l16.965-8.276   c1.294-0.632,2.866-0.094,3.501,1.203c0.308,0.629,0.353,1.339,0.125,2.002c-0.227,0.662-0.698,1.196-1.327,1.504L63.917,84.537   c-4.628,2.208-9.859,2.536-14.728,0.923l-17.648-5.844v-1.449c0-1.104-0.896-2-2-2s-2,0.896-2,2v5.688   c0,0.39-0.317,0.707-0.707,0.707H9.707C9.317,84.562,9,84.245,9,83.855V60.782z"></path><path d="M47.759,46.848c0,1.104,0.896,2,2,2h2.715c1.354,4.857,4.669,8.214,8.647,8.214c2.854,0,5.497-1.76,7.25-4.828   c0.548-0.959,0.215-2.181-0.744-2.729c-0.959-0.549-2.18-0.215-2.729,0.744c-1.021,1.788-2.398,2.813-3.777,2.813   c-1.792,0-3.442-1.718-4.412-4.214h3.103c1.104,0,2-0.896,2-2s-0.896-2-2-2h-3.968c-0.02-0.305-0.03-0.613-0.03-0.923   c0-0.311,0.011-0.619,0.03-0.924h3.968c1.104,0,2-0.896,2-2s-0.896-2-2-2h-3.103c0.97-2.496,2.62-4.214,4.412-4.214   c1.379,0,2.755,1.028,3.774,2.82c0.546,0.96,1.768,1.295,2.728,0.75c0.96-0.546,1.296-1.767,0.75-2.728   c-1.75-3.078-4.394-4.843-7.252-4.843c-3.978,0-7.292,3.357-8.647,8.214h-2.715c-1.104,0-2,0.896-2,2s0.896,2,2,2h2.087   c-0.014,0.306-0.032,0.611-0.032,0.924c0,0.312,0.018,0.617,0.032,0.923h-2.087C48.655,44.848,47.759,45.744,47.759,46.848z"></path></g></svg>