<svg height='100px' width='100px'  fill="#000000" xmlns="http://www.w3.org/2000/svg" viewBox="0 0 64 64" x="0px" y="0px"><g data-name="43 Money Envelope"><path d="M60.13,24.42l-4.98-2.76,1.23-3.12a3.007,3.007,0,0,0-1.69-3.89L40.56,9.074c.134-2.076-.883-4.5-3.32-4.284L19.29,6.1a3.015,3.015,0,0,0-2.78,3.21l.57,7.8L3.62,24.55A3.032,3.032,0,0,0,2,27.22V56a3.043,3.043,0,0,0,3,3H59a3.018,3.018,0,0,0,3-3V27.22A2.852,2.852,0,0,0,60.13,24.42Zm-.79,1.85-8.2,5.555,3.271-8.286Zm-5.39-9.76a1.012,1.012,0,0,1,.57,1.3L48.21,33.8l-2.945,2c1.881-4.771,5.595-14.195,5.595-14.232a.98.98,0,0,0-.6-1.14,2.038,2.038,0,0,1-1.13-2.6,1,1,0,0,0-.56-1.29L41.13,13.6a1.012,1.012,0,0,0-1.3.56,1.822,1.822,0,0,1-2.6,1.13.984.984,0,0,0-1.29.56L26.513,39.755l-.87.632-1.211-.823L35.91,10.47a1.007,1.007,0,0,1,1.3-.56ZM48.64,21.8,42.326,37.792l-3.857,2.627c-2.649-2.145-5.682-3.982-9.091-2.475L37.48,17.4a4.015,4.015,0,0,0,3.72-1.62l5.82,2.3A4.035,4.035,0,0,0,48.64,21.8Zm-15.8-9L24.36,34.32,22.93,14.73a4.005,4.005,0,0,0,2.65-3.07s6.25-.44,6.26-.43A3.738,3.738,0,0,0,32.84,12.8ZM19.43,8.09c.1,0,17.941-1.308,18.03-1.3.8-.016,1.075.8,1.04,1.471-2.179-1.1-4.171.032-4.78,2.317-.117-.657-.311-1.53-1.19-1.428l-7.96.58a1,1,0,0,0-.93,1.07,2.009,2.009,0,0,1-1.85,2.14,1,1,0,0,0-.92,1.07L22.6,38.3l-2.033-1.4L18.51,9.17A1.014,1.014,0,0,1,19.43,8.09ZM17.24,19.31c0,.255,1.2,15.876,1.211,16.126L4.95,26.12ZM4.023,56.111c-.067-.049,0-28.142-.023-28.221L23.911,41.646ZM6.2,57,29.08,40.36a4.991,4.991,0,0,1,5.858-.016L58.112,57ZM60,55.894,40.193,41.658,60,28.24ZM42.525,31.163l.665.284c.514.155.108,1.119-.37.867l-.665-.284a2.659,2.659,0,0,1-2.9,1.574.833.833,0,1,1,.294-1.636,1.381,1.381,0,0,0,1.556-.989c.673-1.454-.879-2.025-1.541-.542C37.872,33.513,34.4,32,35.115,29.026l-.529-.226c-.5-.154-.036-1.114.385-.86l.5.214a2.556,2.556,0,0,1,2.534-1.507c.976.125.872,1.667-.129,1.56a1.224,1.224,0,0,0-1.314.829c-.623,1.336.83,1.771,1.4.576C39.374,26.33,43.686,27.731,42.525,31.163Z"></path></g></svg>