<svg height='100px' width='100px'  fill="#000000" xmlns="http://www.w3.org/2000/svg" xmlns:xlink="http://www.w3.org/1999/xlink" version="1.1" x="0px" y="0px" viewBox="0 0 100 100" style="enable-background:new 0 0 100 100;" xml:space="preserve"><path d="M65.9594727,35.0405273v-9.0810547C65.9594727,17.1591797,58.800293,10,50,10s-15.9594727,7.1591797-15.9594727,15.9594727  v9.0810547C34.0405273,43.8408203,41.199707,51,50,51S65.9594727,43.8408203,65.9594727,35.0405273z M36.0405273,35.0405273  v-9.0810547C36.0405273,18.262207,42.3027344,12,50,12s13.9594727,6.262207,13.9594727,13.9594727v9.0810547  C63.9594727,42.737793,57.6972656,49,50,49S36.0405273,42.737793,36.0405273,35.0405273z"></path><path d="M69.2363281,56.8632812H30.7636719C22.0717773,56.8632812,15,63.9350586,15,72.6269531V89c0,0.5522461,0.4477539,1,1,1h68  c0.5522461,0,1-0.4477539,1-1V72.6269531C85,63.9350586,77.9282227,56.8632812,69.2363281,56.8632812z M83,88H70.5v-8.3793945  c0-0.5522461-0.4477539-1-1-1s-1,0.4477539-1,1V88h-37v-8.3793945c0-0.5522461-0.4477539-1-1-1s-1,0.4477539-1,1V88H17V72.6269531  c0-7.5893555,6.1743164-13.7636719,13.7636719-13.7636719h38.4726562C76.8256836,58.8632812,83,65.0375977,83,72.6269531V88z"></path></svg>