<svg height='100px' width='100px'  fill="#000000" xmlns="http://www.w3.org/2000/svg" xmlns:xlink="http://www.w3.org/1999/xlink" version="1.1" x="0px" y="0px" viewBox="0 0 32 32" enable-background="new 0 0 32 32" xml:space="preserve"><g><g><path d="M29.146,15.646c-0.723-0.723-1.984-0.723-2.707,0l-1.709,1.709l-10.861-0.78c-0.794-0.057-1.595,0.218-2.186,0.751    l-9.225,8.302C2.354,25.724,2.293,25.858,2.293,26v4c0,0.276,0.224,0.5,0.5,0.5h5c0.148,0,0.289-0.065,0.384-0.18l4.851-5.82    h9.766c0.133,0,0.26-0.053,0.354-0.146l6-6C29.892,17.607,29.892,16.393,29.146,15.646z M28.439,17.646L22.586,23.5h-9.793    c-0.148,0-0.289,0.065-0.384,0.18L7.559,29.5H3.293v-3.277l9.06-8.153c0.392-0.354,0.927-0.543,1.445-0.496l9.997,0.717    l-1.209,1.21h-7.793c-0.276,0-0.5,0.224-0.5,0.5s0.224,0.5,0.5,0.5h8c0.133,0,0.26-0.053,0.354-0.146l4-4    c0.346-0.346,0.947-0.346,1.293,0C28.795,16.71,28.795,17.29,28.439,17.646z"></path><path d="M21.041,16.477c4.136,0,7.5-3.364,7.5-7.5s-3.364-7.5-7.5-7.5s-7.5,3.364-7.5,7.5S16.905,16.477,21.041,16.477z     M21.041,2.477c3.584,0,6.5,2.916,6.5,6.5s-2.916,6.5-6.5,6.5s-6.5-2.916-6.5-6.5S17.457,2.477,21.041,2.477z"></path><path d="M16.554,9.613c-0.096,0.088-0.144,0.2-0.144,0.336c0,0.128,0.048,0.236,0.144,0.324c0.096,0.088,0.212,0.132,0.348,0.132    l0.784,0.005c0.035,0.115,0.055,0.24,0.098,0.349c0.212,0.532,0.502,0.986,0.87,1.362c0.368,0.376,0.794,0.664,1.278,0.864    c0.484,0.2,0.998,0.3,1.542,0.3c0.256,0,0.508-0.028,0.756-0.084c0.248-0.056,0.486-0.134,0.714-0.234    c0.228-0.1,0.43-0.21,0.606-0.33c0.128-0.064,0.206-0.166,0.234-0.306c0.028-0.14-0.01-0.274-0.114-0.402    c-0.072-0.096-0.167-0.152-0.282-0.168c-0.116-0.016-0.23,0.004-0.342,0.06c-0.224,0.168-0.468,0.296-0.732,0.384    c-0.264,0.088-0.544,0.132-0.84,0.132c-0.56,0-1.072-0.134-1.536-0.402c-0.464-0.268-0.833-0.656-1.104-1.164    c-0.058-0.108-0.085-0.238-0.13-0.354l2.038,0.013c0.136,0,0.252-0.044,0.348-0.132c0.096-0.088,0.144-0.196,0.144-0.324    c0-0.136-0.048-0.248-0.144-0.336c-0.096-0.088-0.212-0.132-0.348-0.132L18.481,9.49c-0.02-0.174-0.055-0.338-0.055-0.526    c0-0.086,0.021-0.159,0.026-0.242l2.29,0.014c0.136,0,0.252-0.043,0.348-0.132c0.096-0.088,0.144-0.196,0.144-0.324    c0-0.136-0.048-0.248-0.144-0.336c-0.096-0.088-0.212-0.132-0.348-0.132L18.61,7.799c0.061-0.2,0.118-0.402,0.213-0.58    c0.264-0.5,0.628-0.892,1.092-1.176c0.464-0.284,0.984-0.426,1.56-0.426c0.296,0,0.578,0.046,0.846,0.138    c0.268,0.092,0.514,0.218,0.738,0.378c0.112,0.056,0.224,0.08,0.336,0.072c0.112-0.008,0.204-0.064,0.276-0.168    c0.096-0.12,0.132-0.252,0.108-0.396s-0.104-0.252-0.24-0.324c-0.288-0.208-0.61-0.368-0.966-0.48    c-0.356-0.112-0.722-0.168-1.098-0.168c-0.568,0-1.096,0.108-1.584,0.324c-0.488,0.216-0.914,0.516-1.278,0.9    c-0.364,0.384-0.646,0.836-0.846,1.356c-0.066,0.173-0.105,0.36-0.149,0.544l-0.714-0.004c-0.136,0-0.252,0.044-0.348,0.132    c-0.096,0.088-0.144,0.2-0.144,0.336c0,0.128,0.048,0.236,0.144,0.324s0.212,0.132,0.348,0.132l0.585,0.004    c-0.004,0.084-0.021,0.162-0.021,0.248c0,0.182,0.028,0.347,0.044,0.52L16.902,9.48C16.766,9.48,16.65,9.524,16.554,9.613z"></path></g></g></svg>