<svg height='100px' width='100px'  fill="#000000" xmlns="http://www.w3.org/2000/svg" xmlns:xlink="http://www.w3.org/1999/xlink" version="1.1" x="0px" y="0px" viewBox="0 0 64 64" enable-background="new 0 0 64 64" xml:space="preserve"><g><path d="M54.133,30.477H51.99v28.595c0,0.785-0.632,1.417-1.417,1.417H24.894v-7.951c0-2.717-2.213-4.93-4.93-4.93h-7.951V30.477   H9.87l-1.066,1.066C8.711,31.636,8.605,31.73,8.5,31.812v17.553c0,0.117,0,0.234,0.035,0.34c0.023,0.152,0.082,0.293,0.141,0.433   c0.023,0.035,0.035,0.059,0.058,0.094c0.082,0.14,0.164,0.269,0.281,0.386l12.869,12.869c0.117,0.117,0.246,0.199,0.386,0.281   c0.035,0.012,0.059,0.035,0.094,0.047c0.14,0.07,0.281,0.129,0.421,0.152c0.012,0,0.012,0,0.012,0   c0.105,0.035,0.223,0.035,0.34,0.035h27.436c2.717,0,4.93-2.213,4.93-4.93v-27.26c-0.105-0.082-0.211-0.176-0.304-0.269   L54.133,30.477z"></path><path d="M59.804,26.943l-26.33-26.33c-0.82-0.82-2.13-0.82-2.95,0l-26.32,26.33c-0.81,0.82-0.81,2.13,0,2.95   c0.81,0.81,2.13,0.81,2.95,0l1.74-1.76h46.21l1.74,1.76c0.82,0.81,2.15,0.81,2.96,0C60.604,29.073,60.604,27.763,59.804,26.943z    M35.774,11.013c-2.01,0-3.78,1.05-4.79,2.62h4.79v2.31h-5.65c-0.03,0.25-0.05,0.51-0.05,0.77c0,0.27,0.02,0.52,0.05,0.78h5.65   v2.31h-4.79c1.01,1.57,2.78,2.62,4.79,2.62v2.31c-3.33,0-6.18-2.04-7.39-4.93h-3.06v-2.31h2.48c-0.03-0.26-0.04-0.51-0.04-0.78   c0-0.26,0.01-0.51,0.04-0.77h-2.48v-2.31h3.06c1.21-2.89,4.06-4.93,7.39-4.93V11.013z"></path><path d="M12.399,3.433h0.796v11.212l7.822-7.822v-3.39h0.784c0.363,0,0.644-0.281,0.644-0.644V0.635   c0-0.351-0.281-0.632-0.644-0.632h-9.403c-0.351,0-0.632,0.281-0.632,0.632v2.155C11.767,3.152,12.048,3.433,12.399,3.433z"></path><rect x="18.085" y="34.333" width="27.833" height="2.43"></rect><polygon points="18.085,43.853 18.085,43.854 45.918,43.854 45.918,43.853 45.918,41.424 18.085,41.424  "></polygon><rect x="27.837" y="48.515" width="18.081" height="2.43"></rect></g></svg>