<svg height='100px' width='100px'  fill="#000000" xmlns="http://www.w3.org/2000/svg" xmlns:xlink="http://www.w3.org/1999/xlink" version="1.1" viewBox="0 0 245.335 247.477" style="enable-background:new 0 0 245.335 247.477;" xml:space="preserve" x="0px" y="0px" overflow="visible"><path style="" d="M71.503,145.721c-0.327,8.314-4.009,38.101-36.845,38.101h134.694  c0,0-36.845-7.031-36.845-40.373" fill="none" stroke="#000000" stroke-width="25"></path><ellipse style="" cx="101.733" cy="105.313" rx="49.122" ry="43.962" fill="none" stroke="#000000" stroke-width="25"></ellipse><g><path style="" d="M194.667,211.129c0,13.116-10.731,23.848-23.848,23.848H36.347   c-13.116,0-23.847-10.731-23.847-23.848v-2.827c0-13.116,10.731-23.848,23.847-23.848h134.472   c13.116,0,23.848,10.731,23.848,23.848V211.129z" fill="none" stroke="#000000" stroke-width="25"></path></g><ellipse cx="102.285" cy="105.924" rx="12.351" ry="11.497"></ellipse><g><path style="" d="M183.122,37.357c0-13.728,11.129-24.857,24.857-24.857   s24.856,11.129,24.856,24.857c0,13.729-11.128,24.857-24.856,24.857v15.651" fill="none" stroke="#000000" stroke-width="25"></path><line style="" x1="207.979" y1="87.071" x2="207.979" y2="102.722" fill="none" stroke="#000000" stroke-width="25"></line></g></svg>