<?xml version="1.0" standalone="no"?>
<!DOCTYPE svg PUBLIC "-//W3C//DTD SVG 20010904//EN"
 "http://www.w3.org/TR/2001/REC-SVG-20010904/DTD/svg10.dtd">
<svg version="1.0" xmlns="http://www.w3.org/2000/svg"
 width="832.000000pt" height="832.000000pt" viewBox="0 0 832.000000 832.000000"
 preserveAspectRatio="xMidYMid meet">
<metadata>
Created by potrace 1.14, written by Peter Selinger 2001-2017
</metadata>
<g transform="translate(0.000000,832.000000) scale(0.100000,-0.100000)"
fill="#000000" stroke="none">
<path d="M3534 8093 c-21 -8 -47 -17 -56 -20 -10 -3 -18 -9 -18 -13 0 -5 -8
-11 -17 -14 -10 -3 -33 -29 -52 -56 -40 -58 -60 -143 -51 -205 3 -23 6 -59 6
-80 -1 -31 -5 -39 -21 -40 -56 -5 -131 -19 -195 -35 -38 -10 -80 -16 -92 -12
-16 4 -19 2 -13 -8 6 -10 4 -11 -6 -4 -15 9 -149 13 -149 4 0 -3 -25 -4 -55
-3 -31 0 -53 -3 -49 -8 3 -5 0 -9 -5 -9 -6 0 -11 5 -11 11 0 5 -5 7 -12 3 -6
-4 -27 -9 -47 -11 -19 -2 -38 -9 -42 -15 -4 -7 -8 -6 -12 3 -4 9 -6 10 -6 2
-1 -7 -8 -10 -16 -7 -8 4 -21 1 -29 -5 -7 -6 -15 -9 -18 -6 -10 10 -68 -17
-62 -28 5 -8 3 -8 -6 0 -10 9 -19 9 -41 -3 -16 -8 -31 -15 -34 -15 -24 -3 -45
-13 -45 -21 0 -5 -4 -7 -9 -3 -5 3 -12 1 -16 -5 -3 -5 1 -10 9 -10 8 0 18 -4
21 -10 7 -12 -23 -2 -44 14 -11 8 -13 8 -8 -1 5 -7 -6 -16 -28 -23 -19 -6 -35
-16 -35 -21 0 -5 -7 -9 -15 -9 -8 0 -15 -8 -15 -17 0 -14 -2 -15 -9 -4 -7 10
-14 9 -34 -9 -15 -13 -24 -28 -20 -33 4 -6 1 -7 -7 -2 -8 5 -18 1 -27 -11 -8
-10 -17 -19 -21 -19 -4 0 -6 -6 -6 -13 1 -9 -2 -10 -10 -3 -8 7 -16 4 -25 -11
-7 -11 -8 -17 -2 -13 17 10 13 -1 -6 -16 -10 -8 -14 -9 -10 -2 4 6 3 14 -3 18
-9 6 -14 -8 -11 -28 1 -5 -3 -6 -8 -3 -5 4 -14 -2 -20 -11 -6 -10 -11 -15 -11
-11 0 11 -50 -42 -50 -53 0 -6 -3 -8 -7 -6 -5 2 -16 -4 -25 -15 -10 -10 -16
-18 -13 -18 3 0 -12 -17 -32 -38 -54 -55 -72 -79 -66 -86 4 -3 -1 -6 -11 -6
-14 0 -15 -4 -6 -20 6 -12 7 -20 1 -20 -5 0 -11 6 -13 12 -3 8 -10 3 -18 -12
-7 -14 -16 -27 -19 -30 -18 -13 -51 -70 -51 -87 0 -15 -2 -16 -10 -3 -7 11
-10 11 -10 2 0 -7 -10 -26 -21 -41 -12 -16 -18 -34 -14 -40 4 -7 1 -10 -7 -9
-7 2 -13 -4 -13 -12 0 -8 6 -14 13 -12 10 2 10 -2 2 -18 -13 -24 -18 -26 -16
-6 0 8 -3 15 -9 15 -5 0 -9 -7 -9 -14 1 -8 -2 -12 -7 -9 -5 3 -9 1 -9 -5 0 -5
6 -11 13 -14 6 -2 2 -2 -10 0 -21 3 -25 -2 -22 -23 0 -4 -3 -10 -8 -13 -4 -3
-22 -26 -38 -51 -16 -25 -32 -47 -35 -50 -4 -3 -14 -23 -24 -45 -11 -22 -22
-42 -25 -45 -3 -3 -14 -20 -24 -38 -16 -27 -17 -36 -6 -50 11 -14 11 -15 -1
-4 -16 13 -31 16 -29 5 2 -15 -14 -53 -22 -53 -12 0 -41 -59 -34 -70 3 -5 -6
-17 -20 -26 -13 -9 -22 -20 -20 -25 3 -4 -4 -13 -15 -19 -17 -9 -19 -14 -9
-26 10 -12 9 -13 -7 -7 -17 6 -17 5 -5 -10 12 -15 12 -17 -3 -11 -16 6 -23
-10 -8 -19 4 -2 1 -2 -6 -1 -19 5 -26 -24 -11 -44 13 -16 13 -16 -5 -2 -18 14
-19 13 -13 -4 6 -15 5 -17 -6 -8 -10 9 -17 4 -32 -21 -10 -18 -23 -35 -29 -39
-7 -5 -7 -8 2 -8 6 0 12 -4 12 -10 0 -5 -8 -6 -17 -3 -16 6 -16 4 -5 -9 11
-14 10 -16 -9 -11 -13 4 -20 2 -16 -4 3 -5 -3 -17 -14 -26 -21 -18 -26 -43 -6
-31 8 5 8 2 -2 -9 -16 -20 -25 -23 -15 -4 4 6 -2 3 -15 -7 -12 -11 -19 -26
-16 -33 2 -8 1 -12 -4 -9 -5 3 -17 -6 -27 -20 -11 -15 -25 -32 -32 -40 -16
-17 -12 -44 8 -62 13 -11 11 -11 -8 -2 -12 6 -20 15 -17 20 3 5 1 11 -4 14 -9
6 -27 -31 -23 -46 1 -4 -6 -4 -15 -1 -11 4 -14 3 -9 -5 4 -7 2 -12 -3 -12 -6
0 -11 -7 -11 -17 0 -9 -3 -13 -6 -10 -8 7 -74 -76 -74 -93 0 -6 -5 -8 -12 -4
-8 5 -9 2 -4 -12 4 -10 4 -15 0 -11 -8 8 -54 -31 -54 -45 0 -5 -6 -15 -12 -22
-7 -7 -26 -30 -43 -51 -16 -21 -37 -46 -46 -55 -9 -9 -15 -24 -13 -33 1 -11
-3 -14 -14 -9 -15 5 -16 4 -2 -13 8 -10 9 -16 3 -11 -12 7 -42 -19 -44 -39 -1
-5 -10 -16 -21 -23 -10 -7 -15 -18 -12 -24 4 -6 2 -8 -4 -4 -6 3 -13 2 -17 -4
-3 -5 0 -10 7 -11 7 0 3 -5 -10 -11 -13 -7 -20 -17 -17 -25 14 -36 15 -46 1
-23 -13 22 -21 21 -17 -3 1 -4 -6 -10 -14 -13 -8 -3 -12 -10 -9 -15 3 -5 0 -9
-6 -9 -6 0 -9 -4 -6 -9 3 -5 -1 -12 -10 -15 -10 -4 -14 -14 -11 -25 4 -15 1
-18 -12 -14 -9 4 -13 3 -9 -2 4 -4 -5 -24 -20 -43 -15 -20 -20 -33 -12 -28 8
4 7 1 -3 -7 -10 -9 -20 -22 -21 -31 -1 -8 -9 -23 -17 -33 -18 -22 -19 -59 -1
-55 10 2 10 -2 3 -17 -6 -10 -7 -22 -3 -27 4 -5 0 -3 -9 4 -26 20 -57 -18 -50
-60 0 -5 -4 -8 -11 -8 -6 0 -8 -3 -5 -6 3 -4 0 -16 -8 -28 -8 -11 -15 -25 -15
-31 0 -5 5 -3 10 5 5 8 10 10 10 5 0 -6 -6 -17 -12 -23 -13 -13 -35 -89 -43
-147 -2 -16 -6 -45 -10 -63 -4 -26 -3 -32 7 -26 9 6 9 3 -1 -9 -7 -9 -11 -26
-8 -37 3 -11 2 -18 -2 -15 -5 2 -8 -13 -7 -35 1 -22 6 -40 11 -40 6 0 3 -5 -5
-10 -13 -9 -13 -10 0 -10 12 0 13 -2 1 -9 -11 -7 -10 -10 6 -15 11 -3 20 -14
20 -22 0 -14 -3 -14 -14 2 -13 17 -14 15 -10 -20 3 -27 10 -42 23 -47 17 -7
17 -8 -3 -8 -20 -1 -21 -4 -13 -26 5 -14 7 -25 4 -25 -4 0 -1 -6 5 -13 6 -8 9
-16 6 -18 -2 -3 1 -23 7 -45 6 -21 12 -41 13 -44 8 -40 49 -140 57 -140 6 0 9
-3 5 -6 -7 -8 13 -64 24 -64 4 0 6 -7 2 -16 -5 -13 -1 -15 18 -10 19 6 21 5 7
-4 -15 -9 -15 -13 -1 -40 8 -17 19 -30 24 -30 6 0 7 -5 3 -12 -5 -8 -2 -9 11
-4 15 5 16 4 6 -8 -10 -11 -7 -17 11 -30 12 -9 17 -16 10 -16 -11 0 -11 -3 0
-15 31 -34 36 -43 31 -49 -4 -3 -1 -6 5 -6 7 0 12 -5 12 -11 0 -19 54 -89 70
-90 11 0 12 -2 2 -6 -10 -4 -10 -9 3 -23 9 -10 22 -17 28 -16 7 2 9 1 5 -1
-14 -8 -8 -25 6 -20 9 4 12 0 9 -13 -3 -10 4 -23 16 -32 12 -8 18 -18 14 -21
-3 -4 1 -7 11 -7 9 0 14 -4 11 -10 -3 -5 5 -21 18 -34 14 -14 22 -27 19 -30
-3 -3 0 -6 6 -6 6 0 14 -9 17 -20 4 -11 11 -18 16 -15 5 4 9 -1 9 -9 0 -9 3
-16 8 -16 4 -1 23 -23 42 -50 19 -28 39 -50 44 -50 5 0 1 10 -10 23 l-19 22
22 -18 c12 -11 19 -25 16 -33 -3 -8 0 -14 7 -14 6 0 8 -4 5 -10 -3 -5 -2 -10
2 -10 5 0 24 -26 43 -58 18 -31 40 -68 49 -82 8 -14 16 -27 16 -30 0 -7 94
-158 124 -200 77 -108 144 -194 209 -270 41 -47 82 -104 93 -127 10 -23 23
-45 29 -48 5 -3 10 -15 10 -26 0 -10 5 -19 11 -19 5 0 7 -4 4 -10 -3 -5 -1
-10 6 -10 7 0 10 -3 6 -6 -3 -3 3 -23 14 -42 10 -20 19 -42 19 -49 0 -7 5 -13
11 -13 5 0 7 5 3 12 -4 7 -3 8 5 4 9 -6 9 -11 -1 -24 -11 -13 -11 -15 3 -10
13 5 16 2 12 -13 -3 -10 0 -26 7 -34 7 -8 9 -15 6 -15 -4 0 2 -13 13 -29 11
-15 18 -31 14 -35 -3 -3 0 -6 7 -6 7 0 11 -3 7 -6 -3 -4 7 -32 23 -64 16 -32
26 -60 23 -64 -4 -3 -1 -6 5 -6 7 0 12 -9 12 -20 0 -11 5 -20 11 -20 5 0 8 -4
5 -9 -3 -4 1 -17 9 -27 8 -10 15 -27 15 -37 0 -10 5 -15 10 -12 5 3 10 0 10
-8 0 -18 25 -68 31 -63 2 3 5 -8 6 -22 0 -15 6 -28 12 -30 6 -2 11 -12 11 -22
0 -9 7 -23 15 -30 8 -7 12 -16 9 -21 -3 -5 -1 -9 3 -9 5 0 14 -9 21 -21 11
-17 11 -20 0 -14 -7 3 -5 0 4 -8 10 -8 15 -17 12 -20 -4 -3 1 -13 10 -22 9 -9
16 -23 16 -31 0 -8 5 -14 12 -14 6 0 8 -3 5 -6 -4 -4 3 -15 15 -25 11 -11 18
-19 13 -19 -4 0 -2 -6 4 -13 6 -8 9 -17 6 -20 -3 -4 -2 -5 2 -2 6 5 68 -94 61
-100 -2 -1 -48 -34 -103 -73 -55 -40 -104 -75 -110 -80 -34 -26 -236 -152
-245 -152 -5 0 -10 -4 -10 -10 0 -5 -5 -10 -10 -10 -28 0 -90 -68 -118 -128
-85 -186 56 -402 258 -393 36 1 124 23 130 31 3 4 21 17 40 28 85 48 175 106
178 113 2 5 8 9 12 9 5 0 35 18 67 40 32 22 66 46 77 53 43 28 232 172 238
182 4 6 35 -4 80 -27 52 -26 75 -33 80 -25 5 8 8 6 8 -5 0 -10 5 -18 11 -18 5
0 7 6 3 12 -6 10 -5 10 8 1 8 -7 18 -10 22 -6 4 4 11 2 15 -5 4 -7 20 -15 36
-18 16 -3 33 -8 38 -11 5 -3 13 1 18 8 7 11 9 10 9 -5 0 -16 2 -17 17 -5 11
10 14 10 9 2 -4 -8 -1 -13 9 -13 10 0 13 5 9 13 -6 9 -5 9 8 0 8 -7 18 -10 21
-6 4 3 7 2 7 -3 0 -14 173 -14 182 0 5 7 8 7 8 -3 0 -11 3 -11 17 0 15 12 16
12 8 -1 -8 -13 -7 -13 8 -1 12 9 17 10 17 2 0 -7 5 -9 13 -4 6 4 19 8 27 8 38
1 121 18 125 26 3 4 12 6 20 2 8 -3 15 0 15 6 0 6 10 11 23 11 40 0 57 3 57
12 0 4 11 8 24 8 14 0 28 5 31 10 4 6 11 8 16 5 5 -4 9 -1 9 5 0 6 5 8 10 5 6
-3 10 -2 10 4 0 5 9 8 20 6 11 -2 20 0 20 6 0 5 3 8 8 7 4 -1 20 4 35 10 18 8
26 16 21 24 -5 9 -2 9 9 -1 15 -11 17 -11 17 2 0 11 6 13 22 9 16 -4 19 -2 13
8 -6 10 -4 12 9 7 11 -5 15 -3 10 4 -4 7 -1 10 7 7 8 -3 20 2 27 11 11 13 12
13 6 1 -6 -11 -2 -10 13 3 11 9 23 14 28 10 4 -5 4 2 1 15 -5 14 -3 22 4 22 6
0 9 -4 5 -9 -3 -5 -1 -12 5 -16 5 -3 10 -1 10 5 0 6 5 8 12 4 7 -5 9 -2 5 9
-4 11 -2 14 7 11 16 -6 102 41 99 54 -1 6 5 8 15 5 9 -2 27 5 38 16 12 11 25
17 28 14 3 -4 6 1 6 10 0 11 5 14 16 10 9 -3 19 -2 23 4 3 5 24 20 46 33 22
13 42 25 44 27 3 2 -4 10 -15 19 -18 15 -17 15 6 2 24 -14 29 -12 98 33 44 28
68 49 60 52 -9 4 -7 6 5 6 9 1 18 0 20 -1 1 -1 13 4 26 11 19 10 21 15 10 22
-10 7 -7 8 11 7 14 -2 25 2 25 9 0 7 7 18 15 25 12 11 12 11 0 -6 -14 -18 -13
-19 3 -13 10 4 21 7 23 7 3 0 2 5 -2 12 -4 7 -3 8 5 4 6 -4 17 -3 24 2 7 6 26
13 42 16 17 3 41 7 55 10 14 3 37 7 52 10 108 19 413 149 531 228 32 21 61 38
64 38 7 0 145 92 253 168 41 29 83 58 93 65 11 6 45 31 78 55 32 23 63 42 68
42 5 0 11 4 13 8 3 8 233 162 242 162 3 0 33 18 68 39 68 43 64 42 233 26 118
-11 316 -24 475 -30 137 -6 450 -17 468 -16 6 0 38 0 70 0 162 -1 200 2 248
17 65 20 137 86 165 151 53 124 9 273 -102 345 l-49 31 38 17 c131 60 174 83
270 147 78 53 80 55 154 128 146 145 237 319 274 523 21 120 20 297 -2 422 -2
14 -7 41 -10 60 -3 19 -10 53 -16 75 -5 22 -11 47 -13 55 -2 8 -8 35 -15 60
-7 25 -13 50 -15 55 -1 6 -5 17 -8 25 -3 8 -15 44 -26 80 -10 36 -38 117 -61
180 -22 63 -42 120 -44 125 -2 6 -7 19 -11 30 -4 11 -21 56 -37 100 -16 44
-37 98 -45 120 -23 59 -113 334 -117 359 -3 11 -5 21 -6 21 -1 0 -3 7 -5 15
-2 8 -11 44 -20 80 -9 36 -18 78 -20 93 -2 15 -9 54 -15 85 -6 31 -13 75 -16
97 -2 22 -7 60 -10 85 -3 25 -7 61 -9 80 -1 19 -6 62 -9 95 -4 33 -9 85 -11
115 -3 30 -8 75 -10 100 -3 25 -7 77 -11 115 -3 39 -7 81 -9 95 -2 14 -7 52
-11 85 -10 85 -12 100 -14 100 -1 0 -3 17 -5 38 -2 21 -6 50 -10 65 -4 15 -9
37 -11 50 -2 12 -6 32 -8 45 -8 45 -40 163 -56 207 l-16 45 79 48 c43 26 80
47 81 47 11 0 188 109 215 132 17 15 44 53 59 85 48 106 27 235 -53 315 -66
67 -185 98 -272 72 -37 -11 -160 -77 -311 -167 -110 -65 -107 -64 -151 -29
-22 18 -42 32 -45 32 -3 0 -22 12 -43 26 -21 14 -56 34 -78 44 -22 9 -68 30
-102 45 -35 15 -63 32 -63 37 0 5 -10 6 -22 3 -18 -5 -20 -4 -8 4 13 9 12 12
-7 17 -13 4 -23 11 -23 16 0 6 -8 7 -17 4 -10 -4 -14 -4 -10 0 9 10 -81 67
-93 59 -5 -3 -12 0 -16 6 -4 8 -3 9 4 5 7 -4 12 -5 12 -2 0 3 -14 13 -31 22
-23 11 -29 12 -24 2 3 -7 -2 -4 -12 7 -19 21 -31 24 -49 12 -7 -4 -11 0 -10
10 0 10 -8 19 -19 21 -11 2 -23 9 -27 15 -4 7 -12 6 -25 -3 -10 -8 -15 -11
-11 -6 10 12 -18 37 -42 39 -11 1 -20 4 -20 7 0 4 -17 12 -37 18 -27 8 -40 8
-50 0 -11 -8 -12 -7 -7 6 6 15 -5 20 -43 19 -7 -1 -13 4 -13 9 0 6 -7 8 -15 5
-8 -4 -17 -1 -21 4 -3 6 -15 9 -25 6 -11 -3 -19 -2 -19 2 0 13 -29 8 -34 -6
-6 -15 -26 -18 -26 -2 0 5 5 7 10 4 6 -3 10 0 10 8 0 7 -6 14 -12 14 -16 1
-63 9 -102 18 -25 5 -27 4 -17 -9 9 -11 9 -16 0 -22 -8 -5 -9 -3 -4 6 6 10 4
12 -8 7 -11 -4 -14 -2 -11 7 3 8 1 17 -5 21 -6 3 -11 0 -11 -7 0 -9 -3 -9 -10
2 -5 8 -10 12 -10 8 0 -4 -10 -4 -22 1 -16 6 -27 3 -38 -8 -8 -10 -11 -11 -6
-4 5 7 5 13 0 14 -5 0 -22 3 -39 5 -24 4 -28 3 -17 -7 6 -7 12 -20 12 -29 0
-9 -5 -5 -13 10 l-13 25 -166 1 c-92 0 -165 -3 -162 -8 3 -4 0 -8 -5 -8 -6 0
-11 5 -11 11 0 8 -4 8 -12 1 -7 -5 -23 -8 -36 -6 -13 2 -21 0 -18 -5 3 -5 -2
-15 -12 -22 -15 -13 -16 -12 -3 4 7 9 12 17 10 18 -36 8 -50 4 -46 -12 3 -13
0 -16 -11 -12 -11 5 -13 3 -7 -7 5 -9 4 -11 -4 -6 -9 6 -9 11 0 22 6 8 9 17 5
21 -3 3 -6 2 -6 -3 0 -5 -15 -9 -32 -9 -18 0 -39 -6 -46 -15 -8 -8 -11 -10 -7
-3 4 9 -6 11 -37 7 -70 -9 -93 -13 -93 -15 0 -1 -13 -2 -28 -3 -16 -1 -32 -8
-37 -16 -6 -8 -10 -10 -10 -4 0 6 -7 11 -15 11 -9 0 -14 -6 -11 -14 3 -8 1
-11 -4 -8 -17 11 -50 14 -50 5 0 -4 -10 -6 -22 -2 -21 5 -22 4 -8 -13 14 -17
14 -17 -6 -7 -12 6 -32 9 -45 6 -13 -3 -35 -7 -49 -9 -100 -15 -195 -42 -192
-55 2 -10 0 -11 -11 -2 -10 9 -17 9 -27 -1 -10 -9 -11 -9 -6 1 4 6 2 12 -3 12
-6 0 -11 -4 -11 -9 0 -6 -9 -8 -20 -6 -11 2 -22 -1 -26 -6 -3 -5 -14 -7 -25
-4 -10 4 -19 3 -19 -2 0 -5 -8 -9 -17 -10 -17 -2 -45 -7 -88 -17 -11 -2 -24
-5 -28 -5 -5 -1 -5 -7 -1 -13 5 -8 1 -8 -10 1 -15 13 -19 13 -26 1 -5 -8 -6
-18 -3 -24 3 -5 1 -6 -6 -2 -6 4 -9 11 -6 16 3 5 -8 5 -24 0 -16 -4 -32 -6
-35 -2 -3 3 -6 1 -6 -5 0 -6 -11 -9 -25 -8 -14 2 -27 0 -29 -4 -3 -4 -19 -6
-35 -5 -17 1 -33 -1 -36 -5 -8 -14 -65 1 -66 18 -1 9 -3 30 -4 46 -2 17 -6 57
-9 90 -14 146 -33 202 -89 257 -73 74 -194 104 -283 71z m1896 -255 c0 -6 -3
-8 -7 -5 -3 4 -11 2 -18 -3 -8 -7 -12 -6 -12 3 0 7 9 14 19 14 10 1 18 -3 18
-9z m45 2 c3 -6 -1 -7 -9 -4 -18 7 -21 14 -7 14 6 0 13 -4 16 -10z m105 -5
c11 -13 10 -14 -5 -9 -14 6 -16 4 -10 -6 5 -8 4 -11 -3 -6 -6 4 -9 13 -5 21 7
19 8 19 23 0z m240 0 c11 -13 10 -14 -5 -9 -14 6 -16 4 -10 -6 5 -8 4 -11 -3
-6 -6 4 -9 13 -5 21 7 19 8 19 23 0z m-736 -13 c3 -5 -1 -9 -9 -9 -8 0 -12 4
-9 9 3 4 7 8 9 8 2 0 6 -4 9 -8z m208 1 c-6 -2 -9 -10 -6 -15 4 -7 2 -8 -5 -4
-13 9 -5 26 12 25 9 0 8 -2 -1 -6z m-122 -18 c0 -11 -29 -11 -33 -1 -4 10 1
12 14 9 10 -3 19 -7 19 -8z m360 -6 c0 -4 -6 -11 -12 -15 -7 -4 -10 -4 -6 1 4
4 0 14 -10 21 -15 12 -15 12 6 7 12 -3 22 -9 22 -14z m397 6 c0 -8 -4 -15 -9
-15 -10 0 -11 14 -1 23 9 10 10 9 10 -8z m40 9 c-3 -3 -12 -4 -19 -1 -8 3 -5
6 6 6 11 1 17 -2 13 -5z m-917 -14 c0 -5 -2 -10 -4 -10 -3 0 -8 5 -11 10 -3 6
-1 10 4 10 6 0 11 -4 11 -10z m74 -6 c3 -8 2 -12 -4 -9 -6 3 -10 10 -10 16 0
14 7 11 14 -7z m129 -3 c3 -13 0 -18 -7 -15 -7 3 -13 11 -13 19 0 22 14 18 20
-4z m132 10 c-9 -8 -36 -10 -30 -2 2 4 11 8 20 8 8 0 13 -3 10 -6z m81 -3 c4
-7 4 -10 0 -6 -5 4 -19 3 -32 -2 -13 -5 -24 -7 -24 -4 0 3 25 16 47 23 1 1 5
-5 9 -11z m144 -20 c0 -19 -16 -5 -17 14 -2 18 0 20 7 8 5 -8 10 -18 10 -22z
m244 20 c-3 -4 -9 -8 -15 -8 -5 0 -9 4 -9 8 0 5 7 9 15 9 8 0 12 -4 9 -9z
m-770 -20 c-5 -7 -2 -9 9 -5 11 4 14 2 10 -9 -3 -8 -8 -12 -11 -10 -3 3 -11
-2 -19 -12 -13 -15 -13 -15 -3 6 6 12 8 22 5 22 -4 0 -3 5 0 10 3 6 8 10 11
10 3 0 2 -5 -2 -12z m116 -3 c7 -9 8 -15 2 -15 -5 0 -12 7 -16 15 -3 8 -4 15
-2 15 2 0 9 -7 16 -15z m372 -9 c3 2 8 -2 11 -10 4 -11 1 -13 -10 -9 -12 5
-14 3 -8 -8 4 -8 6 -12 2 -9 -3 3 -6 10 -7 15 -1 6 -6 19 -12 30 -8 18 -8 19
5 3 8 -10 16 -15 19 -12z m230 6 c-4 -11 -1 -13 8 -7 9 5 11 4 6 -3 -11 -17
-23 -15 -28 6 -3 11 0 19 7 19 8 0 11 -7 7 -15z m91 -2 c-6 -22 -18 -26 -29
-8 -4 6 -3 8 3 5 6 -4 13 0 17 8 8 22 15 18 9 -5z m69 1 c-5 -14 -4 -14 14 -1
18 14 18 14 5 -2 -17 -23 -27 -23 -33 0 -3 11 0 19 7 19 8 0 11 -7 7 -16z m91
-1 c-6 -22 -18 -26 -29 -8 -4 6 -3 8 3 5 6 -4 13 0 17 8 8 22 15 18 9 -5z
m-1180 -16 c-7 -19 -10 -18 -16 5 -3 13 -1 18 9 14 7 -2 10 -11 7 -19z m30 6
c-3 -12 -8 -19 -11 -16 -5 6 5 36 12 36 2 0 2 -9 -1 -20z m554 14 c-3 -3 -12
-4 -19 -1 -8 3 -5 6 6 6 11 1 17 -2 13 -5z m33 -15 c0 -5 -4 -9 -8 -9 -5 0 -9
7 -9 15 0 8 4 12 9 9 4 -3 8 -9 8 -15z m643 8 c7 3 8 2 4 -2 -14 -16 -36 -14
-29 3 4 10 7 12 10 4 2 -7 9 -9 15 -5z m-1103 -9 c0 -6 -3 -8 -7 -5 -3 4 -13
1 -22 -6 -14 -11 -14 -10 -2 6 15 20 31 22 31 5z m245 2 c-3 -5 -12 -10 -18
-10 -7 0 -6 4 3 10 19 12 23 12 15 0z m128 -5 c4 -8 1 -17 -5 -21 -7 -5 -8 -2
-3 6 6 10 4 12 -10 6 -15 -5 -16 -4 -5 9 15 19 16 19 23 0z m-33 -40 c0 -5 -5
-3 -10 5 -5 8 -10 20 -10 25 0 6 5 3 10 -5 5 -8 10 -19 10 -25z m83 18 c-5
-12 -3 -14 8 -8 8 5 11 4 6 0 -10 -11 -37 -15 -37 -6 0 7 21 31 27 31 1 0 -1
-7 -4 -17z m77 -13 c0 -4 -8 -10 -18 -12 -11 -3 -19 0 -19 7 0 8 7 11 16 7 14
-5 14 -4 1 14 -14 18 -14 18 3 5 9 -7 17 -17 17 -21z m-480 -1 c0 -5 -4 -9 -8
-9 -5 0 -9 7 -9 15 0 8 4 12 9 9 4 -3 8 -9 8 -15z m108 8 c14 4 14 3 2 -5 -16
-12 -30 -7 -29 11 0 9 2 9 5 0 3 -7 13 -9 22 -6z m629 -2 c0 -8 -5 -11 -10 -8
-6 4 -8 0 -5 -9 4 -8 0 -15 -7 -15 -17 0 -15 18 5 34 8 7 15 13 16 13 0 0 1
-7 1 -15z m63 5 c12 6 17 5 17 -5 0 -7 -7 -11 -15 -7 -9 3 -13 1 -9 -5 4 -6 0
-13 -8 -16 -10 -4 -12 -1 -8 10 4 10 2 14 -4 10 -5 -3 -10 1 -10 9 0 10 4 11
10 5 6 -6 17 -7 27 -1z m97 -4 c0 -9 -6 -12 -16 -8 -13 5 -14 3 -4 -9 10 -12
8 -15 -6 -15 -12 0 -17 5 -13 15 4 10 1 12 -8 6 -9 -5 -11 -4 -6 4 4 6 11 9
15 7 4 -3 13 -1 21 5 8 5 15 9 16 9 0 0 1 -6 1 -14z m71 0 c-10 -7 -15 -15
-12 -18 2 -3 -2 -8 -10 -11 -11 -4 -13 -1 -9 10 5 12 3 14 -7 8 -9 -5 -11 -4
-6 4 4 6 11 9 15 7 4 -3 13 -1 21 5 22 13 27 10 8 -5z m239 0 c-10 -8 -18 -18
-17 -22 1 -5 -4 -10 -12 -12 -9 -2 -8 0 2 7 8 6 11 11 5 11 -5 0 -1 7 9 15 11
8 22 15 25 15 3 0 -2 -7 -12 -14z m-1663 -8 c-3 -4 -9 -8 -15 -8 -5 0 -9 4 -9
8 0 5 7 9 15 9 8 0 12 -4 9 -9z m60 4 c2 -4 -4 -8 -14 -8 -10 0 -16 4 -14 8 3
4 9 8 14 8 5 0 11 -4 14 -8z m74 -7 c3 -3 -4 -4 -16 -2 -12 2 -24 6 -28 10 -4
3 4 4 16 2 12 -2 25 -7 28 -10z m882 -20 c0 -5 -5 -3 -10 5 -5 8 -10 20 -10
25 0 6 5 3 10 -5 5 -8 10 -19 10 -25z m477 19 c0 -7 -6 -15 -13 -18 -9 -3 -11
1 -7 11 5 12 3 14 -7 8 -8 -5 -11 -4 -7 2 9 14 34 12 34 -3z m-1404 -29 c-7
-21 -12 -19 -10 4 0 11 5 18 9 15 4 -3 5 -11 1 -19z m207 15 c0 -5 -4 -10 -10
-10 -5 0 -10 5 -10 10 0 6 5 10 10 10 6 0 10 -4 10 -10z m194 -2 c-5 -7 -2 -9
8 -6 8 4 15 0 15 -7 0 -10 -5 -11 -19 -4 -16 9 -17 29 -2 29 3 0 2 -5 -2 -12z
m326 -8 c-6 -11 -15 -18 -20 -15 -4 3 -11 0 -13 -5 -4 -7 -5 -6 -4 1 2 6 6 9
10 7 5 -2 13 5 18 15 14 24 22 21 9 -3z m151 2 c-5 -9 -16 -17 -25 -18 -9 -1
-14 2 -10 7 3 5 10 6 16 3 7 -5 9 -2 6 8 -4 8 0 15 8 15 9 0 10 -5 5 -15z
m-1081 -7 c-7 -9 -15 -13 -18 -10 -3 3 -10 0 -17 -5 -8 -7 -12 -5 -12 4 0 8 8
13 18 11 10 -2 21 0 24 6 4 5 9 9 12 9 3 0 0 -7 -7 -15z m147 -4 c-1 -12 -6
-17 -16 -13 -10 4 -12 1 -6 -8 5 -8 4 -11 -3 -6 -6 4 -9 13 -6 21 4 8 10 12
15 9 5 -3 9 0 9 5 0 6 2 11 4 11 3 0 4 -9 3 -19z m30 -3 c-3 -8 -6 -5 -6 6 -1
11 2 17 5 13 3 -3 4 -12 1 -19z m598 3 c-3 -6 -11 -11 -16 -11 -5 0 -4 6 3 14
14 16 24 13 13 -3z m93 8 c-2 -6 -7 -10 -12 -9 -4 1 -14 -7 -22 -17 -14 -17
-14 -16 -4 5 6 12 15 20 21 17 5 -4 9 -1 9 4 0 6 3 11 6 11 3 0 4 -5 2 -11z
m932 -4 c-14 -17 -30 -20 -30 -4 0 5 4 8 9 4 5 -3 12 -1 16 5 3 5 9 10 12 10
3 0 0 -7 -7 -15z m46 4 c3 -6 1 -16 -6 -22 -10 -9 -11 -9 -5 2 4 8 2 17 -6 22
-9 6 -10 9 -2 9 6 0 15 -5 19 -11z m-1941 -9 c3 -5 1 -10 -4 -10 -6 0 -11 5
-11 10 0 6 2 10 4 10 3 0 8 -4 11 -10z m145 -4 c-7 -7 -13 -7 -20 0 -6 6 -3
10 10 10 13 0 16 -4 10 -10z m217 -8 c-3 -8 -6 -5 -6 6 -1 11 2 17 5 13 3 -3
4 -12 1 -19z m88 13 c-9 -8 -36 -10 -30 -2 2 4 11 8 20 8 8 0 13 -3 10 -6z
m126 -13 c5 -10 4 -15 -5 -15 -8 0 -12 7 -8 15 3 10 1 13 -6 8 -6 -3 -13 -2
-16 3 -4 5 1 8 10 7 9 -1 20 -9 25 -18z m89 -3 c0 -2 -5 -7 -12 -11 -7 -5 -8
-3 -3 6 6 9 4 12 -7 8 -8 -4 -15 0 -15 7 0 10 5 11 19 4 10 -5 18 -12 18 -14z
m144 13 c-3 -5 -10 -5 -16 -2 -7 5 -9 2 -6 -8 4 -8 0 -15 -7 -15 -10 0 -11 5
-5 17 5 9 16 17 24 17 8 0 13 -4 10 -9z m284 -2 c-7 -8 -15 -12 -17 -11 -5 6
10 25 20 25 5 0 4 -6 -3 -14z m168 -1 c-1 -8 -6 -18 -11 -22 -4 -5 -5 -2 0 6
6 11 4 13 -11 8 -18 -7 -18 -7 0 8 24 18 25 18 22 0z m89 5 c-3 -5 -12 -10
-18 -10 -7 0 -6 4 3 10 19 12 23 12 15 0z m75 0 c0 -5 -4 -10 -10 -10 -5 0
-10 5 -10 10 0 6 5 10 10 10 6 0 10 -4 10 -10z m77 -5 c0 -8 -4 -12 -9 -9 -4
3 -8 9 -8 15 0 5 4 9 8 9 5 0 9 -7 9 -15z m73 5 c-8 -5 -19 -10 -25 -10 -5 0
-3 5 5 10 8 5 20 10 25 10 6 0 3 -5 -5 -10z m87 4 c-3 -3 -11 -6 -19 -8 -7 -1
-20 -6 -28 -11 -12 -7 -13 -6 -3 6 6 8 22 15 34 16 11 1 19 0 16 -3z m-1715
-21 c-6 -2 -10 -8 -7 -13 3 -4 -2 -11 -10 -14 -13 -4 -14 -2 -5 14 6 11 16 20
23 19 9 0 9 -2 -1 -6z m1514 -11 c-3 -3 2 -11 12 -19 15 -13 15 -13 -4 -4 -12
6 -24 8 -27 5 -3 -3 -8 0 -13 7 -5 8 -3 10 6 4 10 -6 12 -4 7 8 -4 11 -2 14 9
10 8 -3 12 -8 10 -11z m278 10 c2 -4 0 -14 -6 -22 -8 -12 -9 -12 -5 2 3 9 1
19 -6 22 -9 3 -9 5 0 5 6 1 14 -3 17 -7z m-1837 -22 c-1 -21 -10 -18 -13 5 -1
8 2 15 6 15 5 0 8 -9 7 -20z m283 -1 c0 -4 -6 -11 -12 -15 -7 -4 -10 -4 -6 1
4 4 0 14 -10 21 -15 12 -15 12 6 7 12 -3 22 -9 22 -14z m353 8 c4 3 7 2 7 -4
0 -6 -8 -13 -18 -15 -12 -4 -18 1 -18 13 0 12 4 15 12 9 6 -6 14 -7 17 -3z
m181 -1 c-3 -9 -12 -12 -22 -9 -15 6 -9 11 25 22 1 1 0 -5 -3 -13z m123 0 c0
-9 -6 -12 -16 -8 -14 5 -14 4 -1 -14 14 -18 14 -18 -2 -5 -10 7 -18 17 -18 21
0 5 8 11 18 13 9 3 17 5 18 6 0 0 1 -5 1 -13z m381 -11 c-3 -3 -9 2 -12 12 -6
14 -5 15 5 6 7 -7 10 -15 7 -18z m90 11 c-10 -7 -14 -17 -10 -21 4 -5 1 -5 -5
-1 -18 10 -16 24 5 29 27 7 28 7 10 -7z m-1192 -8 c5 -7 3 -8 -6 -3 -9 6 -12
4 -8 -7 4 -8 0 -15 -7 -15 -16 0 -15 18 0 29 13 10 13 10 21 -4z m144 -23 c0
-5 -5 -3 -10 5 -5 8 -10 20 -10 25 0 6 5 3 10 -5 5 -8 10 -19 10 -25z m219 12
c0 -9 -2 -9 -5 0 -3 7 -13 9 -22 6 -14 -4 -14 -3 -2 5 16 12 30 7 29 -11z
m138 8 c0 -8 -6 -16 -13 -19 -7 -3 -10 2 -7 15 6 22 20 26 20 4z m114 -8 c-10
-9 -11 -8 -5 6 3 10 9 15 12 12 3 -3 0 -11 -7 -18z m169 13 c0 -4 -7 -13 -15
-20 -13 -11 -14 -10 -9 5 6 14 4 16 -6 10 -8 -5 -11 -4 -7 2 7 11 37 13 37 3z
m80 -25 c0 -5 -5 -3 -10 5 -5 8 -10 20 -10 25 0 6 5 3 10 -5 5 -8 10 -19 10
-25z m417 18 c0 -6 -7 -9 -15 -5 -9 3 -13 1 -9 -5 3 -5 0 -10 -7 -10 -8 0 -12
7 -8 15 4 11 1 13 -8 7 -7 -5 -11 -4 -7 1 8 13 54 11 54 -3z m139 5 c3 -4 -1
-5 -10 -4 -8 1 -18 5 -22 8 -3 4 1 5 10 4 8 -1 18 -5 22 -8z m537 -2 c4 -10 0
-12 -15 -8 -15 4 -17 7 -6 13 17 11 15 11 21 -5z m-2319 -18 c-5 -8 -1 -9 12
-4 14 5 16 4 7 -5 -13 -13 -37 -3 -28 12 4 5 8 9 11 9 3 0 2 -5 -2 -12z m461
-18 c0 -15 -4 -27 -10 -27 -5 0 -10 12 -10 27 0 15 5 27 10 27 6 0 10 -12 10
-27z m385 -9 c3 -2 -3 -1 -14 3 -10 3 -24 2 -31 -4 -8 -7 -12 -5 -12 5 0 8 5
11 10 8 7 -4 8 1 3 12 -7 18 -6 18 16 0 13 -11 25 -22 28 -24z m176 22 c-3 -3
-1 -15 5 -27 9 -19 9 -19 -4 -4 -8 10 -16 15 -19 12 -3 -2 -8 2 -11 10 -4 11
-1 13 10 9 12 -5 14 -3 8 7 -6 9 -4 11 4 6 7 -5 10 -10 7 -13z m158 5 c-5 -8
-2 -9 11 -4 15 5 16 4 5 -9 -10 -12 -15 -13 -21 -3 -7 12 -3 28 7 28 3 0 2 -5
-2 -12z m326 -8 c-6 -10 -5 -21 1 -27 6 -6 5 -10 -5 -10 -8 0 -12 5 -9 10 4 6
0 8 -10 4 -11 -4 -14 -2 -10 8 3 8 10 12 16 8 6 -4 8 0 5 9 -4 8 0 15 7 15 10
0 11 -5 5 -17z m763 3 c-4 -10 -2 -14 4 -10 5 3 10 0 10 -8 0 -9 -4 -11 -11
-6 -6 5 -19 7 -29 6 -9 -2 -15 1 -11 6 3 5 9 7 14 4 4 -3 10 2 14 10 3 8 8 15
10 15 3 0 2 -7 -1 -17z m-2188 -2 c3 -5 2 -12 -3 -15 -5 -3 -9 1 -9 9 0 17 3
19 12 6z m42 -5 c0 -8 -6 -12 -15 -9 -11 5 -11 7 0 14 7 5 13 9 14 9 0 0 1 -6
1 -14z m359 -6 c0 -12 -4 -16 -9 -11 -5 5 -6 14 -3 20 10 15 12 14 12 -9z
m1101 5 c0 -8 -4 -15 -9 -15 -10 0 -11 14 -1 23 9 10 10 9 10 -8z m-2798 -13
c7 -14 6 -19 -4 -19 -7 0 -11 7 -7 15 4 11 1 13 -8 7 -9 -5 -11 -4 -6 3 10 16
14 15 25 -6z m1152 -5 c-10 -9 -11 -8 -5 6 3 10 9 15 12 12 3 -3 0 -11 -7 -18z
m121 5 c3 -11 0 -19 -7 -19 -7 0 -10 8 -7 19 2 10 6 18 7 18 1 0 5 -8 7 -18z
m91 -2 c3 -11 1 -18 -4 -14 -5 3 -9 12 -9 20 0 20 7 17 13 -6z m237 10 c0 -5
-4 -10 -10 -10 -5 0 -10 5 -10 10 0 6 5 10 10 10 6 0 10 -4 10 -10z m370 -5
c11 -13 10 -14 -4 -9 -9 3 -16 10 -16 15 0 13 6 11 20 -6z m347 0 c0 -8 -4
-12 -9 -9 -4 3 -8 9 -8 15 0 5 4 9 8 9 5 0 9 -7 9 -15z m223 11 c0 -2 -7 -7
-16 -10 -8 -3 -12 -2 -9 4 6 10 25 14 25 6z m350 -11 c11 -13 10 -14 -5 -9
-11 5 -16 4 -12 -3 3 -5 0 -10 -8 -10 -10 0 -12 4 -5 12 5 7 7 15 3 18 -3 4
-2 7 4 7 6 0 16 -7 23 -15z m287 0 c5 -4 2 -4 -6 0 -10 6 -13 4 -9 -6 4 -10
-1 -15 -15 -17 -17 -1 -19 1 -7 8 14 9 7 14 -13 11 -5 -1 -6 2 -3 7 6 11 43 9
53 -3z m418 5 c3 -5 1 -10 -4 -10 -6 0 -11 5 -11 10 0 6 2 10 4 10 3 0 8 -4
11 -10z m-2080 -9 c3 -5 2 -12 -3 -15 -5 -3 -9 1 -9 9 0 17 3 19 12 6z m380
-1 c3 -6 -1 -7 -9 -4 -18 7 -21 14 -7 14 6 0 13 -4 16 -10z m-2092 -17 c-5
-12 -3 -14 7 -8 9 5 11 4 6 -4 -6 -9 -11 -9 -22 0 -12 10 -12 14 -2 20 18 12
18 11 11 -8z m79 -1 c-7 -2 -9 -9 -5 -15 3 -7 3 -9 -2 -5 -4 4 -13 3 -20 -2
-8 -7 -12 -5 -12 5 0 8 5 11 10 8 6 -4 8 0 4 9 -4 12 -1 14 16 10 12 -3 16 -7
9 -10z m75 3 c0 -8 -4 -12 -9 -9 -4 3 -8 9 -8 15 0 5 4 9 8 9 5 0 9 -7 9 -15z
m88 5 c-3 -5 -12 -10 -18 -10 -7 0 -6 4 3 10 19 12 23 12 15 0z m1140 0 c-3
-5 -12 -10 -18 -10 -7 0 -6 4 3 10 19 12 23 12 15 0z m378 -7 c-5 -12 -3 -14
8 -8 8 5 11 4 6 0 -10 -11 -37 -15 -37 -6 0 7 21 31 27 31 1 0 -1 -7 -4 -17z
m794 11 c-3 -3 -12 -4 -19 -1 -8 3 -5 6 6 6 11 1 17 -2 13 -5z m200 -19 c0
-22 -14 -18 -20 4 -3 13 0 18 7 15 7 -3 13 -11 13 -19z m283 -5 c0 -10 -27 -7
-37 5 -5 4 -2 5 6 0 11 -6 13 -4 7 10 -5 15 -4 16 9 5 8 -7 15 -16 15 -20z
m-1200 1 c0 -5 -10 -11 -22 -14 -21 -5 -21 -5 -6 7 10 7 14 17 10 21 -4 5 -1
5 6 1 6 -4 12 -11 12 -15z m637 12 c-4 -3 1 -12 11 -19 15 -12 15 -12 -5 -7
-13 3 -23 9 -23 12 0 9 11 21 18 21 3 0 2 -3 -1 -7z m99 -2 c-9 -14 -45 -20
-53 -9 -3 6 -2 9 3 6 5 -3 18 -2 29 3 27 10 27 10 21 0z m302 -16 c-3 -3 -9 2
-12 12 -6 14 -5 15 5 6 7 -7 10 -15 7 -18z m76 13 c-5 -7 -2 -9 8 -6 8 4 15 1
15 -7 0 -7 -8 -10 -19 -7 -19 5 -23 14 -11 25 10 11 15 8 7 -5z m723 6 c-3 -3
-12 -4 -19 -1 -8 3 -5 6 6 6 11 1 17 -2 13 -5z m87 -3 c19 9 19 9 4 -4 -10 -8
-15 -17 -11 -20 3 -4 1 -7 -5 -7 -7 0 -12 5 -12 11 0 5 -4 8 -8 5 -5 -3 -9 2
-9 10 0 10 4 11 10 5 7 -7 17 -7 31 0z m115 -33 c1 -5 -3 -8 -7 -8 -4 0 -8 12
-9 28 -1 23 -1 24 7 7 5 -11 9 -23 9 -27z m-3996 13 c3 -13 1 -18 -9 -14 -7 2
-10 11 -7 19 7 19 10 18 16 -5z m74 4 c0 -8 -6 -16 -13 -19 -7 -3 -10 2 -7 15
6 22 20 26 20 4z m1567 7 c3 -5 -1 -9 -9 -9 -8 0 -15 4 -15 9 0 4 4 8 9 8 6 0
12 -4 15 -8z m396 -27 c0 -5 -5 -3 -10 5 -5 8 -10 20 -10 25 0 6 5 3 10 -5 5
-8 10 -19 10 -25z m203 16 c3 -13 1 -18 -9 -14 -7 2 -10 11 -7 19 7 19 10 18
16 -5z m80 0 c3 -13 0 -18 -7 -15 -7 3 -13 11 -13 19 0 22 14 18 20 -4z m188
-4 c-10 -9 -11 -8 -5 6 3 10 9 15 12 12 3 -3 0 -11 -7 -18z m244 14 c-9 -8
-36 -10 -30 -2 2 4 11 8 20 8 8 0 13 -3 10 -6z m218 -5 c4 -10 0 -12 -15 -8
-15 4 -17 7 -6 13 17 11 15 11 21 -5z m271 6 c3 -5 -1 -9 -9 -9 -8 0 -15 4
-15 9 0 4 4 8 9 8 6 0 12 -4 15 -8z m196 -7 c0 -1 -9 -5 -19 -8 -13 -3 -18 -1
-14 9 4 10 33 10 33 -1z m93 0 c4 -8 1 -17 -5 -21 -7 -4 -8 -3 -4 4 4 8 0 12
-11 12 -15 0 -16 2 -3 10 19 12 17 13 23 -5z m92 5 c3 -6 -1 -7 -9 -4 -18 7
-21 14 -7 14 6 0 13 -4 16 -10z m49 -2 c-3 -4 -11 -5 -19 -1 -21 7 -19 12 4
10 11 0 18 -5 15 -9z m70 3 c3 -5 -1 -11 -9 -14 -9 -4 -12 -1 -8 9 6 16 10 17
17 5z m200 -21 c-6 -6 -10 -3 -10 10 0 13 4 16 10 10 7 -7 7 -13 0 -20z
m-1109 -1 c-4 -5 -12 -9 -18 -8 -9 0 -8 2 1 6 6 2 9 10 6 15 -4 7 -2 8 5 4 6
-4 9 -12 6 -17z m983 -4 c-3 -3 -9 2 -12 12 -6 14 -5 15 5 6 7 -7 10 -15 7
-18z m-3595 -16 c-8 -8 -13 -7 -18 2 -6 8 -4 10 5 4 10 -6 12 -4 6 11 -6 15
-5 17 5 7 9 -10 10 -16 2 -24z m1447 21 c-8 -5 -19 -10 -25 -10 -5 0 -3 5 5
10 8 5 20 10 25 10 6 0 3 -5 -5 -10z m171 -12 c-5 -13 -9 -27 -9 -31 0 -5 -3
-11 -6 -14 -6 -6 3 47 10 59 10 16 13 7 5 -14z m153 10 c-5 -8 -1 -9 12 -4 14
5 16 4 7 -5 -13 -13 -37 -3 -28 12 4 5 8 9 11 9 3 0 2 -5 -2 -12z m562 -13 c2
-12 -2 -12 -17 -5 -23 13 -25 22 -2 13 12 -5 14 -3 8 8 -5 8 -4 11 0 6 5 -4
10 -14 11 -22z m357 -1 c-4 -11 -9 -12 -19 -3 -19 15 -18 20 3 12 12 -5 14 -3
8 7 -5 8 -4 11 3 6 6 -4 9 -13 5 -22z m126 9 c-6 -7 -9 -19 -6 -26 3 -8 -1
-14 -8 -14 -8 0 -11 7 -7 15 3 9 1 13 -5 9 -5 -3 -10 0 -10 7 0 8 7 12 15 8 9
-3 13 -1 9 5 -3 5 0 10 8 10 11 0 12 -4 4 -14z m154 4 c-4 -6 0 -8 10 -4 10 4
14 2 11 -7 -3 -7 -11 -13 -19 -13 -8 0 -13 3 -10 5 3 3 0 10 -5 17 -7 8 -5 12
5 12 8 0 11 -5 8 -10z m-3157 -23 c1 -9 0 -13 -4 -10 -3 4 -7 14 -8 22 -1 9 0
13 4 10 3 -4 7 -14 8 -22z m2176 11 c3 3 11 -3 19 -12 12 -16 12 -17 -2 -6 -9
7 -18 11 -21 8 -3 -3 -11 3 -19 12 -12 16 -12 17 2 6 9 -7 18 -11 21 -8z
m-2292 -5 c0 -5 -5 -10 -11 -10 -5 0 -7 5 -4 10 3 6 8 10 11 10 2 0 4 -4 4
-10z m31 -13 c-10 -9 -11 -8 -5 6 3 10 9 15 12 12 3 -3 0 -11 -7 -18z m163 7
c3 -8 2 -12 -4 -9 -6 3 -10 10 -10 16 0 14 7 11 14 -7z m46 12 c0 -2 -7 -7
-16 -10 -8 -3 -12 -2 -9 4 6 10 25 14 25 6z m1597 -11 c0 -8 -4 -12 -9 -9 -5
3 -6 10 -3 15 9 13 12 11 12 -6z m31 -10 c-3 -3 -9 2 -12 12 -6 14 -5 15 5 6
7 -7 10 -15 7 -18z m138 13 c4 -7 4 -10 -1 -6 -4 4 -14 0 -21 -10 -12 -15 -12
-15 -7 6 6 24 18 29 29 10z m44 8 c0 -2 -8 -10 -17 -17 -16 -13 -17 -12 -4 4
13 16 21 21 21 13z m183 -11 c4 -8 1 -17 -5 -21 -7 -5 -8 -2 -3 6 6 10 4 12
-10 6 -15 -5 -16 -4 -5 9 15 19 16 19 23 0z m160 -5 c10 -10 9 -11 -3 -4 -8 5
-21 9 -28 10 -8 2 -17 5 -20 8 -3 4 4 5 16 3 12 -2 28 -9 35 -17z m190 5 c-3
-9 -8 -14 -10 -11 -3 3 -2 9 2 15 9 16 15 13 8 -4z m187 11 c0 -2 -8 -10 -17
-17 -16 -13 -17 -12 -4 4 13 16 21 21 21 13z m75 -6 c-3 -5 -12 -10 -18 -10
-7 0 -6 4 3 10 19 12 23 12 15 0z m91 -2 c5 -7 3 -8 -6 -3 -10 6 -12 4 -6 -10
5 -15 4 -16 -9 -5 -13 11 -13 15 -3 21 17 11 16 11 24 -3z m201 -3 c0 -8 -4
-12 -9 -9 -5 3 -6 10 -3 15 9 13 12 11 12 -6z m63 11 c0 -3 -4 -8 -10 -11 -5
-3 -10 -1 -10 4 0 6 5 11 10 11 6 0 10 -2 10 -4z m-3276 -22 c3 -8 2 -12 -4
-9 -6 3 -10 10 -10 16 0 14 7 11 14 -7z m351 7 c3 -5 0 -13 -6 -17 -8 -5 -9
-3 -4 6 6 10 4 12 -9 7 -10 -4 -15 -3 -11 3 8 13 22 13 30 1z m1848 -5 c4 -10
1 -13 -8 -9 -8 3 -12 9 -9 14 7 12 11 11 17 -5z m920 1 c3 -8 -1 -14 -8 -14
-7 0 -11 6 -8 14 3 7 6 13 8 13 2 0 5 -6 8 -13z m-2970 -23 c-7 -19 -10 -18
-16 5 -3 13 -1 18 9 14 7 -2 10 -11 7 -19z m81 18 c2 -4 0 -14 -6 -22 -8 -12
-9 -12 -5 2 3 9 1 19 -6 22 -9 3 -9 5 0 5 6 1 14 -3 17 -7z m2646 -8 c-6 -6
-7 -14 -3 -17 3 -4 2 -7 -4 -7 -6 0 -13 8 -15 18 -4 12 1 18 13 18 12 0 15 -4
9 -12z m73 -10 c-7 -19 -10 -18 -16 5 -3 13 -1 18 9 14 7 -2 10 -11 7 -19z
m367 16 c0 -5 -5 -10 -11 -10 -5 0 -7 5 -4 10 3 6 8 10 11 10 2 0 4 -4 4 -10z
m-3320 -24 c0 -10 -30 0 -34 11 -4 11 -1 11 14 3 11 -6 20 -12 20 -14z m110 9
c0 -2 -6 -5 -13 -8 -8 -3 -14 1 -14 8 0 7 6 11 14 8 7 -3 13 -6 13 -8z m185 5
c-3 -5 -12 -10 -18 -10 -7 0 -6 4 3 10 19 12 23 12 15 0z m1879 -3 c3 4 6 2 6
-4 0 -15 -49 -11 -54 4 -4 9 1 10 18 3 13 -5 27 -6 30 -3z m183 6 c-4 -3 1
-12 11 -19 15 -12 15 -12 -5 -7 -13 3 -23 9 -23 12 0 9 11 21 18 21 3 0 2 -3
-1 -7z m698 -13 c-1 -11 -5 -23 -9 -27 -4 -5 -6 -1 -4 7 2 8 -3 14 -9 13 -20
-4 -15 15 5 20 9 3 17 5 18 6 0 0 0 -8 -1 -19z m-2998 -5 c5 -4 2 -5 -6 0 -11
6 -13 4 -8 -9 4 -9 3 -15 -2 -11 -5 3 -11 0 -13 -7 -3 -7 -7 -5 -11 6 -5 11
-3 15 5 10 7 -5 9 -2 5 8 -6 17 16 19 30 3z m2057 -1 c3 -8 2 -12 -4 -9 -6 3
-10 10 -10 16 0 14 7 11 14 -7z m140 0 c3 -7 -2 -10 -15 -7 -22 6 -26 20 -4
20 8 0 16 -6 19 -13z m182 4 c3 -4 -1 -5 -10 -4 -8 1 -18 5 -22 8 -3 4 1 5 10
4 8 -1 18 -5 22 -8z m724 8 c0 -2 -7 -7 -16 -10 -8 -3 -12 -2 -9 4 6 10 25 14
25 6z m-2866 -28 c-3 -4 -11 -5 -19 -1 -21 7 -19 12 4 10 11 0 18 -5 15 -9z
m2029 -8 c-3 -11 -10 -23 -16 -27 -5 -3 -8 -2 -5 3 3 5 8 17 11 27 9 24 16 22
10 -3z m-2133 -12 c0 -6 -6 -5 -15 2 -8 7 -15 14 -15 16 0 2 7 1 15 -2 8 -4
15 -11 15 -16z m2497 0 c-3 -8 -6 -5 -6 6 -1 11 2 17 5 13 3 -3 4 -12 1 -19z
m113 1 c0 -5 -4 -9 -8 -9 -5 0 -9 7 -9 15 0 8 4 12 9 9 4 -3 8 -9 8 -15z m57
7 c0 -8 -6 -12 -15 -9 -11 5 -11 7 0 14 7 5 13 9 14 9 0 0 1 -6 1 -14z m53 -1
c0 -2 -6 -5 -13 -8 -8 -3 -14 1 -14 8 0 7 6 11 14 8 7 -3 13 -6 13 -8z m75 -3
c-3 -3 -11 0 -18 7 -9 10 -8 11 6 5 10 -3 15 -9 12 -12z m-3025 0 c0 -5 -7 -9
-15 -9 -8 0 -12 4 -9 9 3 4 9 8 15 8 5 0 9 -4 9 -8z m125 -2 c3 -6 -1 -7 -9
-4 -18 7 -21 14 -7 14 6 0 13 -4 16 -10z m51 -2 c5 -7 3 -8 -6 -3 -10 6 -12 4
-6 -10 5 -15 4 -16 -9 -5 -13 11 -13 15 -3 21 17 11 16 11 24 -3z m2257 -5
c-3 -7 -6 -13 -8 -13 -2 0 -5 6 -8 13 -3 8 1 14 8 14 7 0 11 -6 8 -14z m267
-8 c0 -2 -7 -1 -17 2 -12 5 -14 3 -8 -8 5 -8 4 -11 0 -6 -5 4 -10 14 -11 22
-2 12 2 12 17 5 10 -6 19 -13 19 -15z m-223 0 c0 -8 -4 -12 -9 -9 -5 3 -6 10
-3 15 9 13 12 11 12 -6z m-2363 -3 c2 -4 0 -14 -6 -22 -8 -12 -9 -12 -5 2 3 9
1 19 -6 22 -9 3 -9 5 0 5 6 1 14 -3 17 -7z m2460 0 c2 -4 -5 -9 -17 -9 -17 -2
-19 0 -7 7 18 12 18 12 24 2z m-2534 -17 c0 -11 -29 -11 -33 -1 -4 10 1 12 14
9 10 -3 19 -7 19 -8z m201 -8 c-10 -9 -11 -8 -5 6 3 10 9 15 12 12 3 -3 0 -11
-7 -18z m-27 -4 c4 -10 1 -11 -12 -5 -9 5 -24 7 -32 5 -11 -3 -12 -2 -2 5 19
13 40 11 46 -5z m-414 -13 c0 -5 -5 -10 -11 -10 -5 0 -7 5 -4 10 3 6 8 10 11
10 2 0 4 -4 4 -10z m197 -5 c0 -8 -4 -12 -9 -9 -4 3 -8 9 -8 15 0 5 4 9 8 9 5
0 9 -7 9 -15z m64 -22 c-6 -10 -11 -13 -11 -5 0 7 -5 10 -12 6 -7 -4 -8 -3 -4
5 4 6 12 8 18 5 8 -5 9 -1 4 12 -5 14 -4 16 4 7 9 -8 9 -16 1 -30z m159 11 c0
-8 -19 -13 -24 -6 -3 5 1 9 9 9 8 0 15 -2 15 -3z m-49 -27 c-10 -9 -11 -8 -5
6 3 10 9 15 12 12 3 -3 0 -11 -7 -18z m-91 -38 c0 -5 -5 -9 -12 -9 -6 0 -8 3
-5 7 4 3 1 13 -6 22 -11 14 -10 14 6 2 9 -7 17 -17 17 -22z m75 11 c-3 -5 -12
-10 -18 -10 -7 0 -6 4 3 10 19 12 23 12 15 0z m-430 -30 c-3 -5 -12 -10 -18
-10 -7 0 -6 4 3 10 19 12 23 12 15 0z m71 -16 c1 -9 0 -13 -4 -10 -3 4 -7 14
-8 22 -1 9 0 13 4 10 3 -4 7 -14 8 -22z m239 16 c3 -5 1 -10 -4 -10 -6 0 -11
5 -11 10 0 6 2 10 4 10 3 0 8 -4 11 -10z m-286 -24 c9 -10 8 -15 -3 -19 -9 -4
-18 -1 -22 5 -5 7 -2 8 6 3 10 -6 12 -4 7 8 -8 21 -3 22 12 3z m214 -7 c-4
-15 -8 -17 -14 -8 -6 11 4 28 18 29 0 0 -1 -9 -4 -21z m113 -7 c-10 -2 -22 0
-28 6 -6 6 0 7 19 4 21 -5 23 -7 9 -10z m-433 -11 c3 -13 1 -18 -9 -14 -7 2
-10 11 -7 19 7 19 10 18 16 -5z m371 11 c3 -5 -1 -9 -9 -9 -8 0 -12 4 -9 9 3
4 7 8 9 8 2 0 6 -4 9 -8z m-319 -12 c3 -6 -1 -7 -9 -4 -18 7 -21 14 -7 14 6 0
13 -4 16 -10z m97 -33 c3 -13 0 -24 -6 -24 -6 0 -11 13 -11 28 0 32 11 29 17
-4z m125 18 c0 -8 -4 -12 -9 -9 -5 3 -6 10 -3 15 9 13 12 11 12 -6z m-247 -10
c-7 -8 -17 -15 -23 -15 -6 0 -2 7 9 15 25 19 30 19 14 0z m267 -7 c-3 -8 -6
-5 -6 6 -1 11 2 17 5 13 3 -3 4 -12 1 -19z m-357 2 c0 -5 -5 -10 -11 -10 -5 0
-7 5 -4 10 3 6 8 10 11 10 2 0 4 -4 4 -10z m140 0 c0 -5 -4 -10 -10 -10 -5 0
-10 5 -10 10 0 6 5 10 10 10 6 0 10 -4 10 -10z m94 -6 c3 -8 2 -12 -4 -9 -6 3
-10 10 -10 16 0 14 7 11 14 -7z m66 -9 c0 -2 -5 -7 -12 -11 -7 -5 -8 -3 -3 6
6 9 4 12 -7 8 -8 -4 -15 0 -15 7 0 10 5 11 19 4 10 -5 18 -12 18 -14z m120 -3
c-6 -2 -7 -9 -4 -14 4 -7 2 -8 -5 -4 -6 4 -8 12 -5 18 5 7 1 9 -9 5 -11 -4
-14 -2 -11 8 5 11 10 12 25 2 11 -7 15 -13 9 -15z m-240 -22 c0 -4 -8 -14 -17
-21 -17 -13 -17 -13 -3 5 13 18 13 19 -1 14 -9 -4 -16 -1 -16 7 0 7 8 10 19 7
10 -2 18 -8 18 -12z m-217 -5 c-3 -9 -8 -14 -10 -11 -3 3 -2 9 2 15 9 16 15
13 8 -4z m153 3 c5 -7 3 -8 -6 -3 -9 6 -12 4 -8 -7 4 -8 0 -15 -7 -15 -16 0
-15 18 0 29 13 10 13 10 21 -4z m148 0 c-3 -4 -9 -8 -15 -8 -5 0 -9 4 -9 8 0
5 7 9 15 9 8 0 12 -4 9 -9z m73 -3 c0 -8 -4 -12 -9 -9 -4 3 -8 9 -8 15 0 5 4
9 8 9 5 0 9 -7 9 -15z m62 -19 c-3 -3 -11 5 -18 17 -13 21 -12 21 5 5 10 -10
16 -20 13 -22z m-185 2 c-5 -7 -2 -9 9 -5 11 4 14 2 10 -9 -3 -8 -8 -12 -11
-10 -3 3 -11 -2 -19 -12 -13 -15 -13 -15 -3 6 6 12 8 22 5 22 -4 0 -3 5 0 10
3 6 8 10 11 10 3 0 2 -5 -2 -12z m87 -5 c-5 -10 -9 -22 -9 -26 0 -5 -4 -12 -8
-15 -4 -4 -3 -1 1 7 6 11 4 13 -8 8 -11 -4 -14 -2 -10 8 3 8 9 13 13 10 4 -3
10 2 14 10 3 8 8 15 11 15 3 0 1 -8 -4 -17z m-300 -8 c5 4 6 -2 2 -11 -4 -11
-8 -13 -11 -6 -2 7 -8 10 -13 7 -5 -4 -6 2 -2 11 4 11 8 13 11 6 2 -7 8 -10
13 -7z m372 0 c-3 -9 -8 -14 -10 -11 -3 3 -2 9 2 15 9 16 15 13 8 -4z m-233
-4 c0 -6 -4 -12 -8 -15 -5 -3 -9 1 -9 9 0 8 4 15 9 15 4 0 8 -4 8 -9z m40 -40
c0 -5 -10 -11 -22 -14 -21 -5 -21 -5 -6 7 10 7 14 17 10 21 -4 5 -1 5 6 1 6
-4 12 -11 12 -15z m157 4 c0 -8 -4 -15 -9 -15 -10 0 -11 14 -1 23 9 10 10 9
10 -8z m-316 -8 c-6 -8 -8 -17 -4 -20 3 -4 1 -7 -5 -7 -15 0 -15 13 0 28 16
16 23 15 9 -1z m99 7 c0 -8 -19 -13 -24 -6 -3 5 1 9 9 9 8 0 15 -2 15 -3z
m140 -4 c0 -5 -4 -10 -10 -10 -5 0 -10 5 -10 10 0 6 5 10 10 10 6 0 10 -4 10
-10z m-46 -22 c-5 -8 -2 -9 11 -4 15 5 16 4 5 -9 -10 -12 -15 -13 -21 -3 -7
12 -3 28 7 28 3 0 2 -5 -2 -12z m89 -5 c-3 -7 -6 -13 -8 -13 -2 0 -5 6 -8 13
-3 8 1 14 8 14 7 0 11 -6 8 -14z m-216 -18 c4 -4 3 -5 -4 -2 -6 4 -13 2 -15
-5 -3 -8 -6 -6 -10 4 -7 17 15 19 29 3z m-86 -18 c-10 -9 -11 -8 -5 6 3 10 9
15 12 12 3 -3 0 -11 -7 -18z m299 9 c0 -3 -4 -8 -10 -11 -5 -3 -10 -1 -10 4 0
6 5 11 10 11 6 0 10 -2 10 -4z m-320 -31 c0 -1 -9 -5 -19 -8 -13 -3 -18 -1
-14 9 4 10 33 10 33 -1z m74 -17 c-3 -4 -11 -8 -17 -7 -9 0 -9 2 0 5 7 3 9 13
6 22 -4 14 -3 14 5 2 6 -8 8 -18 6 -22z m-116 -23 c-3 -3 -9 2 -12 12 -6 14
-5 15 5 6 7 -7 10 -15 7 -18z m-114 3 c-2 -3 -13 -6 -24 -5 -24 2 -18 13 9 13
11 0 18 -4 15 -8z m72 -14 c1 -9 0 -13 -4 -10 -3 4 -7 14 -8 22 -1 9 0 13 4
10 3 -4 7 -14 8 -22z m204 22 c0 -3 -4 -8 -10 -11 -5 -3 -10 -1 -10 4 0 6 5
11 10 11 6 0 10 -2 10 -4z m116 -21 c1 -8 -2 -15 -6 -15 -5 0 -8 9 -7 20 1 21
10 18 13 -5z m-196 11 c0 -2 -7 -9 -15 -16 -13 -11 -14 -10 -9 4 5 14 24 23
24 12z m-171 -20 c9 -10 8 -15 -3 -19 -9 -4 -18 -1 -22 5 -5 7 -2 8 6 3 10 -6
12 -4 7 8 -8 21 -3 22 12 3z m211 -2 c-6 -6 -7 -14 -3 -17 3 -4 2 -7 -4 -7 -6
0 -13 8 -15 18 -4 12 1 18 13 18 12 0 15 -4 9 -12z m-283 -1 c-4 -3 1 -12 11
-20 16 -12 16 -13 -2 -6 -14 5 -17 3 -11 -7 5 -9 4 -11 -4 -6 -6 4 -8 12 -5
18 5 8 1 9 -12 5 -18 -7 -18 -7 0 8 20 15 35 21 23 8z m203 -14 c0 -3 -9 -9
-19 -12 -13 -3 -18 0 -15 7 5 13 34 18 34 5z m116 -14 c-4 -25 -22 -39 -29
-21 -4 10 -1 13 9 9 8 -3 14 -2 13 3 -2 13 0 24 5 24 2 0 3 -7 2 -15z m-204
-28 c3 -13 0 -24 -6 -24 -6 0 -11 13 -11 28 0 32 11 29 17 -4z m121 20 c-4 -6
0 -8 8 -5 10 4 15 -1 15 -12 0 -11 -5 -16 -15 -12 -10 4 -12 1 -6 -8 5 -9 4
-11 -4 -6 -6 4 -9 12 -5 17 3 5 1 16 -5 23 -8 9 -7 13 4 13 8 0 11 -5 8 -10z
m-72 -14 c13 -16 12 -17 -3 -4 -10 7 -18 15 -18 17 0 8 8 3 21 -13z m-181 -5
c0 -4 -4 -8 -9 -8 -6 0 -12 4 -15 8 -3 5 1 9 9 9 8 0 15 -4 15 -9z m60 2 c0
-5 -4 -10 -10 -10 -5 0 -10 5 -10 10 0 6 5 10 10 10 6 0 10 -4 10 -10z m94 -6
c3 -8 2 -12 -4 -9 -6 3 -10 10 -10 16 0 14 7 11 14 -7z m246 4 c0 -6 -3 -8 -7
-5 -3 4 -13 1 -22 -6 -14 -11 -14 -10 -2 6 15 20 31 22 31 5z m-58 -15 c-6 -2
-9 -10 -6 -15 4 -7 2 -8 -5 -4 -13 9 -5 26 12 25 9 0 8 -2 -1 -6z m-242 -23
c0 -4 -8 -14 -17 -21 -17 -13 -17 -13 -3 5 13 18 13 19 -1 14 -9 -4 -16 -1
-16 7 0 7 8 10 19 7 10 -2 18 -8 18 -12z m120 5 c0 -11 -29 -11 -33 -1 -4 10
1 12 14 9 10 -3 19 -7 19 -8z m-184 -7 c5 -7 3 -8 -6 -3 -10 6 -12 4 -6 -10 5
-15 4 -16 -9 -5 -13 11 -13 15 -3 21 17 11 16 11 24 -3z m138 -4 c3 -8 2 -12
-4 -9 -6 3 -10 10 -10 16 0 14 7 11 14 -7z m129 -3 c3 -13 0 -18 -7 -15 -7 3
-13 11 -13 19 0 22 14 18 20 -4z m-169 -13 c-5 -7 -2 -9 9 -5 11 4 14 2 10 -9
-3 -8 -8 -12 -11 -10 -3 3 -11 -2 -19 -12 -13 -15 -13 -15 -3 6 6 12 8 22 5
22 -4 0 -3 5 0 10 3 6 8 10 11 10 3 0 2 -5 -2 -12z m-170 -14 c3 -8 2 -13 -3
-9 -5 3 -11 0 -13 -7 -3 -7 -7 -5 -11 6 -4 10 -3 15 3 11 6 -3 10 -1 10 4 0
16 7 13 14 -5z m96 -3 c0 -6 -4 -12 -8 -15 -5 -3 -9 1 -9 9 0 8 4 15 9 15 4 0
8 -4 8 -9z m265 -1 c-3 -5 -12 -10 -18 -10 -7 0 -6 4 3 10 19 12 23 12 15 0z
m-225 -41 c0 -5 -4 -9 -8 -9 -5 0 -9 7 -9 15 0 8 4 12 9 9 4 -3 8 -9 8 -15z
m-160 -21 c0 -19 -16 -5 -17 14 -2 18 0 20 7 8 5 -8 10 -18 10 -22z m234 16
c3 -8 2 -12 -4 -9 -6 3 -10 10 -10 16 0 14 7 11 14 -7z m122 -9 c1 -8 -2 -15
-6 -15 -5 0 -8 9 -7 20 1 21 10 18 13 -5z m-162 -7 c-5 -7 -2 -9 8 -6 8 4 15
0 15 -7 0 -10 -5 -11 -19 -4 -16 9 -17 29 -2 29 3 0 2 -5 -2 -12z m-127 -25
c2 -6 -1 -14 -6 -18 -7 -4 -8 0 -4 11 4 11 3 15 -5 10 -6 -3 -13 -2 -16 3 -4
5 2 8 11 7 9 -2 19 -8 20 -13z m93 -8 c0 -2 -5 -7 -12 -11 -7 -5 -8 -3 -3 6 6
9 4 12 -7 8 -8 -4 -15 0 -15 7 0 10 5 11 19 4 10 -5 18 -12 18 -14z m171 -8
c-10 -9 -11 -8 -5 6 3 10 9 15 12 12 3 -3 0 -11 -7 -18z m-117 -17 c-6 -6 -15
-5 -24 1 -13 9 -12 10 3 5 9 -3 17 0 17 6 0 6 3 8 7 5 4 -4 2 -12 -3 -17z
m-241 -4 c4 -10 0 -12 -15 -8 -15 4 -17 7 -6 13 17 11 15 11 21 -5z m67 3 c0
-3 -9 -9 -19 -12 -13 -3 -18 0 -15 7 5 13 34 18 34 5z m73 -3 c3 -8 0 -17 -7
-19 -10 -4 -12 1 -9 14 6 23 9 24 16 5z m-13 -45 c3 -2 -2 -1 -10 1 -8 3 -22
2 -31 -3 -10 -5 -16 -3 -16 6 0 8 7 11 16 7 14 -5 14 -4 1 14 -14 18 -14 18
10 -1 14 -11 27 -22 30 -24z m140 30 c0 -5 -8 -15 -17 -22 -16 -12 -17 -12 -6
2 7 9 10 19 6 22 -3 4 -1 7 5 7 7 0 12 -4 12 -9z m77 3 c-3 -3 -12 -4 -19 -1
-8 3 -5 6 6 6 11 1 17 -2 13 -5z m-307 -29 c11 -13 10 -14 -4 -9 -9 3 -16 10
-16 15 0 13 6 11 20 -6z m290 11 c0 -2 -7 -7 -16 -10 -8 -3 -12 -2 -9 4 6 10
25 14 25 6z m-365 -16 c3 -6 -1 -7 -9 -4 -18 7 -21 14 -7 14 6 0 13 -4 16 -10z
m-55 -35 c0 -1 -9 -5 -19 -8 -13 -3 -18 -1 -14 9 4 10 33 10 33 -1z m83 -4 c3
-13 0 -18 -7 -15 -7 3 -13 11 -13 19 0 22 14 18 20 -4z m79 1 c4 -12 -1 -18
-13 -18 -12 0 -15 4 -9 12 6 6 7 14 3 17 -3 4 -2 7 4 7 6 0 13 -8 15 -18z
m-127 -33 c-4 -5 0 -9 7 -10 10 0 10 -2 0 -6 -6 -2 -9 -10 -6 -15 4 -7 2 -8
-5 -4 -6 4 -8 12 -5 18 5 8 1 9 -12 5 -18 -7 -18 -6 -2 6 10 8 14 18 10 22 -4
5 -1 5 6 1 7 -4 10 -12 7 -17z m165 17 c0 -2 -8 -10 -17 -17 -16 -13 -17 -12
-4 4 13 16 21 21 21 13z m-229 -23 c13 -17 13 -17 -5 -3 -18 14 -19 13 -14 -2
7 -17 -14 -20 -29 -3 -4 4 -2 5 5 1 7 -4 12 -1 12 8 0 21 14 20 31 -1z m139 7
c-8 -5 -19 -10 -25 -10 -5 0 -3 5 5 10 8 5 20 10 25 10 6 0 3 -5 -5 -10z m205
1 c3 -5 2 -12 -3 -15 -5 -3 -9 1 -9 9 0 17 3 19 12 6z m-395 -41 c0 -5 -5 -10
-11 -10 -5 0 -7 5 -4 10 3 6 8 10 11 10 2 0 4 -4 4 -10z m77 -5 c0 -8 -6 -16
-13 -19 -7 -3 -10 2 -7 15 6 22 20 26 20 4z m-47 -20 c7 -9 8 -15 2 -15 -5 0
-12 7 -16 15 -3 8 -4 15 -2 15 2 0 9 -7 16 -15z m257 -1 c-3 -3 -12 -4 -19 -1
-8 3 -5 6 6 6 11 1 17 -2 13 -5z m56 -8 c11 1 16 0 13 -4 -13 -12 -36 -10 -48
6 -11 15 -11 15 2 6 8 -6 23 -10 33 -8z m-229 -7 c3 -3 -4 -5 -14 -6 -11 -1
-20 2 -20 7 0 8 25 8 34 -1z m119 -4 c4 -8 1 -17 -5 -21 -7 -5 -8 -2 -3 6 6
10 4 12 -10 6 -15 -5 -16 -4 -5 9 15 19 16 19 23 0z m81 -13 c2 -4 0 -14 -6
-22 -8 -12 -9 -12 -5 2 3 9 1 19 -6 22 -9 3 -9 5 0 5 6 1 14 -3 17 -7z m-326
-15 c14 4 14 3 2 -5 -16 -12 -30 -7 -29 11 0 9 2 9 5 0 3 -7 13 -9 22 -6z
m254 -34 c-5 -10 -8 -26 -6 -36 1 -11 1 -17 -1 -15 -2 1 -3 6 -2 9 1 3 -5 14
-13 24 -8 11 -10 16 -4 12 7 -4 14 0 18 8 3 8 8 15 11 15 3 0 2 -8 -3 -17z
m-149 -12 c3 -15 1 -18 -11 -14 -11 5 -13 3 -7 -7 5 -9 4 -11 -3 -6 -9 5 -8
12 1 26 14 24 14 24 20 1z m-88 -1 c-3 -5 -12 -10 -18 -10 -7 0 -6 4 3 10 19
12 23 12 15 0z m158 -10 c3 -11 1 -18 -4 -14 -5 3 -9 12 -9 20 0 20 7 17 13
-6z m-123 -31 c0 -4 -6 -11 -12 -15 -7 -4 -10 -4 -6 1 4 4 0 14 -10 21 -15 12
-15 12 6 7 12 -3 22 -9 22 -14z m-64 -1 c5 -7 3 -8 -6 -3 -10 6 -12 4 -6 -10
5 -15 4 -16 -9 -5 -13 11 -13 15 -3 21 17 11 16 11 24 -3z m144 2 c0 -5 -4
-10 -10 -10 -5 0 -10 5 -10 10 0 6 5 10 10 10 6 0 10 -4 10 -10z m97 -5 c5 -4
2 -5 -6 0 -11 6 -13 4 -7 -10 5 -15 4 -16 -9 -5 -8 7 -15 16 -15 20 0 10 27 7
37 -5z m-294 -25 c-6 -22 -18 -26 -29 -8 -4 6 -3 8 3 5 6 -4 13 0 17 8 8 22
15 18 9 -5z m152 -10 c0 -15 -4 -27 -10 -27 -5 0 -10 12 -10 27 0 15 5 27 10
27 6 0 10 -12 10 -27z m81 13 c-3 -3 -1 -15 5 -27 9 -19 9 -19 -4 -4 -8 10
-16 15 -19 12 -3 -2 -8 2 -11 10 -4 11 -1 13 10 9 12 -5 14 -3 8 7 -6 9 -4 11
4 6 7 -5 10 -10 7 -13z m-60 -13 c0 -12 -4 -16 -9 -11 -5 5 -6 14 -3 20 10 15
12 14 12 -9z m-96 0 c0 -5 -4 -10 -10 -10 -5 0 -10 5 -10 10 0 6 5 10 10 10 6
0 10 -4 10 -10z m-120 -14 c0 -2 -7 -7 -16 -10 -8 -3 -12 -2 -9 4 6 10 25 14
25 6z m83 -13 c-5 -12 -3 -14 8 -8 8 5 11 5 6 -1 -5 -5 -12 -9 -15 -8 -4 1
-13 -6 -20 -15 -11 -14 -11 -14 -5 3 5 14 3 17 -7 11 -9 -5 -11 -4 -6 4 4 6
11 9 16 6 4 -3 10 2 14 10 3 8 8 15 10 15 3 0 2 -7 -1 -17z m-66 -7 c0 -8 -6
-12 -14 -9 -8 3 -13 0 -11 -7 2 -7 -4 -15 -12 -17 -13 -4 -13 -3 0 6 8 6 11
11 5 11 -5 0 -1 7 9 15 24 18 23 18 23 1z m143 -5 c0 -5 -10 -11 -22 -14 -21
-5 -21 -5 -6 7 10 7 14 17 10 21 -4 5 -1 5 6 1 6 -4 12 -11 12 -15z m80 -1 c0
-5 -4 -10 -10 -10 -5 0 -10 5 -10 10 0 6 5 10 10 10 6 0 10 -4 10 -10z m-46
-22 c-5 -8 -2 -9 9 -5 23 9 21 0 -2 -13 -16 -8 -19 -7 -16 8 5 23 4 22 11 22
3 0 2 -5 -2 -12z m71 -16 c-3 -3 -11 0 -18 7 -9 10 -8 11 6 5 10 -3 15 -9 12
-12z m-228 2 c-3 -3 -11 -6 -19 -8 -7 -1 -20 -6 -28 -11 -12 -7 -13 -6 -3 6 6
8 22 15 34 16 11 1 19 0 16 -3z m83 -2 c0 -5 -7 -9 -15 -9 -8 0 -12 4 -9 9 3
4 9 8 15 8 5 0 9 -4 9 -8z m-77 -33 c-4 -15 -8 -17 -14 -8 -6 11 4 28 18 29 0
0 -1 -9 -4 -21z m197 17 c0 -3 -4 -8 -10 -11 -5 -3 -10 -1 -10 4 0 6 5 11 10
11 6 0 10 -2 10 -4z m-145 -16 c-3 -5 -12 -10 -18 -10 -7 0 -6 4 3 10 19 12
23 12 15 0z m-138 -20 c-1 -11 -5 -20 -9 -20 -10 0 -10 4 -2 24 8 22 13 20 11
-4z m203 5 c0 -2 -9 -3 -19 -2 -11 0 -18 5 -15 9 4 6 34 0 34 -7z m40 -15 c0
-5 -5 -10 -11 -10 -5 0 -7 5 -4 10 3 6 8 10 11 10 2 0 4 -4 4 -10z m-90 -15
c-7 -9 -15 -13 -18 -10 -3 3 -14 -3 -24 -12 -18 -16 -18 -16 -12 2 6 14 4 16
-6 10 -8 -5 -11 -4 -7 2 4 6 18 9 32 8 14 -2 27 1 31 6 3 5 8 9 11 9 3 0 0 -7
-7 -15z m-113 -15 c-1 -11 -5 -20 -9 -20 -10 0 -10 4 -2 24 8 22 13 20 11 -4z
m126 -21 c-4 -15 -8 -17 -14 -8 -6 11 4 28 18 29 0 0 -1 -9 -4 -21z m-193 7
c0 -2 -7 -7 -16 -10 -8 -3 -12 -2 -9 4 6 10 25 14 25 6z m110 -17 c0 -3 -9 -9
-19 -12 -13 -3 -18 0 -15 7 5 13 34 18 34 5z m-130 -28 c7 -15 7 -19 -5 -17
-8 1 -18 6 -22 11 -5 4 -2 5 6 0 11 -6 13 -4 8 8 -9 23 0 21 13 -2z m164 7
c-5 -8 -2 -9 11 -4 15 5 16 4 5 -9 -17 -20 -29 -19 -25 3 5 23 4 22 11 22 3 0
2 -5 -2 -12z m-71 -28 c3 -11 1 -18 -4 -14 -5 3 -9 12 -9 20 0 20 7 17 13 -6z
m-120 -39 c3 -13 1 -18 -9 -14 -7 2 -10 11 -7 19 7 19 10 18 16 -5z m73 4 c-3
-8 0 -15 6 -15 6 0 9 -3 5 -6 -10 -11 -26 6 -20 21 3 8 7 15 10 15 3 0 3 -7
-1 -15z m48 -20 c-4 -8 -11 -12 -16 -9 -6 4 -5 10 3 15 19 12 19 11 13 -6z
m-207 -17 c-3 -8 -6 -5 -6 6 -1 11 2 17 5 13 3 -3 4 -12 1 -19z m76 -8 c10
-12 9 -12 -3 -3 -8 6 -23 9 -33 8 -9 -2 -15 0 -12 5 7 12 33 6 48 -10z m86 5
c3 -3 -7 -4 -23 -1 -16 3 -31 8 -35 11 -3 3 7 4 23 1 16 -3 31 -8 35 -11z
m-47 -25 c-2 -7 3 -10 11 -7 7 3 14 -1 14 -8 0 -10 -5 -11 -19 -4 -10 6 -16
14 -13 19 3 4 0 11 -5 13 -6 3 -5 4 2 3 7 -2 12 -9 10 -16z m-75 4 c-3 -3 -12
-4 -19 -1 -8 3 -5 6 6 6 11 1 17 -2 13 -5z m-46 -47 c-8 -8 -14 -7 -23 2 -11
10 -9 11 6 5 15 -6 17 -4 11 6 -6 9 -4 11 4 5 9 -5 10 -10 2 -18z m84 -6 c-9
-8 -36 -10 -30 -2 2 4 11 8 20 8 8 0 13 -3 10 -6z m-110 -59 c-3 -3 -11 0 -18
7 -9 10 -8 11 6 5 10 -3 15 -9 12 -12z m75 -2 c0 -5 -4 -10 -10 -10 -5 0 -10
5 -10 10 0 6 5 10 10 10 6 0 10 -4 10 -10z m-165 -70 c-3 -5 1 -10 7 -13 7 -3
3 -4 -8 -4 -15 1 -20 6 -16 16 4 10 1 12 -8 6 -8 -5 -11 -4 -6 3 4 6 13 9 21
6 8 -4 13 -10 10 -14z m-39 -36 c1 -9 0 -13 -4 -10 -3 4 -7 14 -8 22 -1 9 0
13 4 10 3 -4 7 -14 8 -22z m108 8 c3 -5 -1 -9 -9 -9 -8 0 -15 4 -15 9 0 4 4 8
9 8 6 0 12 -4 15 -8z m-75 -34 c-11 -21 -15 -22 -25 -6 -5 7 -3 8 6 3 9 -6 12
-4 8 7 -4 8 0 15 7 15 10 0 11 -5 4 -19z m45 14 c2 -4 0 -14 -6 -22 -8 -12 -9
-12 -5 2 3 9 1 19 -6 22 -9 3 -9 5 0 5 6 1 14 -3 17 -7z m-133 -84 c-10 -11
-11 -9 -5 6 6 15 4 17 -6 11 -9 -6 -11 -4 -5 4 5 9 10 10 18 2 8 -8 7 -14 -2
-23z m67 19 c8 -10 6 -13 -7 -13 -10 0 -18 6 -18 13 0 7 4 13 7 13 4 0 12 -6
18 -13z m-121 -79 c-3 -8 -6 -5 -6 6 -1 11 2 17 5 13 3 -3 4 -12 1 -19z m-25
-20 c-8 -8 -9 -4 -5 13 4 13 8 18 11 10 2 -7 -1 -18 -6 -23z m113 23 c-9 -8
-36 -10 -30 -2 2 4 11 8 20 8 8 0 13 -3 10 -6z m-61 -63 c-3 -4 -11 -8 -17 -7
-9 0 -9 2 0 5 7 3 9 13 6 22 -4 14 -3 14 5 2 6 -8 8 -18 6 -22z m-73 -1 c-7
-7 -7 -17 0 -31 9 -19 9 -19 -4 -4 -8 10 -16 15 -19 12 -3 -2 -8 2 -11 10 -4
11 -1 13 10 9 10 -4 14 -2 10 4 -3 5 1 10 9 10 10 0 11 -4 5 -10z m-44 -49 c4
-28 -6 -18 -12 12 -2 12 -1 20 2 16 4 -4 8 -16 10 -28z m-23 -14 c3 -7 -2 -10
-15 -7 -22 6 -26 20 -4 20 8 0 16 -6 19 -13z m64 -23 c-7 -9 -13 -17 -14 -19
-1 -1 -7 4 -14 13 -11 13 -10 14 5 9 11 -5 16 -4 12 3 -3 5 0 10 8 10 12 0 12
-3 3 -16z m-33 -31 c-3 -5 -12 -10 -18 -10 -7 0 -6 4 3 10 19 12 23 12 15 0z
m-118 -72 c-3 -8 -6 -5 -6 6 -1 11 2 17 5 13 3 -3 4 -12 1 -19z m73 -8 c0 -5
-4 -10 -10 -10 -5 0 -10 5 -10 10 0 6 5 10 10 10 6 0 10 -4 10 -10z m-25 -40
c-3 -5 -12 -10 -18 -10 -7 0 -6 4 3 10 19 12 23 12 15 0z m-24 -27 c13 -17 13
-17 -6 -3 -11 8 -22 16 -24 17 -2 2 0 3 6 3 6 0 17 -8 24 -17z m-76 -3 c-3 -5
-12 -10 -18 -10 -7 0 -6 4 3 10 19 12 23 12 15 0z m46 -19 c-6 -10 -8 -21 -6
-25 3 -3 2 -3 -2 0 -11 8 -10 28 2 36 15 12 17 10 6 -11z m-84 -43 c2 -18 0
-20 -7 -8 -12 18 -13 30 -2 30 4 0 9 -10 9 -22z m60 -2 c0 -8 -6 -12 -15 -9
-11 5 -11 7 0 14 7 5 13 9 14 9 0 0 1 -6 1 -14z m-97 -31 c0 -5 -5 -3 -10 5
-5 8 -10 20 -10 25 0 6 5 3 10 -5 5 -8 10 -19 10 -25z m-24 -14 c0 -14 -4 -17
-12 -11 -6 6 -13 9 -15 7 -2 -1 2 4 10 11 8 6 15 12 16 12 0 0 1 -9 1 -19z
m31 -43 c-3 -8 -6 -5 -6 6 -1 11 2 17 5 13 3 -3 4 -12 1 -19z m64 -11 c-10 -9
-11 -8 -5 6 3 10 9 15 12 12 3 -3 0 -11 -7 -18z m-135 -16 c-6 -9 -46 -22 -46
-15 0 3 10 9 23 14 29 11 29 11 23 1z m64 -16 c0 -2 -9 -3 -19 -2 -11 0 -18 5
-15 9 4 6 34 0 34 -7z m35 -15 c-3 -5 -1 -10 4 -10 6 0 11 -5 11 -12 0 -6 -3
-8 -7 -5 -3 4 -12 -1 -20 -11 -13 -15 -13 -15 -3 6 6 12 8 22 5 22 -4 0 -3 5
0 10 3 6 8 10 11 10 3 0 2 -4 -1 -10z m-85 -15 c-7 -9 -15 -13 -17 -11 -3 3
-17 0 -32 -5 -18 -7 -23 -7 -16 0 6 6 20 12 32 14 13 2 26 6 29 10 14 13 16 7
4 -8z m13 -36 c-4 -15 -8 -17 -14 -8 -6 11 4 28 18 29 0 0 -1 -9 -4 -21z m-86
-14 c0 -8 -6 -16 -13 -19 -7 -3 -10 2 -7 15 6 22 20 26 20 4z m123 -25 c-6
-11 -15 -18 -20 -15 -4 3 -11 0 -13 -5 -4 -7 -5 -6 -3 1 1 6 5 9 9 7 5 -2 13
5 18 15 14 24 22 21 9 -3z m-164 -16 c1 -9 0 -13 -4 -10 -3 4 -7 14 -8 22 -1
9 0 13 4 10 3 -4 7 -14 8 -22z m102 15 c-5 -14 -58 -22 -58 -9 0 4 11 7 25 5
14 -1 25 2 25 6 0 5 3 9 6 9 3 0 4 -5 2 -11z m73 -22 c-10 -9 -11 -8 -5 6 3
10 9 15 12 12 3 -3 0 -11 -7 -18z m-96 -46 c3 -5 2 -12 -3 -15 -5 -3 -9 1 -9
9 0 17 3 19 12 6z m79 -22 c3 -3 -4 -5 -14 -6 -11 -1 -20 2 -20 7 0 8 25 8 34
-1z m-178 -38 c0 -14 -4 -17 -12 -11 -6 6 -14 7 -17 3 -4 -3 -7 -1 -7 5 0 6 8
13 18 15 9 3 17 5 17 6 1 0 1 -8 1 -18z m21 -42 c0 -21 -3 -26 -9 -16 -4 9 -5
22 -2 31 9 23 11 20 11 -15z m137 5 c3 -8 2 -12 -4 -9 -6 3 -10 10 -10 16 0
14 7 11 14 -7z m-18 -29 c-3 -23 -12 -26 -13 -5 -1 11 2 20 7 20 4 0 7 -7 6
-15z m-223 -10 c-3 -9 -8 -14 -10 -11 -3 3 -2 9 2 15 9 16 15 13 8 -4z m81 2
c-3 -8 -11 -14 -19 -14 -21 0 -19 15 3 20 9 3 18 5 19 6 1 0 0 -5 -3 -12z
m-52 -35 c-4 -11 -1 -13 8 -7 8 5 11 4 7 -3 -8 -11 -44 -5 -53 9 -3 5 3 6 12
2 10 -4 15 -2 11 4 -3 5 0 10 7 10 8 0 12 -7 8 -15z m186 -53 c-3 -8 -7 -3
-11 10 -4 17 -3 21 5 13 5 -5 8 -16 6 -23z m-155 -3 c3 -8 0 -17 -7 -19 -10
-4 -12 1 -9 14 6 23 9 24 16 5z m-38 -15 c3 -5 0 -13 -6 -17 -7 -4 -9 -3 -5 4
3 5 0 13 -6 15 -9 4 -10 6 -1 6 6 1 14 -3 18 -8z m81 -16 c-1 -8 -5 -17 -8
-21 -5 -4 -4 16 1 34 3 9 9 -1 7 -13z m100 -4 c0 -15 -3 -17 -18 -7 -17 10
-17 11 0 18 9 3 17 7 17 7 1 1 1 -7 1 -18z m-53 -17 c-7 -3 -9 -13 -6 -22 4
-14 3 -14 -5 -2 -12 16 -7 30 11 29 9 0 9 -2 0 -5z m48 -37 c-10 -9 -11 -8 -5
6 3 10 9 15 12 12 3 -3 0 -11 -7 -18z m-175 -12 c1 -9 -4 -11 -14 -7 -10 4
-12 7 -4 10 7 2 9 9 5 15 -3 7 -2 8 2 4 5 -4 10 -14 11 -22z m-56 -15 c0 -5
-4 -10 -10 -10 -5 0 -10 5 -10 10 0 6 5 10 10 10 6 0 10 -4 10 -10z m240 -3
c0 -5 -6 -7 -12 -4 -7 2 -19 -3 -26 -12 -11 -14 -11 -14 -5 3 5 14 3 17 -7 11
-8 -5 -11 -4 -7 1 7 12 57 13 57 1z m-265 -37 c3 -5 1 -10 -4 -10 -6 0 -11 5
-11 10 0 6 2 10 4 10 3 0 8 -4 11 -10z m205 -5 c0 -1 -9 -5 -19 -8 -13 -3 -18
-1 -14 9 4 10 33 10 33 -1z m-40 -40 c0 -5 -5 -3 -10 5 -5 8 -10 20 -10 25 0
6 5 3 10 -5 5 -8 10 -19 10 -25z m90 10 c0 -12 -19 -12 -23 0 -4 9 -1 12 9 8
7 -3 14 -7 14 -8z m-161 -18 c0 -9 -2 -8 -6 1 -2 6 -10 9 -15 6 -7 -4 -8 -2
-4 5 9 13 26 5 25 -12z m-86 0 c3 -8 -1 -14 -8 -14 -7 0 -11 6 -8 14 3 7 6 13
8 13 2 0 5 -6 8 -13z m53 -26 c0 -14 -4 -17 -12 -11 -6 6 -14 7 -17 3 -4 -3
-7 -1 -7 5 0 6 8 13 18 15 9 3 17 5 17 6 1 0 1 -8 1 -18z m-93 -11 c3 -11 1
-18 -4 -14 -5 3 -9 12 -9 20 0 20 7 17 13 -6z m41 -15 c-4 -8 -11 -15 -16 -15
-6 0 -5 6 2 15 7 8 14 15 16 15 2 0 1 -7 -2 -15z m69 -10 c-3 -9 -8 -14 -10
-11 -3 3 -2 9 2 15 9 16 15 13 8 -4z m43 -10 c-1 -8 -5 -17 -8 -21 -5 -4 -4
16 1 34 3 9 9 -1 7 -13z m74 5 c8 -5 11 -10 5 -10 -5 0 -17 5 -25 10 -8 5 -10
10 -5 10 6 0 17 -5 25 -10z m-227 -31 c-4 -15 -8 -17 -14 -8 -6 11 4 28 18 29
0 0 -1 -9 -4 -21z m200 4 c-5 -12 -3 -14 7 -8 8 5 11 4 6 -3 -4 -6 -13 -9 -22
-5 -11 4 -12 9 -3 19 15 19 20 18 12 -3z m-109 -6 c-3 -8 -11 -14 -19 -14 -21
0 -19 15 3 20 9 3 18 5 19 6 1 0 0 -5 -3 -12z m29 -9 c-4 -7 -8 -19 -9 -26 -2
-8 -5 -17 -8 -20 -9 -8 -2 30 7 46 5 6 10 12 13 12 3 0 2 -6 -3 -12z m147 -2
c0 -2 -7 -7 -16 -10 -8 -3 -12 -2 -9 4 6 10 25 14 25 6z m-227 -26 c-3 -12 -8
-19 -11 -16 -5 6 5 36 12 36 2 0 2 -9 -1 -20z m122 -8 c0 -16 -5 -29 -12 -29
-6 0 -9 6 -7 14 11 36 14 43 16 43 2 0 3 -13 3 -28z m-169 -7 c1 -14 -2 -25
-6 -25 -6 0 -7 36 -1 48 4 7 6 -1 7 -23z m135 -8 c-10 -9 -11 -8 -5 6 3 10 9
15 12 12 3 -3 0 -11 -7 -18z m109 13 c0 -5 -4 -10 -10 -10 -5 0 -10 5 -10 10
0 6 5 10 10 10 6 0 10 -4 10 -10z m-122 -45 c-3 -3 -9 2 -12 12 -6 14 -5 15 5
6 7 -7 10 -15 7 -18z m99 11 c0 -9 -6 -12 -16 -8 -14 5 -14 4 -1 -14 14 -18
14 -18 -2 -5 -10 7 -18 17 -18 21 0 5 8 11 18 13 9 3 17 5 18 6 0 0 1 -5 1
-13z m60 -20 c0 -7 -6 -13 -13 -13 -7 0 -10 7 -6 15 4 11 1 13 -8 7 -8 -5 -11
-4 -6 3 8 14 33 5 33 -12z m-121 -13 c-3 -3 -1 -15 5 -27 9 -19 9 -19 -4 -4
-8 10 -16 15 -19 12 -3 -2 -8 2 -11 10 -4 11 -1 13 10 9 12 -5 14 -3 8 7 -6 9
-4 11 4 6 7 -5 10 -10 7 -13z m-39 -45 c2 -12 1 -19 -3 -16 -3 3 -6 12 -8 20
-1 7 -5 20 -10 28 -7 12 -6 13 4 3 8 -7 15 -23 17 -35z m120 27 c0 -8 -4 -12
-9 -9 -4 3 -8 9 -8 15 0 5 4 9 8 9 5 0 9 -7 9 -15z m-40 -22 c-4 -3 1 -12 11
-19 15 -12 15 -12 -5 -7 -13 3 -23 9 -23 12 0 9 11 21 18 21 3 0 2 -3 -1 -7z
m-104 -17 c4 -10 0 -12 -15 -8 -15 4 -17 7 -6 13 17 11 15 11 21 -5z m187 9
c0 -7 -30 -13 -34 -7 -3 4 4 9 15 9 10 1 19 0 19 -2z m-246 -24 c3 -5 0 -14
-8 -20 -10 -9 -15 -8 -19 3 -4 11 -1 13 10 9 11 -4 14 -2 9 5 -4 7 -5 12 -2
12 3 0 7 -4 10 -9z m122 -16 c3 -19 -10 -19 -26 0 -11 13 -10 14 5 9 14 -6 16
-4 10 7 -5 8 -4 11 0 6 5 -4 10 -14 11 -22z m94 -10 c11 -13 10 -14 -5 -9 -14
6 -16 4 -10 -6 5 -8 4 -11 -3 -6 -6 4 -9 13 -5 21 7 19 8 19 23 0z m38 -32
c-12 -16 -28 -17 -28 -3 0 6 6 9 13 8 7 -2 11 6 10 22 -2 22 -2 23 6 5 5 -12
5 -25 -1 -32z m-163 -3 c6 -1 12 -4 15 -7 3 -4 -1 -2 -9 2 -11 6 -13 4 -8 -8
4 -11 2 -14 -9 -10 -8 3 -12 8 -10 11 3 3 -2 11 -12 19 -16 13 -15 13 3 5 11
-6 25 -11 30 -12z m75 -1 c0 -4 -6 -11 -12 -15 -7 -4 -10 -4 -6 1 4 4 0 14
-10 21 -15 12 -15 12 6 7 12 -3 22 -9 22 -14z m-146 3 c3 -5 -1 -9 -9 -9 -8 0
-12 4 -9 9 3 4 7 8 9 8 2 0 6 -4 9 -8z m179 -25 c-4 -6 0 -8 10 -4 11 4 14 2
10 -8 -3 -8 -10 -12 -16 -8 -6 4 -8 0 -5 -9 4 -8 0 -15 -7 -15 -10 0 -11 5 -5
17 6 10 5 21 -1 27 -6 6 -5 10 5 10 8 0 12 -5 9 -10z m-73 -16 c0 -6 -4 -12
-8 -15 -5 -3 -9 1 -9 9 0 8 4 15 9 15 4 0 8 -4 8 -9z m-38 -30 c-4 -10 -1 -12
8 -6 8 5 11 4 6 -3 -4 -6 -13 -9 -21 -6 -8 4 -13 10 -10 14 3 5 -1 10 -7 13
-7 3 -3 4 8 4 15 -1 20 -6 16 -16z m78 -10 c0 -5 -10 -11 -22 -14 -21 -5 -21
-5 -6 7 10 7 14 17 10 21 -4 5 -1 5 6 1 6 -4 12 -11 12 -15z m99 5 c9 -10 8
-15 -2 -19 -8 -3 -13 3 -13 14 0 23 0 23 15 5z m-65 -28 c-5 -8 -1 -9 12 -4
14 5 16 4 7 -5 -13 -13 -37 -3 -28 12 4 5 8 9 11 9 3 0 2 -5 -2 -12z m-70 -16
c3 -5 -1 -9 -9 -9 -8 0 -15 4 -15 9 0 4 4 8 9 8 6 0 12 -4 15 -8z m130 0 c3
-5 -1 -9 -9 -9 -8 0 -12 4 -9 9 3 4 7 8 9 8 2 0 6 -4 9 -8z m-254 -23 c0 -5
-4 -9 -8 -9 -5 0 -9 7 -9 15 0 8 4 12 9 9 4 -3 8 -9 8 -15z m275 -8 c3 -5 2
-12 -3 -15 -5 -3 -9 1 -9 9 0 17 3 19 12 6z m-38 -40 c-10 -12 -9 -14 4 -9 9
4 16 1 16 -7 0 -10 -5 -11 -19 -4 -10 6 -16 14 -13 19 3 4 -1 10 -7 13 -7 3
-3 4 9 4 18 -1 20 -4 10 -16z m-223 -17 c3 -8 2 -12 -4 -9 -6 3 -10 10 -10 16
0 14 7 11 14 -7z m62 -20 c1 -9 0 -13 -4 -10 -3 4 -7 14 -8 22 -1 9 0 13 4 10
3 -4 7 -14 8 -22z m199 -4 c-4 -6 -2 -16 4 -23 7 -9 5 -13 -9 -13 -10 0 -17 3
-16 6 2 3 6 13 9 23 4 9 9 17 12 17 4 0 3 -5 0 -10z m-41 -60 c-6 -6 -10 -3
-10 10 0 13 4 16 10 10 7 -7 7 -13 0 -20z m-170 12 c3 -5 -1 -9 -9 -9 -8 0
-15 4 -15 9 0 4 4 8 9 8 6 0 12 -4 15 -8z m36 -2 c0 -5 -4 -10 -10 -10 -5 0
-10 5 -10 10 0 6 5 10 10 10 6 0 10 -4 10 -10z m80 -2 c0 -6 -3 -8 -7 -5 -3 4
-13 1 -22 -6 -14 -11 -14 -10 -2 6 15 20 31 22 31 5z m97 -28 c-6 -8 -12 -16
-13 -18 -1 -1 -4 5 -6 15 -4 13 0 19 13 19 14 0 16 -3 6 -16z m33 -4 c0 -2 -8
-10 -17 -17 -16 -13 -17 -12 -4 4 13 16 21 21 21 13z m-230 -10 c0 -2 -8 -10
-17 -17 -16 -13 -17 -12 -4 4 13 16 21 21 21 13z m177 -30 c0 -9 -6 -12 -16
-8 -13 5 -14 3 -4 -9 10 -12 8 -15 -10 -16 -17 -2 -19 0 -7 7 14 9 7 14 -13
11 -5 -1 -6 3 -2 9 3 6 10 8 14 6 4 -3 13 -1 21 5 8 5 15 9 16 9 0 0 1 -6 1
-14z m37 -39 c-3 -8 -11 -14 -19 -14 -21 0 -19 15 3 20 9 3 18 5 19 6 1 0 0
-5 -3 -12z m-94 -12 c0 -1 -9 -5 -19 -8 -13 -3 -18 -1 -14 9 4 10 33 10 33 -1z
m43 -25 c-6 -21 -25 -28 -20 -7 2 10 16 26 24 27 0 0 -1 -9 -4 -20z m-67 -12
c5 -7 3 -8 -6 -3 -9 6 -12 4 -8 -7 4 -8 0 -15 -7 -15 -10 0 -11 5 -4 19 11 21
15 22 25 6z m149 2 c3 -5 1 -10 -5 -10 -6 0 -8 -6 -4 -12 4 -7 3 -9 -1 -5 -12
10 -15 37 -5 37 5 0 12 -4 15 -10z m-109 -39 c0 -12 -6 -17 -18 -13 -10 2 -18
9 -18 14 0 5 4 7 9 3 5 -3 12 -1 16 5 9 14 11 13 11 -9z m64 4 c0 -11 -29 -11
-33 -1 -4 10 1 12 14 9 10 -3 19 -7 19 -8z m-116 -30 c-4 -8 -11 -15 -16 -15
-6 0 -5 6 2 15 7 8 14 15 16 15 2 0 1 -7 -2 -15z m146 0 c7 -9 8 -15 2 -15 -5
0 -12 7 -16 15 -3 8 -4 15 -2 15 2 0 9 -7 16 -15z m-66 -13 c2 -4 -4 -8 -14
-8 -10 0 -16 4 -14 8 3 4 9 8 14 8 5 0 11 -4 14 -8z m112 -35 c1 -9 -2 -17 -8
-17 -6 0 -8 6 -5 14 3 8 2 17 -4 20 -5 2 -4 3 2 2 7 -1 13 -10 15 -19z m-88 0
c14 4 14 3 2 -5 -16 -12 -30 -7 -29 11 0 9 2 9 5 0 3 -7 13 -9 22 -6z m-68 -1
c0 -2 -7 -7 -16 -10 -8 -3 -12 -2 -9 4 6 10 25 14 25 6z m37 -23 c-4 -3 -1
-13 6 -22 11 -14 10 -14 -5 -2 -21 15 -23 31 -6 31 6 0 8 -3 5 -7z m140 -35
c4 -28 -6 -18 -12 12 -2 12 -1 20 2 16 4 -4 8 -16 10 -28z m-61 -3 c1 -8 -2
-15 -6 -15 -5 0 -8 9 -7 20 1 21 10 18 13 -5z m-81 -15 c-3 -5 -12 -10 -18
-10 -7 0 -6 4 3 10 19 12 23 12 15 0z m125 -11 c0 -3 -9 -9 -19 -12 -13 -3
-18 0 -15 7 5 13 34 18 34 5z m29 -23 c10 -12 8 -17 -7 -25 -14 -7 -19 -7 -19
4 0 8 7 11 16 7 14 -5 14 -3 2 11 -7 9 -11 17 -8 17 2 0 10 -6 16 -14z m-92
-18 c-3 -8 -6 -5 -6 6 -1 11 2 17 5 13 3 -3 4 -12 1 -19z m33 -3 c11 -13 10
-14 -4 -9 -9 3 -16 10 -16 15 0 13 6 11 20 -6z m32 -43 c4 -12 -1 -18 -13 -18
-12 0 -15 4 -9 12 6 6 7 14 3 17 -3 4 -2 7 4 7 6 0 13 -8 15 -18z m49 -25
c-10 -9 -11 -8 -5 6 3 10 9 15 12 12 3 -3 0 -11 -7 -18z m6 -42 c0 -8 -5 -11
-10 -8 -6 4 -8 0 -5 -9 4 -8 0 -15 -8 -15 -7 0 -10 5 -7 10 4 7 -1 8 -13 3
-23 -9 -12 3 18 20 13 6 23 12 24 13 0 1 1 -6 1 -14z m13 -45 c-8 -5 -19 -10
-25 -10 -5 0 -3 5 5 10 8 5 20 10 25 10 6 0 3 -5 -5 -10z m23 -95 c-3 -9 -8
-14 -10 -11 -3 3 -2 9 2 15 9 16 15 13 8 -4z m37 -5 c-8 -5 -19 -10 -25 -10
-5 0 -3 5 5 10 8 5 20 10 25 10 6 0 3 -5 -5 -10z m30 -24 c0 -2 -6 -9 -14 -15
-11 -9 -16 -9 -22 0 -4 7 -3 9 4 5 6 -3 13 -2 17 4 6 10 15 14 15 6z m650
-972 c0 -8 -19 -13 -24 -6 -3 5 1 9 9 9 8 0 15 -2 15 -3z m70 -84 c0 -5 -4
-10 -10 -10 -5 0 -10 5 -10 10 0 6 5 10 10 10 6 0 10 -4 10 -10z m70 -60 c8
-5 11 -10 5 -10 -5 0 -17 5 -25 10 -8 5 -10 10 -5 10 6 0 17 -5 25 -10z m-27
-27 c-3 -7 -6 -13 -8 -13 -2 0 -5 6 -8 13 -3 8 1 14 8 14 7 0 11 -6 8 -14z m2
-33 c3 -6 -1 -7 -9 -4 -18 7 -21 14 -7 14 6 0 13 -4 16 -10z m49 -13 c-3 -8
-11 -14 -19 -14 -21 0 -19 15 3 20 9 3 18 5 19 6 1 0 0 -5 -3 -12z m-53 -36
c-6 -10 -7 -22 -3 -26 4 -5 1 -5 -6 -1 -9 5 -9 12 -2 27 6 10 13 19 16 19 2 0
0 -8 -5 -19z m79 10 c0 -5 -8 -15 -17 -22 -16 -12 -17 -12 -6 2 7 9 10 19 6
22 -3 4 -1 7 5 7 7 0 12 -4 12 -9z m98 -32 c3 -11 1 -11 -7 1 -10 14 -16 7
-11 -15 1 -5 -2 -6 -6 -2 -4 4 -9 14 -10 21 -3 18 29 13 34 -5z m-124 -29 c-6
-6 -15 -5 -24 1 -13 9 -12 10 3 5 9 -3 17 0 17 6 0 6 3 8 7 5 4 -4 2 -12 -3
-17z m149 -14 c4 -10 1 -13 -8 -9 -8 3 -12 9 -9 14 7 12 11 11 17 -5z m-118
-26 c3 -6 -1 -7 -9 -4 -18 7 -21 14 -7 14 6 0 13 -4 16 -10z m190 0 c3 -5 1
-10 -4 -10 -6 0 -11 5 -11 10 0 6 2 10 4 10 3 0 8 -4 11 -10z m-220 -10 c3 -6
-1 -7 -9 -4 -18 7 -21 14 -7 14 6 0 13 -4 16 -10z m202 -25 c0 -8 -5 -11 -10
-8 -6 4 -8 0 -5 -9 4 -8 0 -15 -7 -15 -17 0 -15 18 5 34 8 7 15 13 16 13 0 0
1 -7 1 -15z m62 -1 c5 4 13 2 16 -4 4 -6 3 -10 -2 -9 -20 3 -27 -2 -13 -11 12
-7 10 -9 -7 -8 -14 2 -19 7 -15 17 3 8 1 12 -5 8 -5 -3 -10 0 -10 8 0 11 4 12
13 4 7 -6 18 -8 23 -5z m-248 -37 c-10 -9 -11 -8 -5 6 3 10 9 15 12 12 3 -3 0
-11 -7 -18z m293 15 c3 -5 -1 -9 -9 -9 -8 0 -12 4 -9 9 3 4 7 8 9 8 2 0 6 -4
9 -8z m-248 -27 c-1 -8 -5 -17 -8 -21 -5 -4 -4 16 1 34 3 9 9 -1 7 -13z m169
5 c3 -6 -1 -7 -9 -4 -18 7 -21 14 -7 14 6 0 13 -4 16 -10z m-12 -36 c-7 -19
-10 -18 -16 5 -3 13 -1 18 9 14 7 -2 10 -11 7 -19z m-113 2 c0 -3 -4 -8 -10
-11 -5 -3 -10 -1 -10 4 0 6 5 11 10 11 6 0 10 -2 10 -4z m293 -10 c4 -10 0
-12 -15 -8 -15 4 -17 7 -6 13 17 11 15 11 21 -5z m-56 -25 c-10 -12 -9 -14 4
-9 9 4 16 1 16 -8 0 -9 -5 -10 -15 -5 -20 11 -24 38 -6 38 11 0 11 -3 1 -16z
m-280 3 c-3 -4 -2 -14 3 -24 6 -12 5 -17 -5 -17 -7 0 -11 6 -8 14 3 7 -1 13
-8 13 -11 0 -11 3 1 10 17 11 26 13 17 4z m378 -3 c3 -5 2 -12 -3 -15 -5 -3
-9 1 -9 9 0 17 3 19 12 6z m-239 -13 c5 -7 3 -8 -6 -3 -10 6 -12 4 -6 -10 5
-15 4 -16 -9 -5 -13 11 -13 15 -3 21 17 11 16 11 24 -3z m214 3 c0 -5 -7 -12
-16 -15 -14 -5 -15 -4 -4 9 14 17 20 19 20 6z m-270 -27 c-6 -6 -7 -14 -3 -17
3 -4 2 -7 -4 -7 -6 0 -13 8 -15 18 -4 12 1 18 13 18 12 0 15 -4 9 -12z m94
-20 c3 -7 -2 -10 -15 -7 -22 6 -26 20 -4 20 8 0 16 -6 19 -13z m143 9 c-4 -3
-3 -11 3 -17 6 -8 3 -12 -9 -12 -12 0 -17 6 -13 18 2 10 9 18 15 18 6 0 7 -3
4 -7z m80 -8 c0 -8 -6 -16 -13 -19 -7 -3 -10 2 -7 15 6 22 20 26 20 4z m101
-20 c-3 -3 -9 2 -12 12 -6 14 -5 15 5 6 7 -7 10 -15 7 -18z m-465 2 c-4 -6 0
-8 9 -5 8 4 15 1 15 -6 0 -18 -23 -15 -35 4 -7 12 -7 17 4 17 7 0 10 -5 7 -10z
m80 -13 c-4 -11 -9 -12 -19 -3 -19 15 -18 20 3 12 12 -5 14 -3 8 7 -5 8 -4 11
3 6 6 -4 9 -13 5 -22z m78 3 c-10 -9 -11 -8 -5 6 3 10 9 15 12 12 3 -3 0 -11
-7 -18z m-45 -9 c4 -7 3 -8 -4 -4 -7 4 -12 2 -12 -5 0 -7 -3 -10 -6 -6 -6 5 3
27 11 27 2 0 7 -5 11 -12z m134 2 c0 -5 -2 -10 -4 -10 -3 0 -8 5 -11 10 -3 6
-1 10 4 10 6 0 11 -4 11 -10z m80 1 c0 -6 -4 -12 -8 -15 -5 -3 -9 1 -9 9 0 8
4 15 9 15 4 0 8 -4 8 -9z m90 4 c0 -2 -6 -8 -13 -14 -10 -8 -14 -7 -14 2 0 8
6 14 14 14 7 0 13 -1 13 -2z m35 -5 c3 -6 -1 -7 -9 -4 -18 7 -21 14 -7 14 6 0
13 -4 16 -10z m-82 -31 c-4 -15 -8 -17 -14 -8 -6 11 4 28 18 29 0 0 -1 -9 -4
-21z m74 -4 c0 -22 -14 -18 -20 4 -3 13 0 18 7 15 7 -3 13 -11 13 -19z m82 9
c-5 -6 -7 -19 -3 -28 4 -10 1 -16 -7 -16 -7 0 -10 3 -6 6 3 3 2 16 -3 28 -6
17 -4 22 11 22 12 0 15 -4 8 -12z m-460 -27 c0 -9 -2 -9 -5 0 -3 7 -13 9 -22
6 -14 -4 -14 -3 -2 5 16 12 30 7 29 -11z m177 -12 c1 -9 -4 -11 -14 -7 -10 4
-12 7 -4 10 7 2 9 9 5 15 -3 7 -2 8 2 4 5 -4 10 -14 11 -22z m181 -10 c0 -8
-5 -11 -10 -8 -6 4 -8 0 -5 -8 4 -10 -1 -15 -12 -15 -11 0 -16 5 -12 15 4 10
1 12 -8 6 -8 -5 -11 -4 -6 3 4 6 13 9 20 6 8 -3 17 -1 21 5 9 15 12 14 12 -4z
m64 -2 c3 1 1 -2 -3 -8 -5 -5 -15 -2 -26 9 -16 18 -16 18 4 8 12 -6 23 -10 25
-9z m-365 -9 c-1 -8 -6 -17 -11 -21 -4 -5 -5 -2 0 6 6 11 4 13 -8 8 -10 -4
-14 -2 -11 7 6 17 32 16 30 0z m74 6 c8 -5 11 -10 5 -10 -5 0 -17 5 -25 10 -8
5 -10 10 -5 10 6 0 17 -5 25 -10z m387 -4 c0 -8 -8 -11 -21 -8 -19 5 -19 6 0
13 10 4 19 8 20 8 0 1 1 -5 1 -13z m74 -3 c13 -15 12 -15 -7 -5 -16 8 -24 8
-34 -1 -12 -10 -12 -9 -1 6 17 21 25 21 42 0z m-488 -20 c-5 -12 -3 -14 8 -8
8 5 11 4 6 0 -10 -11 -37 -15 -37 -6 0 7 21 31 27 31 1 0 -1 -7 -4 -17z m293
-12 c0 -14 -4 -17 -12 -11 -6 6 -14 7 -17 3 -4 -3 -7 -1 -7 5 0 6 8 13 18 15
9 3 17 5 17 6 1 0 1 -8 1 -18z m101 13 c-3 -3 -12 -4 -19 -1 -8 3 -5 6 6 6 11
1 17 -2 13 -5z m119 -18 c0 -14 -3 -23 -7 -20 -6 3 -6 22 0 42 3 10 7 -2 7
-22z m-623 0 c4 -10 1 -13 -8 -9 -8 3 -12 9 -9 14 7 12 11 11 17 -5z m188 -14
c-6 -2 -8 -9 -5 -14 4 -7 2 -8 -5 -4 -6 4 -8 12 -5 18 5 7 2 9 -8 6 -8 -4 -15
-1 -15 7 0 10 6 11 25 2 13 -6 19 -13 13 -15z m119 17 c0 -3 -9 -9 -19 -12
-13 -3 -18 0 -15 7 5 13 34 18 34 5z m243 -8 c3 -13 0 -18 -7 -15 -7 3 -13 11
-13 19 0 22 14 18 20 -4z m-481 -18 c-6 -9 -17 -18 -26 -19 -9 -1 -14 2 -10 7
3 5 9 7 14 4 4 -3 10 2 14 10 3 8 8 15 11 15 3 0 2 -8 -3 -17z m192 1 c3 -8 2
-12 -4 -9 -6 3 -10 10 -10 16 0 14 7 11 14 -7z m89 -5 c-4 -15 -8 -17 -14 -8
-6 11 4 28 18 29 0 0 -1 -9 -4 -21z m152 -10 c-4 -5 0 -9 7 -10 10 0 10 -2 0
-6 -6 -2 -9 -10 -5 -16 3 -7 2 -8 -3 -4 -11 10 -14 58 -2 51 4 -3 6 -10 3 -15z
m-358 4 c-4 -3 -2 -11 3 -18 7 -8 5 -12 -5 -12 -8 0 -11 5 -8 10 4 7 -1 8 -12
3 -15 -5 -16 -4 -5 9 7 8 17 15 23 15 6 0 7 -3 4 -7z m182 -16 c0 -9 -2 -8 -6
1 -2 6 -10 9 -15 6 -7 -4 -8 -2 -4 5 9 13 26 5 25 -12z m83 -9 c-8 -8 -9 -4
-5 13 4 13 8 18 11 10 2 -7 -1 -18 -6 -23z m193 23 c-3 -2 -17 -6 -32 -7 -20
-2 -23 0 -14 6 15 8 54 10 46 1z m-495 -46 c0 -5 -5 -3 -10 5 -5 8 -10 20 -10
25 0 6 5 3 10 -5 5 -8 10 -19 10 -25z m75 5 c3 -5 1 -10 -4 -10 -6 0 -11 5
-11 10 0 6 2 10 4 10 3 0 8 -4 11 -10z m205 -1 c0 -3 -9 -9 -19 -12 -13 -3
-18 0 -15 7 5 13 34 18 34 5z m73 -3 c3 -8 0 -17 -7 -19 -10 -4 -12 1 -9 14 6
23 9 24 16 5z m-313 -21 c-5 -7 -7 -15 -3 -18 3 -4 2 -7 -4 -7 -6 0 -16 7 -23
15 -11 13 -10 14 5 9 11 -5 16 -4 12 3 -3 5 0 10 8 10 10 0 12 -4 5 -12z m400
11 c0 -3 -4 -8 -10 -11 -5 -3 -10 -1 -10 4 0 6 5 11 10 11 6 0 10 -2 10 -4z
m-202 -31 c-3 -3 -9 2 -12 12 -6 14 -5 15 5 6 7 -7 10 -15 7 -18z m-108 5 c-8
-5 -19 -10 -25 -10 -5 0 -3 5 5 10 8 5 20 10 25 10 6 0 3 -5 -5 -10z m66 -16
c1 -9 0 -13 -4 -10 -3 4 -7 14 -8 22 -1 9 0 13 4 10 3 -4 7 -14 8 -22z m124
12 c0 -2 -7 -9 -15 -16 -13 -11 -14 -10 -9 4 5 14 24 23 24 12z m-248 -23 c1
-4 8 -14 17 -21 14 -11 14 -11 -3 -5 -14 5 -17 3 -11 -7 5 -9 4 -11 -4 -6 -6
4 -8 12 -5 18 5 7 2 9 -8 6 -8 -4 -15 -1 -15 7 0 8 7 11 15 7 11 -4 13 -1 7 9
-4 8 -5 11 -1 7 4 -3 8 -10 8 -15z m77 3 c9 -10 8 -15 -3 -19 -9 -4 -18 -1
-22 5 -5 7 -2 8 6 3 10 -6 12 -4 7 8 -8 21 -3 22 12 3z m214 -7 c-4 -15 -8
-17 -14 -8 -6 11 4 28 18 29 0 0 -1 -9 -4 -21z m-358 -9 c6 -1 12 -4 15 -7 3
-4 -1 -2 -9 2 -11 6 -13 4 -8 -8 4 -11 2 -14 -8 -10 -8 3 -12 10 -8 16 4 6 0
8 -9 5 -8 -4 -15 0 -15 7 0 10 5 11 16 5 9 -4 21 -9 26 -10z m268 7 c4 3 7 2
7 -4 0 -6 -8 -13 -18 -15 -12 -4 -18 1 -18 13 0 12 4 15 12 9 6 -6 14 -7 17
-3z m-81 -50 c3 -13 0 -24 -6 -24 -6 0 -11 13 -11 28 0 32 11 29 17 -4z m120
14 c-5 -14 -3 -14 11 -2 9 7 17 11 17 8 0 -2 -6 -10 -14 -16 -12 -10 -17 -8
-25 7 -7 14 -7 19 4 19 8 0 11 -7 7 -16z m-74 -16 c-3 -3 -9 2 -12 12 -6 14
-5 15 5 6 7 -7 10 -15 7 -18z m-243 -3 c-3 -3 -11 0 -18 7 -9 10 -8 11 6 5 10
-3 15 -9 12 -12z m45 14 c0 -2 -7 -7 -16 -10 -8 -3 -12 -2 -9 4 6 10 25 14 25
6z m31 -13 c13 -16 12 -17 -3 -4 -17 13 -22 21 -14 21 2 0 10 -8 17 -17z m49
7 c0 -5 -4 -10 -10 -10 -5 0 -10 5 -10 10 0 6 5 10 10 10 6 0 10 -4 10 -10z
m94 -6 c3 -8 2 -12 -4 -9 -6 3 -10 10 -10 16 0 14 7 11 14 -7z m86 -19 c0 -5
-5 -3 -10 5 -5 8 -10 20 -10 25 0 6 5 3 10 -5 5 -8 10 -19 10 -25z m823 12 c3
-8 -1 -14 -8 -14 -7 0 -11 6 -8 14 3 7 6 13 8 13 2 0 5 -6 8 -13z m-1080 -18
c-4 -15 -8 -17 -14 -8 -6 11 4 28 18 29 0 0 -1 -9 -4 -21z m1117 11 c0 -5 -5
-10 -11 -10 -5 0 -7 5 -4 10 3 6 8 10 11 10 2 0 4 -4 4 -10z m-1000 -20 c0 -4
-8 -14 -17 -21 -17 -13 -17 -13 -3 5 13 18 13 19 -1 14 -9 -4 -16 -1 -16 7 0
7 8 10 19 7 10 -2 18 -8 18 -12z m118 6 c-2 -1 -10 -7 -18 -13 -13 -10 -16 -8
-16 6 0 13 6 17 19 13 10 -2 16 -5 15 -6z m919 -13 c1 -22 -1 -24 -8 -10 -6 9
-7 22 -4 27 9 14 10 13 12 -17z m-1101 5 c5 -7 3 -8 -6 -3 -10 6 -12 4 -6 -11
5 -14 4 -16 -5 -7 -6 6 -8 16 -5 22 9 14 13 14 22 -1z m98 -20 c-5 -7 -2 -9 8
-6 15 6 19 -25 4 -39 -4 -5 -7 -3 -6 2 5 24 -1 27 -16 9 -14 -18 -15 -18 -4 4
6 12 8 22 5 22 -4 0 -3 5 0 10 3 6 8 10 11 10 3 0 2 -5 -2 -12z m960 0 c-5 -7
-2 -9 9 -5 11 4 14 2 10 -9 -3 -8 -8 -12 -11 -10 -3 3 -11 -2 -19 -12 -13 -15
-13 -15 -3 6 6 12 8 22 5 22 -4 0 -3 5 0 10 3 6 8 10 11 10 3 0 2 -5 -2 -12z
m130 3 c4 -5 -3 -7 -14 -4 -23 6 -26 13 -6 13 8 0 17 -4 20 -9z m-1200 -34 c4
4 4 -1 0 -11 -6 -15 -4 -17 7 -11 8 5 11 4 6 0 -14 -16 -36 -14 -30 3 4 10 2
13 -5 8 -8 -5 -10 -1 -5 10 5 13 3 15 -7 9 -9 -6 -11 -4 -5 5 6 10 11 10 20
-3 7 -9 15 -14 19 -10z m36 13 c0 -5 -4 -10 -10 -10 -5 0 -10 5 -10 10 0 6 5
10 10 10 6 0 10 -4 10 -10z m984 -2 c-4 -5 -9 -7 -12 -4 -3 3 -12 0 -21 -7
-14 -10 -14 -10 -4 4 13 16 46 23 37 7z m236 2 c0 -5 -4 -10 -10 -10 -5 0 -10
5 -10 10 0 6 5 10 10 10 6 0 10 -4 10 -10z m-1160 -49 c3 -2 -2 -1 -10 1 -8 3
-22 2 -31 -3 -10 -5 -16 -3 -16 6 0 8 7 11 16 7 14 -5 14 -4 1 14 -14 18 -14
18 10 -1 14 -11 27 -22 30 -24z m879 -1 c0 -10 -3 -8 -9 5 -12 27 -12 43 0 25
5 -8 9 -22 9 -30z m61 11 c0 -5 -10 -11 -22 -14 -21 -5 -21 -5 -6 7 10 7 14
17 10 21 -4 5 -1 5 6 1 6 -4 12 -11 12 -15z m294 5 c-3 -9 -12 -12 -22 -9 -15
6 -9 11 25 22 1 1 0 -5 -3 -13z m56 -1 c0 -12 -19 -12 -23 0 -4 9 -1 12 9 8 7
-3 14 -7 14 -8z m151 -2 c8 -9 9 -14 2 -10 -6 4 -13 1 -16 -5 -3 -7 -4 -3 -4
10 1 26 1 26 18 5z m-610 -20 c-12 -20 -14 -14 -5 12 4 9 9 14 11 11 3 -2 0
-13 -6 -23z m189 -8 c0 -5 -5 -3 -10 5 -5 8 -10 20 -10 25 0 6 5 3 10 -5 5 -8
10 -19 10 -25z m379 12 c0 -9 -2 -9 -5 0 -3 7 -13 9 -22 6 -14 -4 -14 -3 -2 5
16 12 30 7 29 -11z m81 13 c0 -5 -5 -10 -11 -10 -5 0 -7 5 -4 10 3 6 8 10 11
10 2 0 4 -4 4 -10z m54 2 c2 -4 -5 -9 -17 -9 -17 -2 -19 0 -7 7 18 12 18 12
24 2z m-349 -20 c-3 -3 -11 0 -18 7 -9 10 -8 11 6 5 10 -3 15 -9 12 -12z m912
3 c0 -8 -4 -15 -9 -15 -10 0 -11 14 -1 23 9 10 10 9 10 -8z m-1123 -7 c-5 -7
-2 -9 8 -6 8 4 15 1 15 -7 0 -8 -7 -11 -16 -7 -13 5 -14 3 -4 -9 10 -13 10
-16 -2 -16 -8 0 -11 5 -8 10 4 7 -1 8 -13 4 -18 -7 -18 -7 0 8 11 8 16 15 12
15 -4 0 -4 5 -1 10 3 6 8 10 11 10 3 0 2 -5 -2 -12z m363 -12 c0 -15 -21 -15
-34 -1 -5 4 -2 5 6 0 11 -6 13 -4 8 8 -4 10 -2 14 7 11 7 -3 13 -11 13 -18z
m354 7 c13 -16 12 -17 -3 -4 -10 7 -18 15 -18 17 0 8 8 3 21 -13z m74 7 c3 -6
-1 -7 -9 -4 -18 7 -21 14 -7 14 6 0 13 -4 16 -10z m109 -2 c-5 -7 -2 -9 9 -5
11 4 14 2 10 -9 -4 -11 -9 -12 -19 -3 -12 10 -11 29 2 29 3 0 2 -5 -2 -12z
m153 6 c-3 -3 -12 -4 -19 -1 -8 3 -5 6 6 6 11 1 17 -2 13 -5z m-1167 -8 c0 -2
-8 -10 -17 -17 -16 -13 -17 -12 -4 4 13 16 21 21 21 13z m960 -11 c5 3 12 0
16 -6 5 -8 3 -9 -6 -4 -9 6 -12 4 -8 -7 4 -8 1 -15 -7 -15 -8 0 -11 7 -7 16 5
14 4 14 -13 1 -17 -14 -17 -14 -4 8 8 12 15 18 17 12 2 -6 8 -8 12 -5z m137
-7 c-3 -8 -6 -5 -6 6 -1 11 2 17 5 13 3 -3 4 -12 1 -19z m-2013 4 c3 -5 -1 -9
-9 -9 -8 0 -15 4 -15 9 0 4 4 8 9 8 6 0 12 -4 15 -8z m975 -15 c0 -9 -2 -8 -6
1 -2 6 -10 9 -15 6 -7 -4 -8 -2 -4 5 9 13 26 5 25 -12z m275 11 c-3 -4 -11 -5
-19 -1 -21 7 -19 12 4 10 11 0 18 -5 15 -9z m66 8 c0 -3 -4 -8 -10 -11 -5 -3
-10 -1 -10 4 0 6 5 11 10 11 6 0 10 -2 10 -4z m144 -4 c3 -5 -1 -9 -9 -9 -8 0
-12 4 -9 9 3 4 7 8 9 8 2 0 6 -4 9 -8z m256 -2 c0 -5 -5 -10 -11 -10 -5 0 -7
5 -4 10 3 6 8 10 11 10 2 0 4 -4 4 -10z m93 -4 c4 -11 1 -13 -10 -9 -12 5 -14
3 -8 -7 5 -9 4 -11 -4 -6 -9 6 -9 11 0 22 14 17 16 17 22 0z m183 -1 c-1 -8
-6 -18 -11 -22 -4 -5 -5 -2 0 6 6 11 4 13 -11 8 -18 -7 -18 -7 0 8 24 18 25
18 22 0z m86 4 c2 -2 1 -3 -1 -2 -2 2 -10 -5 -18 -15 -12 -16 -13 -16 -6 2 5
14 3 17 -7 11 -8 -5 -11 -4 -7 3 7 10 33 11 39 1z m33 2 c3 -5 2 -12 -3 -15
-5 -3 -9 1 -9 9 0 17 3 19 12 6z m-1002 -14 c3 -8 -1 -14 -8 -14 -7 0 -11 6
-8 14 3 7 6 13 8 13 2 0 5 -6 8 -13z m-1116 -13 c-3 -3 -12 -4 -19 -1 -8 3 -5
6 6 6 11 1 17 -2 13 -5z m919 -19 c-1 -8 -6 -18 -11 -22 -4 -5 -5 -2 0 6 6 11
4 13 -11 8 -18 -7 -18 -6 -2 6 10 8 14 18 10 22 -4 5 -2 5 5 2 6 -4 10 -14 9
-22z m844 10 c0 -11 -29 -11 -33 -1 -4 10 1 12 14 9 10 -3 19 -7 19 -8z m198
-10 c-3 -3 -9 2 -12 12 -6 14 -5 15 5 6 7 -7 10 -15 7 -18z m202 10 c0 -11
-29 -11 -33 -1 -4 10 1 12 14 9 10 -3 19 -7 19 -8z m-1295 -5 c3 -6 -1 -7 -9
-4 -18 7 -21 14 -7 14 6 0 13 -4 16 -10z m135 -2 c0 -4 -4 -8 -9 -8 -6 0 -12
4 -15 8 -3 5 1 9 9 9 8 0 15 -4 15 -9z m80 2 c0 -5 -4 -10 -10 -10 -5 0 -10 5
-10 10 0 6 5 10 10 10 6 0 10 -4 10 -10z m80 -25 c0 -5 -5 -3 -10 5 -5 8 -10
20 -10 25 0 6 5 3 10 -5 5 -8 10 -19 10 -25z m280 18 c0 -3 -7 -3 -15 1 -8 3
-15 0 -15 -6 0 -6 -3 -9 -6 -5 -11 10 6 26 21 20 8 -3 15 -7 15 -10z m253 3
c4 -10 0 -12 -15 -8 -15 4 -17 7 -6 13 17 11 15 11 21 -5z m150 -5 c3 -13 0
-18 -7 -15 -7 3 -13 11 -13 19 0 22 14 18 20 -4z m90 5 c4 -10 0 -12 -15 -8
-15 4 -17 7 -6 13 17 11 15 11 21 -5z m107 4 c0 -5 -4 -10 -10 -10 -5 0 -10 5
-10 10 0 6 5 10 10 10 6 0 10 -4 10 -10z m74 -6 c3 -8 2 -12 -4 -9 -6 3 -10
10 -10 16 0 14 7 11 14 -7z m-1074 -19 c-5 -7 -7 -15 -3 -18 3 -4 2 -7 -4 -7
-6 0 -16 7 -23 15 -11 13 -10 14 5 9 11 -5 16 -4 12 3 -3 5 0 10 8 10 10 0 12
-4 5 -12z m74 3 c-5 -8 -2 -9 11 -4 15 5 16 4 5 -9 -17 -20 -29 -19 -25 3 5
23 4 22 11 22 3 0 2 -5 -2 -12z m676 -3 c7 -9 8 -15 2 -15 -5 0 -12 7 -16 15
-3 8 -4 15 -2 15 2 0 9 -7 16 -15z m212 -7 c-2 -10 -6 -18 -7 -18 -1 0 -5 8
-7 18 -3 11 0 19 7 19 7 0 10 -8 7 -19z m72 10 c-5 -8 -1 -9 12 -4 14 5 16 4
7 -5 -13 -13 -37 -3 -28 12 4 5 8 9 11 9 3 0 2 -5 -2 -12z m-1252 -12 c7 4 8
2 4 -5 -9 -13 -26 -5 -25 12 0 9 2 8 6 -1 2 -6 10 -9 15 -6z m54 -11 c-1 -8
-6 -18 -11 -22 -4 -5 -5 -2 0 6 6 10 4 13 -7 9 -8 -4 -15 -1 -15 7 0 8 7 11
15 7 11 -4 13 -1 7 8 -5 8 -4 11 3 7 5 -4 9 -14 8 -22z m1001 18 c-4 -3 1 -12
11 -20 16 -13 15 -13 -3 -5 -11 5 -27 7 -35 5 -9 -3 -7 1 5 11 20 15 34 22 22
9z m99 -18 c2 -11 -2 -12 -15 -5 -12 6 -22 5 -31 -3 -12 -10 -12 -9 -1 5 7 10
19 14 28 11 12 -5 14 -3 8 8 -5 8 -4 11 0 6 5 -4 10 -14 11 -22z m-1012 3 c-3
-4 -9 -8 -15 -8 -5 0 -9 4 -9 8 0 5 7 9 15 9 8 0 12 -4 9 -9z m602 0 c-9 -5
-23 -5 -32 0 -12 6 -7 9 16 9 23 0 28 -3 16 -9z m160 0 c3 -4 -1 -5 -10 -4 -8
1 -18 5 -22 8 -3 4 1 5 10 4 8 -1 18 -5 22 -8z m-246 -2 c0 -2 -7 -9 -15 -16
-13 -11 -14 -10 -9 4 5 14 24 23 24 12z m164 -12 c5 -14 4 -15 -9 -4 -17 14
-19 20 -6 20 5 0 12 -7 15 -16z m-121 -14 c-6 -21 -25 -28 -20 -7 2 10 16 26
24 27 0 0 -1 -9 -4 -20z m77 4 c-6 -6 -7 -14 -3 -17 3 -4 2 -7 -4 -7 -6 0 -13
8 -15 18 -4 12 1 18 13 18 12 0 15 -4 9 -12z m450 6 c8 -5 11 -10 5 -10 -5 0
-17 5 -25 10 -8 5 -10 10 -5 10 6 0 17 -5 25 -10z m-1045 -20 c6 -1 12 -4 15
-7 3 -4 -1 -2 -9 2 -11 6 -13 4 -8 -8 4 -11 2 -14 -9 -10 -8 3 -12 8 -10 11 3
3 -2 11 -12 19 -16 13 -15 13 3 5 11 -6 25 -11 30 -12z m89 9 c-7 -12 -51 -16
-51 -5 0 6 13 11 28 11 15 0 25 -3 23 -6z m654 -2 c14 4 14 3 2 -5 -16 -12
-30 -7 -29 11 0 9 2 9 5 0 3 -7 13 -9 22 -6z m-911 -17 c-1 -11 -5 -20 -9 -20
-10 0 -10 4 -2 24 8 22 13 20 11 -4z m100 5 c5 -4 2 -5 -6 0 -11 6 -13 4 -7
-10 5 -15 4 -16 -9 -5 -8 7 -15 16 -15 20 0 10 27 7 37 -5z m220 -1 c0 -7 -6
-15 -13 -18 -9 -3 -11 1 -7 11 5 12 3 14 -7 8 -8 -5 -11 -4 -7 2 9 14 34 12
34 -3z m283 1 c0 -1 -9 -5 -19 -8 -13 -3 -18 -1 -14 9 4 10 33 10 33 -1z m254
-1 c3 -7 -2 -10 -15 -7 -22 6 -26 20 -4 20 8 0 16 -6 19 -13z m229 -3 c3 -13
0 -18 -7 -15 -7 3 -13 11 -13 19 0 22 14 18 20 -4z m70 5 c3 -8 0 -17 -7 -19
-10 -4 -12 1 -9 14 6 23 9 24 16 5z m-1113 -26 c-6 -10 -5 -21 1 -27 6 -6 5
-10 -5 -10 -8 0 -12 5 -9 10 4 6 0 8 -10 4 -11 -4 -14 -2 -10 8 3 8 10 12 16
8 6 -4 8 0 5 9 -4 8 0 15 7 15 10 0 11 -5 5 -17z m514 4 c3 -8 2 -12 -4 -9 -6
3 -10 10 -10 16 0 14 7 11 14 -7z m80 4 c-5 -7 -2 -9 9 -5 11 4 14 2 10 -9 -4
-11 -9 -12 -19 -3 -12 10 -11 29 2 29 3 0 2 -5 -2 -12z m157 -11 c-8 -8 -14
-7 -23 2 -11 10 -9 11 6 5 15 -6 17 -4 11 6 -6 9 -4 11 4 5 9 -5 10 -10 2 -18z
m-659 -2 c3 3 11 -3 19 -12 12 -16 12 -17 -2 -6 -9 7 -18 11 -21 8 -3 -3 -11
3 -19 12 -12 16 -12 17 2 6 9 -7 18 -11 21 -8z m224 0 c-1 -8 -5 -17 -8 -21
-5 -4 -4 16 1 34 3 9 9 -1 7 -13z m41 9 c-3 -3 -12 -4 -19 -1 -8 3 -5 6 6 6
11 1 17 -2 13 -5z m298 -3 c3 -5 2 -12 -3 -15 -5 -3 -9 1 -9 9 0 17 3 19 12 6z
m42 2 c-4 -3 1 -11 10 -18 13 -9 13 -14 3 -20 -9 -6 -11 -4 -5 5 6 10 4 12 -9
7 -10 -4 -15 -3 -11 3 3 6 0 10 -7 10 -9 0 -9 3 2 10 17 11 26 13 17 3z m-502
-21 c11 -6 15 -12 8 -12 -6 0 -15 5 -18 10 -4 6 -10 8 -14 6 -4 -3 -13 0 -21
5 -23 14 20 6 45 -9z m279 2 c3 -8 0 -16 -6 -20 -7 -5 -8 -2 -3 6 6 9 4 12 -7
8 -8 -4 -15 -1 -15 6 0 17 25 16 31 0z m371 6 c3 -6 -1 -7 -9 -4 -18 7 -21 14
-7 14 6 0 13 -4 16 -10z m235 6 c0 -2 -7 -7 -16 -10 -8 -3 -12 -2 -9 4 6 10
25 14 25 6z m-683 -21 c0 -8 -4 -12 -9 -9 -5 3 -6 10 -3 15 9 13 12 11 12 -6z
m224 -8 c-10 -9 -11 -8 -5 6 3 10 9 15 12 12 3 -3 0 -11 -7 -18z m414 13 c-3
-5 -12 -10 -18 -10 -7 0 -6 4 3 10 19 12 23 12 15 0z m-962 -26 c-7 -19 -10
-18 -16 5 -3 13 -1 18 9 14 7 -2 10 -11 7 -19z m81 18 c2 -4 0 -14 -6 -22 -8
-12 -9 -12 -5 2 3 9 1 19 -6 22 -9 3 -9 5 0 5 6 1 14 -3 17 -7z m202 -27 c1
-8 -1 -17 -5 -19 -4 -3 -7 6 -7 19 0 25 8 25 12 0z m172 11 c-10 -7 -14 -17
-10 -21 4 -5 1 -5 -5 -1 -18 10 -16 24 5 29 27 7 28 7 10 -7z m240 0 c-10 -7
-14 -17 -10 -21 4 -5 1 -5 -5 -1 -18 10 -16 24 5 29 27 7 28 7 10 -7z m-808
-8 c0 -4 -4 -8 -9 -8 -6 0 -12 4 -15 8 -3 5 1 9 9 9 8 0 15 -4 15 -9z m480 0
c0 -4 -4 -8 -9 -8 -6 0 -12 4 -15 8 -3 5 1 9 9 9 8 0 15 -4 15 -9z m160 -3 c0
-1 -7 -8 -15 -15 -13 -11 -14 -10 -9 5 6 14 4 16 -6 10 -8 -5 -11 -4 -6 3 5 9
36 7 36 -3z m80 7 c0 -5 -7 -9 -15 -9 -8 0 -12 4 -9 9 3 4 9 8 15 8 5 0 9 -4
9 -8z m144 0 c3 -5 -1 -9 -9 -9 -8 0 -12 4 -9 9 3 4 7 8 9 8 2 0 6 -4 9 -8z
m-1014 -27 c0 -11 -29 -11 -33 -1 -4 10 1 12 14 9 10 -3 19 -7 19 -8z m190 0
c-5 -7 -7 -15 -3 -18 3 -4 2 -7 -4 -7 -6 0 -16 7 -23 15 -11 13 -10 14 5 9 11
-5 16 -4 12 3 -3 5 0 10 8 10 10 0 12 -4 5 -12z m405 -7 c5 4 5 1 1 -5 -11
-20 -23 -15 -29 10 -5 20 -5 20 7 5 7 -10 17 -14 21 -10z m77 0 c-6 -23 -16
-23 -33 0 -13 16 -13 16 5 2 18 -13 19 -13 14 1 -4 9 -1 16 7 16 7 0 10 -8 7
-19z m154 7 c-1 -8 -5 -17 -8 -21 -5 -4 -4 16 1 34 3 9 9 -1 7 -13z m85 -2
c-5 -10 -9 -22 -9 -26 0 -5 -4 -12 -8 -15 -4 -4 -3 -1 1 7 6 11 4 13 -8 8 -11
-4 -14 -2 -10 8 3 8 9 13 13 10 4 -3 10 2 14 10 3 8 8 15 11 15 3 0 1 -8 -4
-17z m-611 -15 c0 -6 -6 -5 -15 2 -8 7 -15 14 -15 16 0 2 7 1 15 -2 8 -4 15
-11 15 -16z m687 7 c0 -8 -4 -15 -9 -15 -10 0 -11 14 -1 23 9 10 10 9 10 -8z
m-937 -7 c0 -6 -3 -8 -7 -5 -3 4 -13 1 -22 -6 -14 -11 -14 -10 -2 6 15 20 31
22 31 5z m64 0 c-3 -4 -9 -8 -15 -8 -5 0 -9 4 -9 8 0 5 7 9 15 9 8 0 12 -4 9
-9z m132 0 c5 -7 3 -8 -6 -3 -10 6 -12 4 -7 -8 4 -11 2 -14 -9 -10 -11 4 -12
9 -3 19 14 17 16 17 25 2z m257 -3 c4 -8 1 -17 -5 -21 -7 -5 -8 -2 -3 6 6 10
4 12 -10 6 -15 -5 -16 -4 -5 9 15 19 16 19 23 0z m257 5 c8 -5 11 -10 5 -10
-5 0 -17 5 -25 10 -8 5 -10 10 -5 10 6 0 17 -5 25 -10z m-816 -26 c3 -8 2 -12
-4 -9 -6 3 -10 10 -10 16 0 14 7 11 14 -7z m53 10 c-3 -3 -12 -4 -19 -1 -8 3
-5 6 6 6 11 1 17 -2 13 -5z m873 -29 c0 -5 -5 -3 -10 5 -5 8 -10 20 -10 25 0
6 5 3 10 -5 5 -8 10 -19 10 -25z m79 18 c-12 -14 -12 -16 2 -11 9 4 16 1 16
-7 0 -7 -8 -10 -19 -7 -21 5 -23 13 -6 30 18 18 22 15 7 -5z m70 3 c9 -10 8
-15 -3 -19 -9 -4 -18 -1 -22 5 -5 7 -2 8 6 3 10 -6 12 -4 7 8 -8 21 -3 22 12
3z m-864 -16 c6 -1 12 -4 15 -7 3 -4 -1 -2 -9 2 -11 6 -13 4 -8 -8 4 -11 2
-14 -9 -10 -8 3 -12 8 -10 11 3 3 -2 11 -12 19 -16 13 -15 13 3 5 11 -6 25
-11 30 -12z m65 5 c0 -2 -6 -5 -13 -8 -8 -3 -14 1 -14 8 0 7 6 11 14 8 7 -3
13 -6 13 -8z m415 -5 c6 -1 12 -4 15 -7 3 -4 -1 -2 -9 2 -11 6 -13 4 -8 -8 4
-11 2 -14 -9 -10 -8 3 -12 8 -10 11 3 3 -2 11 -12 19 -16 13 -15 13 3 5 11 -6
25 -11 30 -12z m75 5 c0 -1 -8 -5 -18 -7 -11 -3 -19 0 -19 7 0 7 8 10 19 7 10
-2 18 -6 18 -7z m352 1 c7 4 8 2 4 -5 -9 -13 -26 -5 -25 12 0 9 2 8 6 -1 2 -6
10 -9 15 -6z m-976 -8 c5 -7 3 -8 -6 -3 -9 6 -12 4 -8 -7 4 -8 0 -15 -7 -15
-16 0 -15 18 0 29 13 10 13 10 21 -4z m198 -4 c3 -7 -2 -10 -15 -7 -22 6 -26
20 -4 20 8 0 16 -6 19 -13z m283 1 c5 -4 2 -5 -6 0 -11 6 -13 4 -7 -10 5 -15
4 -16 -9 -5 -8 7 -15 16 -15 20 0 10 27 7 37 -5z m-657 -14 c0 -5 -8 -15 -17
-22 -16 -12 -17 -12 -6 2 7 9 10 19 6 22 -3 4 -1 7 5 7 7 0 12 -4 12 -9z m330
3 c0 -8 -19 -13 -24 -6 -3 5 1 9 9 9 8 0 15 -2 15 -3z m66 -19 c-1 -14 -6 -28
-11 -33 -4 -4 -4 -1 0 7 6 11 4 13 -9 8 -15 -6 -15 -5 1 18 22 30 22 30 19 0z
m207 5 c-6 -22 -18 -26 -29 -8 -4 6 -3 8 3 5 6 -4 13 0 17 8 8 22 15 18 9 -5z
m397 0 c-6 -10 -5 -21 1 -27 6 -6 5 -10 -5 -10 -8 0 -12 5 -9 10 4 6 0 8 -8 5
-10 -4 -15 1 -15 13 0 14 3 16 15 6 12 -10 14 -9 9 4 -4 9 -1 16 7 16 10 0 11
-5 5 -17z m-804 -16 c1 -9 0 -13 -4 -10 -3 4 -7 14 -8 22 -1 9 0 13 4 10 3 -4
7 -14 8 -22z m748 10 c3 -8 2 -12 -4 -9 -6 3 -10 10 -10 16 0 14 7 11 14 -7z
m-908 -9 c-1 -8 -6 -18 -11 -22 -4 -5 -5 -2 0 6 6 11 4 13 -11 8 -18 -7 -18
-7 0 8 24 18 25 18 22 0z m88 3 c-3 -4 -9 -8 -15 -8 -5 0 -9 4 -9 8 0 5 7 9
15 9 8 0 12 -4 9 -9z m146 2 c-8 -5 -19 -10 -25 -10 -5 0 -3 5 5 10 8 5 20 10
25 10 6 0 3 -5 -5 -10z m67 -4 c0 -8 -6 -12 -15 -8 -10 3 -13 1 -8 -6 3 -6 1
-14 -5 -18 -8 -4 -9 -3 -5 4 4 7 1 12 -6 12 -9 1 16 20 38 30 0 0 1 -6 1 -14z
m180 7 c-4 -3 -2 -11 3 -18 7 -8 5 -12 -5 -12 -8 0 -11 5 -8 10 4 7 -1 8 -13
4 -18 -7 -18 -7 0 8 20 15 35 21 23 8z m153 -3 c-8 -5 -19 -10 -25 -10 -5 0
-3 5 5 10 8 5 20 10 25 10 6 0 3 -5 -5 -10z m80 0 c-8 -5 -19 -10 -25 -10 -5
0 -3 5 5 10 8 5 20 10 25 10 6 0 3 -5 -5 -10z m47 -15 c0 -8 -4 -12 -9 -9 -5
3 -6 10 -3 15 9 13 12 11 12 -6z m-709 -19 c-10 -7 -14 -17 -10 -21 4 -5 1 -5
-5 -1 -18 10 -16 24 5 29 27 7 28 7 10 -7z m366 1 c-3 -8 -11 -14 -19 -14 -21
0 -19 15 3 20 9 3 18 5 19 6 1 0 0 -5 -3 -12z m123 -1 c0 -8 -6 -12 -15 -8
-11 4 -13 1 -7 -8 5 -9 4 -11 -3 -6 -17 10 -15 24 6 29 9 3 17 5 18 6 0 0 1
-5 1 -13z m381 -11 c-3 -3 -9 2 -12 12 -6 14 -5 15 5 6 7 -7 10 -15 7 -18z
m-961 -5 c-2 -11 -9 -26 -17 -33 -10 -10 -11 -9 -4 3 9 15 10 20 13 40 0 6 3
10 6 10 3 0 3 -9 2 -20z m160 -4 c0 -7 -6 -13 -13 -13 -7 0 -10 7 -6 15 4 11
1 13 -8 7 -8 -5 -11 -4 -6 3 8 14 33 5 33 -12z m200 17 c-4 -3 -3 -11 3 -17 6
-8 3 -12 -9 -12 -12 0 -17 6 -13 18 2 10 9 18 15 18 6 0 7 -3 4 -7z m114 -16
c-10 -9 -11 -8 -5 6 3 10 9 15 12 12 3 -3 0 -11 -7 -18z m166 -1 c0 -7 -6 -13
-13 -13 -7 0 -10 7 -6 15 4 11 1 13 -8 7 -8 -5 -11 -4 -6 3 8 14 33 5 33 -12z
m302 1 c0 -9 -2 -9 -5 0 -3 7 -13 9 -22 6 -14 -4 -14 -3 -2 5 16 12 30 7 29
-11z m-1055 -3 c3 -8 2 -12 -4 -9 -6 3 -10 10 -10 16 0 14 7 11 14 -7z m156
-14 c-6 -10 -5 -21 1 -27 6 -6 5 -10 -5 -10 -8 0 -12 5 -9 10 4 6 0 8 -10 4
-11 -4 -14 -2 -10 8 3 8 10 12 16 8 6 -4 8 0 5 9 -4 8 0 15 7 15 10 0 11 -5 5
-17z m364 5 c-4 -8 -11 -15 -16 -15 -6 0 -5 6 2 15 7 8 14 15 16 15 2 0 1 -7
-2 -15z m117 2 c-6 -6 -7 -17 -1 -27 6 -12 5 -17 -5 -17 -7 0 -11 7 -7 15 3 9
1 13 -5 9 -6 -4 -13 0 -16 8 -4 10 -1 12 10 8 10 -4 14 -2 10 4 -3 5 1 10 9
10 10 0 11 -4 5 -10z m-404 -12 c0 -8 -4 -15 -9 -15 -10 0 -11 14 -1 23 9 10
10 9 10 -8z m-257 -5 c0 -5 -5 -10 -11 -10 -5 0 -7 5 -4 10 3 6 8 10 11 10 2
0 4 -4 4 -10z m460 0 c0 -5 -5 -10 -11 -10 -5 0 -7 5 -4 10 3 6 8 10 11 10 2
0 4 -4 4 -10z m277 -5 c0 -8 -4 -12 -9 -9 -4 3 -8 9 -8 15 0 5 4 9 8 9 5 0 9
-7 9 -15z m-400 -10 c0 -8 -4 -12 -9 -9 -5 3 -6 10 -3 15 9 13 12 11 12 -6z
m598 -6 c-4 -5 -12 -9 -18 -8 -9 0 -8 2 1 6 6 2 9 10 6 15 -4 7 -2 8 5 4 6 -4
9 -12 6 -17z m85 11 c0 -5 -2 -10 -4 -10 -3 0 -8 5 -11 10 -3 6 -1 10 4 10 6
0 11 -4 11 -10z m-720 -30 c0 -10 -27 -7 -37 5 -5 4 -2 5 6 0 11 -6 13 -4 7
10 -5 15 -4 16 9 5 8 -7 15 -16 15 -20z m-86 8 c-5 -7 -2 -9 8 -6 8 4 15 1 15
-7 0 -7 -8 -10 -19 -7 -19 5 -23 14 -11 25 10 11 15 8 7 -5z m380 -2 c-3 -9
-12 -12 -22 -9 -15 6 -9 11 25 22 1 1 0 -5 -3 -13z m103 7 c-4 -3 1 -12 11
-19 15 -12 15 -12 -5 -7 -13 3 -23 9 -23 12 0 9 11 21 18 21 3 0 2 -3 -1 -7z
m-566 -30 c-12 -20 -14 -14 -5 12 4 9 9 14 11 11 3 -2 0 -13 -6 -23z m480 4
c-10 -9 -11 -8 -5 6 3 10 9 15 12 12 3 -3 0 -11 -7 -18z m159 17 c0 -8 -19
-13 -24 -6 -3 5 1 9 9 9 8 0 15 -2 15 -3z m-591 -31 c-6 -7 -9 -19 -6 -26 3
-8 -1 -14 -8 -14 -8 0 -11 7 -7 15 3 9 1 13 -5 9 -5 -3 -10 0 -10 7 0 8 7 12
15 8 9 -3 13 -1 9 5 -3 5 0 10 8 10 11 0 12 -4 4 -14z m142 -20 c-6 -10 -11
-13 -11 -5 0 7 -5 10 -10 7 -6 -4 -7 -11 -4 -17 4 -7 2 -8 -5 -4 -9 6 -9 11 0
22 6 7 16 11 22 7 7 -4 8 0 3 13 -5 14 -4 16 4 7 9 -8 9 -16 1 -30z m335 1 c1
-21 -7 -29 -8 -7 -1 4 -8 14 -17 21 -14 11 -14 11 3 5 15 -5 17 -3 11 8 -5 8
-4 11 1 6 4 -4 9 -19 10 -33z m-178 14 c-2 -6 -12 -12 -21 -14 -9 -1 -15 2
-11 7 3 5 10 7 15 4 5 -4 9 -1 9 4 0 6 3 11 6 11 3 0 4 -5 2 -12z m-418 -8 c0
-5 -5 -10 -11 -10 -5 0 -7 5 -4 10 3 6 8 10 11 10 2 0 4 -4 4 -10z m137 -5 c0
-8 -4 -12 -9 -9 -5 3 -6 10 -3 15 9 13 12 11 12 -6z m199 3 c5 -7 3 -8 -6 -3
-10 6 -12 4 -6 -11 5 -14 4 -16 -5 -7 -6 6 -8 16 -5 22 9 14 13 14 22 -1z
m141 -7 c0 -11 -5 -18 -9 -15 -4 3 -5 11 -1 19 7 21 12 19 10 -4z m20 -3 c-3
-8 -6 -5 -6 6 -1 11 2 17 5 13 3 -3 4 -12 1 -19z m180 15 c-4 -3 -2 -11 3 -18
7 -8 5 -12 -5 -12 -8 0 -11 5 -8 10 4 7 -1 8 -12 3 -15 -5 -16 -4 -5 9 7 8 17
15 23 15 6 0 7 -3 4 -7z m-155 -46 c-7 -8 -8 -18 -4 -22 4 -5 1 -5 -5 -1 -10
5 -10 11 -1 26 7 11 14 17 17 15 2 -3 -1 -11 -7 -18z m-322 3 c0 -5 -2 -10 -4
-10 -3 0 -8 5 -11 10 -3 6 -1 10 4 10 6 0 11 -4 11 -10z m83 -9 c3 -13 1 -18
-9 -14 -7 2 -10 11 -7 19 7 19 10 18 16 -5z m90 5 c4 -10 0 -12 -15 -8 -15 4
-17 7 -6 13 17 11 15 11 21 -5z m267 8 c0 -8 -19 -13 -24 -6 -3 5 1 9 9 9 8 0
15 -2 15 -3z"/>
<path d="M1300 6249 c0 -5 5 -7 10 -4 6 3 10 8 10 11 0 2 -4 4 -10 4 -5 0 -10
-5 -10 -11z"/>
<path d="M296 4823 c-11 -11 -7 -20 9 -20 8 0 15 4 15 8 0 11 -16 20 -24 12z"/>
</g>
</svg>
