<svg height='100px' width='100px'  fill="#000000" xmlns="http://www.w3.org/2000/svg" xmlns:xlink="http://www.w3.org/1999/xlink" version="1.1" x="0px" y="0px" viewBox="0 0 32 32" enable-background="new 0 0 32 32" xml:space="preserve"><g display="none"><rect x="-365.995" y="-162.349" display="inline" fill="#000000" width="408.08" height="200.574"></rect></g><g><path d="M28.913,21.864c-1.2,0-2.31-0.422-3.131-1.289c-0.6-0.666-1.045-1.621-1.222-2.908h6.285v-1.088h-6.441   c0-0.156,0-0.267,0-0.4c0-0.311,0.022-0.644,0.045-0.934h6.396v-1.109h-6.195c0.222-1.177,0.666-2.177,1.332-2.82   c0.755-0.8,1.732-1.222,2.932-1.222c0.999,0,1.931,0.289,2.487,0.622l0.443-1.466c-0.622-0.333-1.643-0.711-2.953-0.711   c-1.821,0-3.265,0.666-4.398,1.844c-0.888,0.911-1.554,2.199-1.821,3.754h-1.466v1.109h1.311c-0.022,0.312-0.045,0.645-0.045,1   c0,0.11,0,0.222,0,0.333h-1.267v1.088h1.377c0.201,1.598,0.755,2.887,1.6,3.82c1.111,1.288,2.709,1.976,4.508,1.976   c1.466,0,2.621-0.466,3.309-0.932l-0.378-1.399C31.111,21.419,30.09,21.864,28.913,21.864z"></path><path d="M18.219,22.955H2.038v1.091H0.362v2.894h19.535v-2.894h-1.678V22.955z M18.897,25.046v0.894H1.362v-0.894h1.677v-1.091   h14.181v1.091H18.897z"></path><path d="M13.746,13.713v8.085h3.644v-8.085H13.746z M16.39,20.798h-1.644v-6.085h1.644V20.798z"></path><path d="M8.307,13.713v8.085h3.644v-8.085H8.307z M10.951,20.798H9.307v-6.085h1.644V20.798z"></path><path d="M2.868,13.713v8.085h3.644v-8.085H2.868z M5.512,20.798H3.868v-6.085h1.644V20.798z"></path><path d="M-0.001,12.553h20.26l-10.13-7.544L-0.001,12.553z M3.017,11.553l7.112-5.298l7.112,5.298H3.017z"></path><path d="M8.794,9.375c0,0.736,0.599,1.335,1.335,1.335s1.335-0.599,1.335-1.335S10.866,8.04,10.129,8.04S8.794,8.639,8.794,9.375z    M10.464,9.375c0,0.185-0.15,0.335-0.335,0.335S9.794,9.56,9.794,9.375s0.15-0.335,0.335-0.335S10.464,9.19,10.464,9.375z"></path></g><g display="none"><path display="inline" d="M32,22.53c-0.688,0.467-1.844,0.932-3.309,0.932c-1.799,0-3.397-0.688-4.508-1.976   c-0.844-0.932-1.399-2.221-1.6-3.82h-1.377v-1.088h1.267c0-0.111,0-0.223,0-0.333c0-0.355,0.022-0.688,0.045-1h-1.311v-1.109h1.466   c0.267-1.555,0.934-2.843,1.821-3.754c1.133-1.177,2.576-1.844,4.398-1.844c1.31,0,2.331,0.378,2.953,0.711l-0.443,1.466   c-0.556-0.333-1.488-0.622-2.487-0.622c-1.2,0-2.177,0.422-2.932,1.222c-0.666,0.644-1.111,1.643-1.332,2.82h6.195v1.109h-6.396   c-0.022,0.29-0.045,0.623-0.045,0.934c0,0.132,0,0.244,0,0.4h6.441v1.088H24.56c0.177,1.288,0.622,2.242,1.222,2.908   c0.821,0.867,1.931,1.289,3.131,1.289c1.176,0,2.198-0.444,2.709-0.733L32,22.53z"></path><path display="inline" d="M9.534,5.562L0,12.792h19.068L9.534,5.562L9.534,5.562z"></path><path display="inline" d="M18.808,22.987H0.26v3.452h18.548V22.987L18.808,22.987z"></path><path display="inline" d="M16.418,13.908h-3.391v7.961h3.391V13.908L16.418,13.908z"></path><path display="inline" d="M11.229,13.908h-3.39v7.961h3.39V13.908L11.229,13.908z"></path><path display="inline" d="M6.041,13.908H2.65v7.961h3.391V13.908L6.041,13.908z"></path></g></svg>