<svg height='100px' width='100px'  fill="#000000" xmlns="http://www.w3.org/2000/svg" xmlns:xlink="http://www.w3.org/1999/xlink" version="1.1" x="0px" y="0px" viewBox="0 0 64 64" enable-background="new 0 0 64 64" xml:space="preserve"><g><g><path d="M46,34c1.104,0,2-0.896,2-2s-0.896-2-2-2c-3.72,0-6.845,2.555-7.736,6H38c-1.104,0-2,0.896-2,2s0.896,2,2,2h0.264    c0.892,3.444,4.017,6,7.736,6c1.104,0,2-0.896,2-2s-0.896-2-2-2c-1.475,0-2.75-0.811-3.443-2H44c1.104,0,2-0.896,2-2s-0.896-2-2-2    h-1.443C43.25,34.811,44.525,34,46,34z"></path><polygon points="51.489,12 8.51,12 30,23.722   "></polygon><path d="M54,28.22V15.188L30.958,27.756C30.659,27.918,30.33,28,30,28s-0.659-0.082-0.958-0.244L6,15.188V46c0,1.1,0.9,2,2,2    h26.22c2.53,2.47,5.98,4,9.78,4c7.72,0,14-6.28,14-14C58,34.2,56.47,30.75,54,28.22z M45.33,47.91C44.9,47.97,44.45,48,44,48    c-5.51,0-10-4.49-10-10s4.49-10,10-10c0.52,0,1.02,0.04,1.52,0.12C50.31,28.85,54,33.01,54,38C54,43.06,50.22,47.26,45.33,47.91z"></path></g></g></svg>