<svg height='100px' width='100px'  fill="#000000" xmlns="http://www.w3.org/2000/svg" data-name="Layer 1" viewBox="0 0 5 5" x="0px" y="0px"><title>money</title><g><path d="M4.38608,3.07369a.764.764,0,0,0-.22474-.16215.07883.07883,0,0,0,.00594-.02912l-.00016-.00156.00016-.00139L4.1667,2.87374,4.16728,2.868V2.73608L4.16717,2.735l.00011-.00187L4.1667,2.72739l.00058-.00573V2.58972l-.00011-.00109.00011-.00187L4.16671,2.581l.00058-.00573V2.44337l-.00011-.00109.00011-.00187L4.1667,2.43468,4.16728,2.429V2.297l-.00011-.00109.00011-.00187L4.1667,2.28833l.00058-.00573V2.15066l-.00052-.00515.00052-.00516V2.00841c0-.10364-.19332-.15085-.37293-.15085s-.37294.04721-.37294.15085v.10812a1.65084,1.65084,0,0,0-.22852-.28591.57851.57851,0,0,0,.15413.02261.308.308,0,0,0,.08171-.009.0564.0564,0,0,0-.03153-.1083.38652.38652,0,0,1-.19381-.01985A.41044.41044,0,0,0,3.407,1.53992a.159.159,0,0,0-.00522-.16455.14391.14391,0,0,0-.116-.067.33093.33093,0,0,0-.19374.078.83757.83757,0,0,0,.04182-.27855.0564.0564,0,0,0-.0564-.0564.18027.18027,0,0,1-.08817-.03074A.28137.28137,0,0,0,2.847.97614a.18548.18548,0,0,0-.12819.05028.07756.07756,0,0,1-.11409,0,.18854.18854,0,0,0-.25639,0,.07684.07684,0,0,1-.057.025.226.226,0,0,1-.0978-.03184A.324.324,0,0,0,2.04586.97614L2.04468.97626,2.03843.97689l-.00492.0007L2.0279.97933,2.023.981,2.01813.98371,2.01362.98636,2.00927.98995,2.00543.99333,2.0018.99773l-.00313.00408-.00259.00477-.0025.00505-.00148.00479-.00161.00606-.0003.00113a.95111.95111,0,0,0-.011.10551.71287.71287,0,0,0-.29457-.05363c-.17962,0-.37293.04721-.37293.15085v.13194l.00052.00515-.00052.00515v.13194l.00058.00573L1.31172,1.512l.00011.00187-.00011.00109v.13193l.00058.00573-.00058.00573.00011.00187-.00011.00109v.06559l.00809.00365a.94511.94511,0,0,0-.16933-.01473c-.17961,0-.37293.04719-.37293.15085v.13194l.00052.00515-.00052.00515v.13194l.00058.00573-.00058.00573.00011.00188-.00011.00109V2.2872l.00058.00573-.00058.00573.00011.00187L.77756,2.3016v.13194l.00058.00573L.77756,2.445l.00011.00187L.77756,2.448V2.5799l.00058.00572-.00058.00573.00011.00187L.77756,2.5943v.13194L.77814,2.732l-.00058.00574.00011.00187-.00011.00108V2.8726l.00058.00572-.00058.00573.0004.00686-.0004.004-.001.05247a.87654.87654,0,0,0-.16933.134c-.12337.12295-.224.28617-.16332.3629l.00566.0072.09314.09345.00445.00364L.5508,3.553a.08813.08813,0,0,0,.06527.02471.24247.24247,0,0,0,.106-.03067.81978.81978,0,0,0,.19933-.15047l.02609-.027a.40615.40615,0,0,0,.67852.25431.54147.54147,0,0,0,.16314.0852c-.0742.0247-.12548.063-.12548.11639v.13194l.00058.00574-.00058.00574c0,.10364.19332.15083.37294.15083s.37293-.04719.37293-.15083L2.409,3.96312l.00058-.00572V3.82547a.09937.09937,0,0,0-.05049-.081H2.974a.69461.69461,0,0,0,.48656-.1272c.04019.07792.2072.11382.36383.11382.17962,0,.37294-.04719.37294-.15084l-.00058-.00575.00058-.00571V3.495a.60537.60537,0,0,0,.07309.04419.2421.2421,0,0,0,.1062.03084.08806.08806,0,0,0,.06509-.02461L4.44536,3.541l.00446-.00365.09329-.09329.00568-.00719C4.60961,3.36024,4.50923,3.19686,4.38608,3.07369Zm.09827.31161c-.02038.00742-.12412-.02792-.253-.15684h0a.51372.51372,0,0,1-.15754-.242l.02129-.01025a.55824.55824,0,0,1,.23245.156C4.45641,3.26117,4.4918,3.36491,4.48435,3.3853Zm-.51954-.12275q.01117.01978.01842.03631a.94454.94454,0,0,0-.1417-.01273A.87446.87446,0,0,1,3.747,3.202a.89734.89734,0,0,1-.07151-.08208,1.35058,1.35058,0,0,0-.00126-.14656.73056.73056,0,0,1,.17.13346A.85391.85391,0,0,1,3.9333,3.213C3.94255,3.2292,3.9531,3.24578,3.96481,3.26255ZM3.50424,2.15066h0Zm.5808.13774-.00058.005c-.00721.01924-.10575.06868-.29011.06868A.55869.55869,0,0,1,3.52,2.30818l-.00653-.01581-.00924-.02063V2.25125a.72489.72489,0,0,0,.29011.05141.72486.72486,0,0,0,.2901-.05141V2.2826ZM4.085,2.14551l0,.00044-.00047.004c-.0072.01925-.10573.06868-.29011.06868S3.51143,2.16925,3.50423,2.15l-.00046-.004-.00005-.00053.00052-.00516v-.0325a.72489.72489,0,0,0,.29011.05141.72486.72486,0,0,0,.2901-.05141v.0325Zm-.29063.30235a.72491.72491,0,0,0,.2901-.0514V2.429l.00059.0058-.00058.005c-.00721.01925-.10575.06868-.29011.06868A.73347.73347,0,0,1,3.5806,2.4806q-.01007-.033-.02025-.06315A.84433.84433,0,0,0,3.79435,2.44786Zm.08926.58147.02315-.00245-.0093.01614ZM4.085,2.87381l-.00058.005a.03777.03777,0,0,1-.01473.01415.08565.08565,0,0,0-.04682.018l-.0072.00568L4.015,2.91737a.71712.71712,0,0,1-.22065.03012l-.00714-.0001A.62381.62381,0,0,0,3.70592,2.896a.36932.36932,0,0,0-.03917-.01756.98326.98326,0,0,0,.1276.00848.72486.72486,0,0,0,.2901-.05141V2.868Zm-.43523.42792c.00539-.02185.01023-.0442.014-.06753l.024.02577L3.72,3.29139C3.696,3.29392,3.67239,3.29737,3.64982,3.30173ZM4.085,2.72746l-.00058.005c-.00721.01925-.10575.06868-.29011.06868a.85632.85632,0,0,1-.14075-.0109l-.011-.06157a.96132.96132,0,0,0,.15172.0119.7249.7249,0,0,0,.2901-.05141v.03249Zm0-.14636-.00058.005c-.0072.01925-.10573.06869-.29011.06869A.807.807,0,0,1,3.62317,2.638L3.60768,2.5759a.92049.92049,0,0,0,.18667.01831.7249.7249,0,0,0,.2901-.05141v.03249Zm-.55074.85651c.00678-.01915.10528-.06882.2901-.06882a.439.439,0,0,1,.29021.067v.00008c-.00631.019-.10489.069-.2902.069A.44088.44088,0,0,1,3.5343,3.438Zm.26005-1.49723a.43247.43247,0,0,1,.28983.068.43257.43257,0,0,1-.28983.068.43263.43263,0,0,1-.28985-.068A.43251.43251,0,0,1,3.79435,1.94039ZM2.536,1.68759a.83336.83336,0,0,1-.256-.03238,2.20992,2.20992,0,0,0,.24523.01273c.09354,0,.16955-.00507.22057-.00986A.6943.6943,0,0,1,2.536,1.68759Zm-.5607-.32416L1.97523,1.364l-.00046.004c-.0072.01925-.10573.06869-.29012.06869s-.28292-.04944-.29011-.06869l-.00047-.0041,0-.0004.00052-.00515v-.0325a.725.725,0,0,0,.29011.0514.725.725,0,0,0,.29011-.0514v.0325Zm-.29063.15715a.72494.72494,0,0,0,.29011-.05141v.03134l.00058.00581-.00057.005C1.96756,1.53057,1.869,1.58,1.68465,1.58s-.28291-.04944-.29011-.06868l-.00058-.005.00058-.0058V1.46918A.72494.72494,0,0,0,1.68465,1.52059Zm0,.1452a.72494.72494,0,0,0,.29011-.05141v.03249l.00058.00581-.00057.005c-.0072.01925-.10573.06869-.29012.06869s-.28292-.04944-.29011-.06869l-.00058-.005.00058-.0058V1.61438A.72494.72494,0,0,0,1.68465,1.66579Zm-.24354.338L1.44069,2.008c-.0063.019-.10488.069-.2902.069s-.284-.05-.2901-.068L.85986,2.00374l.00052-.00515V1.9661a.725.725,0,0,0,.2901.05139A.725.725,0,0,0,1.4406,1.9661v.03249Zm-.29063.15715a.725.725,0,0,0,.29011-.0514v.03134l.00059.00583-.00047.00463c-.00618.019-.10478.069-.29023.069s-.284-.05-.2901-.068L.85981,2.14656l.00058-.00573V2.10949A.725.725,0,0,0,1.15049,2.16089Zm0,.1452a.725.725,0,0,0,.29011-.05139V2.2872l.00059.00583-.00047.00463c-.00618.019-.10478.069-.29023.069s-.284-.05-.2901-.068L.85981,2.29292.86038,2.2872V2.25469A.725.725,0,0,0,1.15049,2.30608Zm0,.14636A.725.725,0,0,0,1.4406,2.401v.03249l.00059.00584L1.44072,2.444c-.00619.019-.10481.069-.29023.069s-.284-.05-.2901-.068L.8598,2.43927l.00058-.00573V2.401A.725.725,0,0,0,1.15049,2.45245Zm0,.14636a.725.725,0,0,0,.29011-.0514V2.5799l.00059.00583-.00047.00463c-.00618.019-.10478.069-.29023.069s-.284-.05-.2901-.068L.85981,2.58562.86038,2.5799V2.54741A.72491.72491,0,0,0,1.15049,2.5988Zm0,.14634a.72818.72818,0,0,0,.28878-.05079l-.0106.05492a.53934.53934,0,0,1-.27818.05646c-.18542,0-.284-.05-.2901-.068L.8598,2.732l.00058-.00573V2.69375A.72491.72491,0,0,0,1.15049,2.74515Zm0,.14636A.79012.79012,0,0,0,1.413,2.85177l-.00633.05635-.02518.01037L1.35182,2.917a.4043.4043,0,0,0-.163.03432l-.03833.0008a.82767.82767,0,0,1-.16-.01447L.9779,2.925l0,0A.09883.09883,0,0,0,.88379,2.9031c-.01391-.00754-.02183-.01438-.0234-.019L.85981,2.87833.86038,2.8726V2.84011A.72491.72491,0,0,0,1.15049,2.89151Zm.37294-.51046.00242.00043-.00242.00687Zm.03643-.0885-.00414.01013L1.52326,2.297,1.52285,2.2929l.00058-.00571V2.23776c.01864.00325.03781.00591.05737.008Zm.06327-.12916a.75731.75731,0,0,1-.09986-.0127l-.00042-.00415.00058-.00571V2.09128a.93.93,0,0,0,.13476.013C1.64614,2.12355,1.63439,2.14322,1.62312,2.16339Zm.09276-.14507-.03123.00074a.822.822,0,0,1-.1617-.01483l0-.00051.00052-.00514V1.945a.95083.95083,0,0,0,.16123.01345c.02638,0,.053-.00115.0793-.00322Q1.73954,1.98581,1.71588,2.01832Zm.13226-.16084a.88944.88944,0,0,1-.32523.00049.09994.09994,0,0,0-.04478-.06854.89357.89357,0,0,0,.20652.02272.83811.83811,0,0,0,.239-.03167C1.8988,1.80447,1.87349,1.8301,1.84815,1.85748Zm.20944-.19618-.00011-.00109.00011-.00187L2.057,1.65261l.00058-.00573V1.51494l-.00011-.00109L2.05759,1.512,2.057,1.50626l.00058-.00573v-.02a.47479.47479,0,0,0,.09222.11116c-.02554.01823-.057.04179-.09222.07029ZM3.28051,1.421a.03206.03206,0,0,1,.02759.01724c.00366.00545.01339.02-.00229.05179a.32572.32572,0,0,1-.239.14621.15609.15609,0,0,1-.03707-.00173l-.02271-.014-.00169-.00088c.08543-.09409.20591-.19869.27233-.19869Zm-.98919-.25678a.18548.18548,0,0,0,.12819-.05029.07753.07753,0,0,1,.11406,0,.18856.18856,0,0,0,.2564,0,.07687.07687,0,0,1,.057-.025.18026.18026,0,0,1,.08818.03075.37422.37422,0,0,0,.08459.0369c-.01551.32583-.18474.37708-.2038.38178a.05589.05589,0,0,0-.01651,0c-.00061.0001-.03594.0055-.09645.01016A.391.391,0,0,0,2.73,1.40176a.05632.05632,0,0,0-.05635-.05509h-.0011a.05647.05647,0,0,0-.05533.05738c.00061.0373-.011.12128-.051.14277L2.55507,1.555l-.02984.00018L2.50685,1.555a.21689.21689,0,0,1-.06391-.15347.0564.0564,0,0,0-.05637-.055h-.0013a.0564.0564,0,0,0-.0551.05767.40122.40122,0,0,0,.03352.14525c-.0448-.00321-.077-.007-.09382-.00923a.425.425,0,0,1-.17544-.44175.51555.51555,0,0,1,.04924.02224A.324.324,0,0,0,2.29133,1.16423Zm-.60667-.00592a.43245.43245,0,0,1,.28984.068.43257.43257,0,0,1-.28984.068.43257.43257,0,0,1-.28984-.068A.43248.43248,0,0,1,1.68465,1.15831Zm-.53417.6403a.439.439,0,0,1,.29021.067v.00008c-.0063.019-.10488.069-.2902.069a.44089.44089,0,0,1-.2901-.06685v-.0004C.86716,1.84828.96566,1.79861,1.15049,1.79861ZM.6657,3.14a.63291.63291,0,0,1,.21119-.14925.429.429,0,0,0,.041.01436.56147.56147,0,0,1-.15614.23125c-.1291.12868-.23288.1639-.2533.15643C.501,3.37239.53658,3.26872.6657,3.14ZM.863,3.33795c-.13058.13014-.23528.16471-.254.15615L.60505,3.491.60137,3.48645l-.023-.02311A.72388.72388,0,0,0,.8202,3.29505h0a.82007.82007,0,0,0,.15113-.19883A.36327.36327,0,0,0,.98957,3.054l.02276.02284.00452.0037L1.02,3.0845,1.0208,3.088a.40485.40485,0,0,0-.06422.14049A.8513.8513,0,0,1,.863,3.33795Zm.19463-.014a.29422.29422,0,1,1,.29422.29422A.29456.29456,0,0,1,1.0576,3.324Zm.979.43346a.43919.43919,0,0,1,.29021.067v.00008c-.00631.019-.10488.069-.2902.069a.44091.44091,0,0,1-.29011-.06685v-.0004C1.75332,3.8071,1.85184,3.75745,2.03664,3.75745Zm0,.27945c-.18542,0-.284-.05-.29011-.068L1.746,3.96314l.00058-.00574V3.92492a.725.725,0,0,0,.29011.05139.725.725,0,0,0,.2901-.05139v.03249l.00059.00584-.00047.00465C2.32067,3.98689,2.22206,4.0369,2.03664,4.0369ZM3.0438,3.633a.6186.6186,0,0,0,.18837-.2703.53558.53558,0,0,0,.02975-.22243.0564.0564,0,0,0-.11193.014.498.498,0,0,1-.30679.47742H2.23553a.54917.54917,0,0,1-.28443-.30772.0564.0564,0,0,0-.10665.03675.622.622,0,0,0,.19022.27232.55855.55855,0,0,1-.33634-.09657.40552.40552,0,0,0-.18189-.58436l.00219-.02992a.07917.07917,0,0,0,.00479-.02723l-.0004-.004.0004-.00686-.00027-.00266.00264-.02383a2.20641,2.20641,0,0,1,.138-.52127,1.628,1.628,0,0,1,.50012-.61381.2478.2478,0,0,0,.04452.02576.40537.40537,0,0,0,.046.01707.42694.42694,0,0,0-.05091.12117.05641.05641,0,0,0,.04027.06885l.01432.00185a.05644.05644,0,0,0,.05453-.04213.28241.28241,0,0,1,.05809-.11634l.00786-.00786c.0196.00242.04011.00441.06169.00591a.86647.86647,0,0,0-.00486.15.05639.05639,0,0,0,.05623.0528l.00361-.00011A.05642.05642,0,0,0,2.548,1.9396a.728.728,0,0,1,.0058-.13937c.02024-.00031.04107-.00134.06223-.00322l.00774.00775a.31965.31965,0,0,1,.059.13275.05643.05643,0,0,0,.05485.04349l.01293-.0015a.05641.05641,0,0,0,.042-.06779.564.564,0,0,0-.05105-.13557l.03712-.01033.00526.00448a.46508.46508,0,0,1,.0941.12056.0564.0564,0,1,0,.098-.05586.76054.76054,0,0,0-.07743-.11022,1.6085,1.6085,0,0,1,.511.61171,2.213,2.213,0,0,1,.14014.52156,1.02034,1.02034,0,0,1-.03175.48786.10891.10891,0,0,0-.06657.09095V3.4665A.49481.49481,0,0,1,3.0438,3.633Zm.7806.01528c-.18545,0-.284-.05-.2901-.068L3.53372,3.5745l.00058-.00573V3.53629a.725.725,0,0,0,.2901.05139.725.725,0,0,0,.29011-.0514v.03249l.00059.00583-.00047.00463C4.10845,3.59824,4.00985,3.64826,3.8244,3.64826Zm.30551-.3184a.8493.8493,0,0,1-.09447-.111c-.009-.01565-.0191-.03148-.03006-.04731-.02852-.05032-.03662-.08533-.032-.09538l.00314-.004.0045-.00367.02318-.02318a.72262.72262,0,0,0,.16858.24169h0a.72378.72378,0,0,0,.24158.16869l-.02307.02307-.00368.0045-.004.00314C4.36494,3.495,4.2603,3.46023,4.12991,3.32986Z"></path><path d="M1.35182,3.09044a.23356.23356,0,1,0,.23356.23356A.23382.23382,0,0,0,1.35182,3.09044Zm0,.35433A.12078.12078,0,1,1,1.47258,3.324.12091.12091,0,0,1,1.35182,3.44477Z"></path><path d="M2.58848,2.46054a.31211.31211,0,0,1,.23015.1A.0564.0564,0,0,0,2.901,2.48348a.42758.42758,0,0,0-.72327.17319H2.062a.05639.05639,0,1,0,0,.11278h.09889l-.00032.00621.00032.00623H2.062a.05639.05639,0,1,0,0,.11278h.11576a.42758.42758,0,0,0,.72326.17319.0564.0564,0,0,0-.08238-.07707.31209.31209,0,0,1-.23015.1.31548.31548,0,0,1-.29161-.19613h.36031a.05639.05639,0,1,0,0-.11278H2.27368l-.00032-.00623.00032-.00621h.38351a.05639.05639,0,1,0,0-.11278H2.29686A.31549.31549,0,0,1,2.58848,2.46054Z"></path></g></svg>