<svg height='100px' width='100px'  fill="#000000" xmlns="http://www.w3.org/2000/svg" xmlns:xlink="http://www.w3.org/1999/xlink" version="1.1" x="0px" y="0px" viewBox="0 0 100 100" style="enable-background:new 0 0 100 100;" xml:space="preserve"><path d="M56.3,87.1l-3.1,1.2l-6.3-18c0,0,0,0,0,0c0-0.1-0.1-0.1-0.1-0.2c0-0.1-0.1-0.1-0.1-0.2c0-0.1-0.1-0.1-0.1-0.2  c0,0-0.1-0.1-0.1-0.1c0,0-0.1-0.1-0.1-0.1c0,0-0.1-0.1-0.1-0.1c-0.1,0-0.1-0.1-0.2-0.1c0,0-0.1-0.1-0.1-0.1c-0.1,0-0.1,0-0.2-0.1  s-0.1,0-0.2,0c-0.1,0-0.1,0-0.2,0c-0.1,0-0.1,0-0.2,0c0,0,0,0-0.1,0h-5c-2.3-6.4-8-11.1-15-11.9v-7.6c1.4,1,3.2,1.5,5,1.5  c5,0,9-4,9-9c0-5-4-9-9-9s-9,4-9,9v15.1c-2.9,0.3-5.7,1.4-8,2.9V49c0-1.1-0.9-2-2-2H7c-1.1,0-2,0.9-2,2c0,1.1,0.9,2,2,2h2v12.7  c-2.5,3.1-4,7-4,11.3c0,9.9,8.1,18,18,18s18-8.1,18-18c0-0.7,0-1.3-0.1-2h2.7l6.5,18.7c0,0,0,0,0,0c0,0,0,0,0,0  c0,0.1,0.1,0.2,0.2,0.3c0,0.1,0.1,0.2,0.1,0.2c0.1,0.1,0.2,0.2,0.2,0.2c0.1,0,0.1,0.1,0.2,0.2c0.1,0.1,0.2,0.1,0.3,0.2  c0.1,0,0.1,0.1,0.2,0.1C51.6,93,51.8,93,52,93c0,0,0,0,0,0h0c0.1,0,0.2,0,0.3,0c0,0,0.1,0,0.1,0c0.1,0,0.1,0,0.2,0c0,0,0,0,0,0  c0,0,0,0,0,0l5-2c1-0.4,1.5-1.6,1.1-2.6C58.5,87.2,57.3,86.7,56.3,87.1z M30,37c2.8,0,5,2.2,5,5s-2.2,5-5,5s-5-2.2-5-5  S27.2,37,30,37z M23,89c-7.7,0-14-6.3-14-14c0-7.7,6.3-14,14-14s14,6.3,14,14C37,82.7,30.7,89,23,89z M71.4,45.6  C71.8,46,72,46.5,72,47c0,0.5-0.2,1-0.6,1.4C71,48.8,70.5,49,70,49s-1-0.2-1.4-0.6C68.2,48,68,47.5,68,47c0-0.5,0.2-1,0.6-1.4  C69.3,44.8,70.7,44.8,71.4,45.6z M61,26c0-2.4,1-4.7,2.7-6.4c1.7-1.7,4-2.6,6.5-2.6c4.8,0.1,8.8,4,8.9,8.9c0,3.5-2,6.7-5.1,8.2  C72.7,34.7,72,35.8,72,37c0,1.1-0.9,2-2,2s-2-0.9-2-2c0-2.8,1.6-5.3,4.2-6.5c1.8-0.8,2.9-2.6,2.8-4.6c0-2.6-2.3-4.9-4.9-4.9H70  c-1.3,0-2.6,0.5-3.5,1.4c-1,1-1.5,2.2-1.5,3.6c0,1.1-0.9,2-2,2S61,27.1,61,26z M93,7H47c-1.1,0-2,0.9-2,2v48c0,1.1,0.9,2,2,2h11v10  c0,0.7,0.4,1.4,1,1.7c0.3,0.2,0.6,0.3,1,0.3c0.4,0,0.7-0.1,1-0.3L80.5,59H93c1.1,0,2-0.9,2-2V9C95,7.9,94.1,7,93,7z M91,55H80  c-0.4,0-0.7,0.1-1,0.3L62,65.5V57c0-1.1-0.9-2-2-2H49V11h42V55z"></path></svg>